<svg width="365" height="66" viewBox="0 0 365 66" fill="none" xmlns="http://www.w3.org/2000/svg">
<g filter="url(#filter0_d_199_23920)">
<path d="M10.9425 3.20093H354.057C355.154 3.20093 356.205 3.63646 356.98 4.41172C357.756 5.18698 358.191 6.23846 358.191 7.33484V51.7744C358.191 52.8708 357.756 53.9223 356.98 54.6975C356.205 55.4728 355.154 55.9083 354.057 55.9083H10.9425C9.84612 55.9083 8.79465 55.4728 8.01939 54.6975C7.24413 53.9223 6.80859 52.8708 6.80859 51.7744V7.33484C6.80859 6.23846 7.24413 5.18698 8.01939 4.41172C8.79465 3.63646 9.84612 3.20093 10.9425 3.20093Z" fill="#243D45"/>
</g>
<mask id="mask0_199_23920" style="mask-type:luminance" maskUnits="userSpaceOnUse" x="121" y="13" width="107" height="33">
<path d="M227.825 13.8809H121.323V45.2283H227.825V13.8809Z" fill="white"/>
</mask>
<g mask="url(#mask0_199_23920)">
<path d="M223.818 44.8345H125.328C124.369 44.8345 123.448 44.4534 122.77 43.7751C122.092 43.0967 121.711 42.1767 121.711 41.2173V17.8855C121.713 16.9276 122.095 16.0097 122.773 15.3331C123.451 14.6566 124.37 14.2766 125.328 14.2766H223.818C224.778 14.2766 225.698 14.6577 226.376 15.3361C227.054 16.0144 227.436 16.9345 227.436 17.8938V41.2215C227.436 42.1808 227.054 43.1008 226.376 43.7792C225.698 44.4575 224.778 44.8386 223.818 44.8386" fill="black"/>
<path d="M223.816 45.2283H125.331C124.269 45.227 123.25 44.8043 122.499 44.0529C121.747 43.3016 121.325 42.283 121.323 41.2205V17.8887C121.325 16.8262 121.747 15.8076 122.499 15.0562C123.25 14.3049 124.269 13.8822 125.331 13.8809H223.822C224.884 13.8822 225.903 14.3049 226.654 15.0562C227.405 15.8076 227.828 16.8262 227.829 17.8887V41.2205C227.828 42.283 227.405 43.3016 226.654 44.0529C225.903 44.8043 224.884 45.227 223.822 45.2283M125.331 14.6715C124.478 14.6726 123.66 15.0119 123.057 15.615C122.454 16.2181 122.115 17.0358 122.114 17.8887V41.2205C122.115 42.0734 122.454 42.8911 123.057 43.4942C123.66 44.0973 124.478 44.4366 125.331 44.4377H223.822C224.674 44.4366 225.492 44.0973 226.095 43.4942C226.698 42.8911 227.038 42.0734 227.039 41.2205V17.8887C227.038 17.0349 226.698 16.2164 226.093 15.6132C225.489 15.0099 224.67 14.6712 223.816 14.6715H125.331Z" fill="#96999C"/>
<path d="M175.048 31.0243C174.386 31.027 173.74 31.2255 173.192 31.595C172.643 31.9644 172.216 32.4881 171.965 33.1C171.713 33.7119 171.649 34.3845 171.78 35.033C171.91 35.6814 172.23 36.2766 172.699 36.7434C173.168 37.2102 173.764 37.5277 174.413 37.6558C175.062 37.7839 175.734 37.7168 176.345 37.4631C176.956 37.2093 177.478 36.7803 177.845 36.2301C178.213 35.6799 178.409 35.0332 178.409 34.3717C178.415 33.9292 178.332 33.4899 178.166 33.08C177.999 32.6701 177.751 32.2979 177.438 31.9856C177.124 31.6733 176.751 31.4272 176.34 31.2621C175.93 31.0969 175.49 31.0161 175.048 31.0243ZM175.048 36.3984C174.64 36.4274 174.234 36.3332 173.88 36.1278C173.527 35.9225 173.244 35.6156 173.068 35.2472C172.892 34.8787 172.831 34.4657 172.892 34.062C172.954 33.6583 173.136 33.2825 173.415 32.9836C173.693 32.6847 174.055 32.4765 174.453 32.3861C174.851 32.2958 175.268 32.3275 175.648 32.477C176.028 32.6266 176.354 32.8871 176.584 33.2247C176.814 33.5623 176.937 33.9612 176.937 34.3697C176.949 34.6277 176.91 34.8856 176.821 35.1281C176.732 35.3707 176.596 35.593 176.42 35.7821C176.244 35.9711 176.032 36.123 175.796 36.2288C175.56 36.3347 175.306 36.3923 175.048 36.3984ZM167.717 31.0243C167.056 31.0267 166.41 31.2252 165.861 31.5945C165.312 31.9638 164.885 32.4874 164.633 33.0993C164.382 33.7112 164.317 34.3838 164.448 35.0324C164.579 35.6809 164.898 36.2762 165.367 36.7431C165.836 37.21 166.432 37.5276 167.081 37.6557C167.73 37.7839 168.402 37.7169 169.013 37.4632C169.624 37.2094 170.146 36.7804 170.514 36.2302C170.881 35.68 171.077 35.0333 171.077 34.3717C171.083 33.9293 171.001 33.4901 170.834 33.0802C170.667 32.6704 170.42 32.2982 170.107 31.986C169.793 31.6737 169.42 31.4276 169.01 31.2624C168.599 31.0972 168.16 31.0162 167.717 31.0243ZM167.717 36.3984C167.31 36.4274 166.903 36.3332 166.55 36.1278C166.197 35.9225 165.914 35.6156 165.738 35.2472C165.561 34.8787 165.5 34.4657 165.562 34.062C165.624 33.6583 165.806 33.2825 166.084 32.9836C166.362 32.6847 166.724 32.4765 167.123 32.3861C167.521 32.2958 167.937 32.3275 168.317 32.477C168.697 32.6266 169.024 32.8871 169.253 33.2247C169.483 33.5623 169.606 33.9612 169.606 34.3697C169.619 34.6277 169.579 34.8856 169.49 35.1281C169.402 35.3707 169.265 35.593 169.089 35.7821C168.913 35.9711 168.701 36.123 168.465 36.2288C168.23 36.3347 167.975 36.3923 167.717 36.3984ZM158.994 32.0516V33.4716H162.392C162.343 34.1378 162.07 34.7679 161.618 35.2595C161.277 35.6067 160.867 35.8786 160.415 36.0577C159.963 36.2368 159.478 36.3191 158.993 36.2992C157.99 36.2992 157.029 35.901 156.32 35.1922C155.611 34.4834 155.213 33.5221 155.213 32.5197C155.213 31.5174 155.611 30.5561 156.32 29.8473C157.029 29.1385 157.99 28.7403 158.993 28.7403C159.947 28.7273 160.868 29.0921 161.555 29.7552L162.556 28.7537C162.087 28.29 161.531 27.9244 160.919 27.6784C160.307 27.4325 159.653 27.3111 158.994 27.3213C158.302 27.3076 157.615 27.4319 156.972 27.687C156.329 27.9421 155.743 28.3228 155.249 28.807C154.756 29.2912 154.363 29.869 154.095 30.5067C153.827 31.1444 153.689 31.8291 153.689 32.5208C153.689 33.2124 153.827 33.8971 154.095 34.5348C154.363 35.1725 154.756 35.7504 155.249 36.2345C155.743 36.7187 156.329 37.0995 156.972 37.3546C157.615 37.6097 158.302 37.734 158.994 37.7202C159.667 37.7481 160.338 37.6324 160.964 37.381C161.589 37.1296 162.153 36.7482 162.62 36.262C163.449 35.3581 163.89 34.1659 163.851 32.9404C163.854 32.6427 163.828 32.3454 163.774 32.0526L158.994 32.0516ZM194.658 33.1553C194.457 32.549 194.074 32.0193 193.561 31.6382C193.048 31.2571 192.431 31.0431 191.792 31.0253C191.362 31.028 190.937 31.1178 190.542 31.2894C190.148 31.461 189.792 31.7108 189.497 32.0237C189.202 32.3366 188.974 32.7061 188.825 33.1098C188.677 33.5136 188.612 33.9432 188.635 34.3728C188.625 34.813 188.704 35.2507 188.867 35.6596C189.03 36.0686 189.274 36.4405 189.585 36.753C189.895 37.0656 190.265 37.3124 190.672 37.4788C191.08 37.6451 191.517 37.7276 191.957 37.7212C192.509 37.7243 193.053 37.5903 193.54 37.3312C194.027 37.0722 194.442 36.6963 194.748 36.2372L193.611 35.4765C193.44 35.762 193.198 35.9979 192.908 36.161C192.618 36.3241 192.29 36.4088 191.957 36.4067C191.616 36.4197 191.279 36.3299 190.99 36.149C190.7 35.968 190.472 35.7042 190.334 35.3918L194.811 33.5408L194.658 33.1553ZM190.093 34.2715C190.077 34.0279 190.11 33.7836 190.19 33.553C190.27 33.3223 190.395 33.1099 190.558 32.9282C190.721 32.7464 190.919 32.5989 191.139 32.4944C191.36 32.3898 191.599 32.3303 191.843 32.3192C192.096 32.3029 192.349 32.3614 192.57 32.4877C192.79 32.6139 192.969 32.8023 193.083 33.0292L190.093 34.2715ZM186.453 37.5176H187.931V27.6769H186.455L186.453 37.5176ZM184.046 31.7725H183.995C183.772 31.5296 183.499 31.3371 183.195 31.2081C182.891 31.0791 182.563 31.0164 182.232 31.0243C181.367 31.0583 180.549 31.4259 179.949 32.05C179.349 32.6742 179.013 33.5064 179.013 34.3723C179.013 35.2381 179.349 36.0703 179.949 36.6945C180.549 37.3186 181.367 37.6862 182.232 37.7202C182.564 37.729 182.893 37.6655 183.198 37.5342C183.502 37.4028 183.774 37.2067 183.995 36.9596H184.046V37.4412C184.046 38.7216 183.362 39.4048 182.258 39.4048C181.89 39.396 181.533 39.2778 181.233 39.0652C180.932 38.8526 180.702 38.5552 180.572 38.2111L179.29 38.7444C179.532 39.3321 179.943 39.8344 180.472 40.1868C181.001 40.5392 181.623 40.7257 182.258 40.7225C183.983 40.7225 185.441 39.7076 185.441 37.2345V31.2269H184.046V31.7725ZM182.359 36.4015C181.85 36.36 181.374 36.1282 181.028 35.7522C180.681 35.3762 180.489 34.8836 180.489 34.3723C180.489 33.8609 180.681 33.3683 181.028 32.9923C181.374 32.6163 181.85 32.3845 182.359 32.343C182.854 32.4052 183.308 32.6457 183.638 33.0194C183.967 33.393 184.149 33.8741 184.149 34.3723C184.149 34.8704 183.967 35.3515 183.638 35.7251C183.308 36.0988 182.854 36.3393 182.359 36.4015ZM201.551 27.6769H198.032V37.5176H199.501V33.7889H201.552C201.968 33.8131 202.385 33.752 202.777 33.6094C203.169 33.4667 203.528 33.2456 203.831 32.9594C204.134 32.6732 204.376 32.3281 204.541 31.9453C204.706 31.5624 204.791 31.1498 204.791 30.7329C204.791 30.3159 204.706 29.9033 204.541 29.5204C204.376 29.1376 204.134 28.7925 203.831 28.5063C203.528 28.2202 203.169 27.999 202.777 27.8564C202.385 27.7137 201.968 27.6526 201.552 27.6769M201.59 32.4195H199.501V29.0462H201.59C202.038 29.0462 202.467 29.2239 202.783 29.5402C203.099 29.8565 203.277 30.2855 203.277 30.7329C203.277 31.1802 203.099 31.6092 202.783 31.9255C202.467 32.2418 202.038 32.4195 201.59 32.4195ZM210.668 31.0057C210.131 30.9745 209.598 31.1004 209.132 31.3681C208.667 31.6357 208.289 32.0335 208.047 32.5125L209.351 33.0572C209.48 32.8188 209.676 32.6233 209.915 32.4948C210.153 32.3663 210.424 32.3103 210.694 32.3337C211.067 32.2971 211.439 32.4098 211.729 32.6472C212.018 32.8845 212.202 33.2271 212.239 33.5997V33.7031C211.768 33.4528 211.242 33.3225 210.708 33.3238C209.302 33.3238 207.872 34.0958 207.872 35.5396C207.886 35.8437 207.96 36.142 208.091 36.4168C208.222 36.6916 208.407 36.9372 208.635 37.1392C208.863 37.3411 209.129 37.4952 209.418 37.5924C209.706 37.6895 210.011 37.7277 210.315 37.7047C210.685 37.7265 211.054 37.6487 211.383 37.4794C211.713 37.3102 211.991 37.0558 212.189 36.7425H212.239V37.5021H213.657V33.7279C213.663 33.3459 213.587 32.967 213.435 32.6165C213.283 32.2659 213.059 31.9516 212.776 31.6942C212.494 31.4369 212.16 31.2425 211.797 31.1238C211.434 31.0051 211.049 30.9648 210.67 31.0057M210.493 36.3994C210.012 36.3994 209.341 36.1586 209.341 35.5644C209.341 34.8048 210.176 34.5133 210.897 34.5133C211.366 34.5003 211.83 34.6138 212.24 34.842C212.187 35.2688 211.98 35.6618 211.659 35.9481C211.338 36.2345 210.924 36.3948 210.494 36.3994M218.824 31.2217L217.14 35.4879H217.09L215.342 31.2217H213.76L216.38 37.1849L214.886 40.5013H216.418L220.457 31.2217H218.824ZM205.595 37.5176H207.064V27.6769H205.595V37.5176Z" fill="white"/>
<path d="M129.628 19.8429C129.37 20.1512 129.24 20.5465 129.264 20.9477V38.3412C129.24 38.7424 129.37 39.1377 129.628 39.446L129.686 39.5028L139.43 29.7592V29.5349L129.686 19.7913L129.628 19.8429Z" fill="#40BFF2"/>
</g>
<mask id="mask1_199_23920" style="mask-type:luminance" maskUnits="userSpaceOnUse" x="139" y="26" width="9" height="8">
<path d="M139.432 29.5299V29.7604L142.68 33.0096L142.753 32.9672L146.602 30.7804C146.843 30.7033 147.053 30.5516 147.202 30.3473C147.352 30.1429 147.432 29.8965 147.432 29.6436C147.432 29.3906 147.352 29.1442 147.202 28.9399C147.053 28.7355 146.843 28.5839 146.602 28.5067L142.755 26.3199L142.68 26.2786L139.432 29.5299Z" fill="white"/>
</mask>
<g mask="url(#mask1_199_23920)">
<path d="M147.701 26.2815H139.431V33.0094H147.701V26.2815Z" fill="url(#paint0_linear_199_23920)"/>
</g>
<mask id="mask2_199_23920" style="mask-type:luminance" maskUnits="userSpaceOnUse" x="129" y="29" width="14" height="11">
<path d="M129.629 39.4511C129.853 39.6489 130.139 39.762 130.438 39.7708C130.737 39.7797 131.029 39.6838 131.264 39.4997L142.754 32.9671L139.432 29.6455L129.629 39.4511Z" fill="white"/>
</mask>
<g mask="url(#mask2_199_23920)">
<path d="M136.191 23.0836L124.513 34.7622L136.191 46.4408L147.87 34.7622L136.191 23.0836Z" fill="url(#paint1_linear_199_23920)"/>
</g>
<mask id="mask3_199_23920" style="mask-type:luminance" maskUnits="userSpaceOnUse" x="129" y="19" width="14" height="11">
<path d="M129.629 19.843L139.431 29.6456L142.754 26.324L131.264 19.7944C130.998 19.6316 130.695 19.5405 130.383 19.5299C130.243 19.5263 130.103 19.552 129.973 19.6054C129.844 19.6587 129.726 19.7386 129.629 19.8399" fill="white"/>
</mask>
<g mask="url(#mask3_199_23920)">
<path d="M136.192 12.9683L124.573 24.5876L136.192 36.207L147.811 24.5876L136.192 12.9683Z" fill="url(#paint2_linear_199_23920)"/>
</g>
<mask id="mask4_199_23920" style="mask-type:luminance" maskUnits="userSpaceOnUse" x="121" y="13" width="107" height="33">
<path d="M227.825 13.8809H121.323V45.2283H227.825V13.8809Z" fill="white"/>
</mask>
<g mask="url(#mask4_199_23920)">
<path d="M157.502 20.3991C157.195 20.1252 156.798 19.9733 156.387 19.9723C155.926 19.988 155.489 20.1822 155.169 20.5138C154.848 20.8454 154.669 21.2886 154.669 21.7499C154.669 22.2111 154.848 22.6543 155.169 22.9859C155.489 23.3176 155.926 23.5117 156.387 23.5274C156.567 23.546 156.749 23.5281 156.922 23.4748C157.094 23.4214 157.255 23.3337 157.393 23.217C157.531 23.1002 157.644 22.9567 157.725 22.7952C157.807 22.6337 157.854 22.4574 157.866 22.2769H156.547V21.7292H158.577C158.577 23.3559 157.71 24.1217 156.386 24.1217C155.756 24.1217 155.151 23.8713 154.705 23.4255C154.259 22.9797 154.009 22.3751 154.009 21.7447C154.009 21.1143 154.259 20.5097 154.705 20.0639C155.151 19.6181 155.756 19.3677 156.386 19.3677C156.967 19.3658 157.526 19.5845 157.952 19.9795L157.502 20.3991Z" fill="white"/>
<path d="M162.174 19.4255V20.0095H160.057V21.4884H161.906V22.0733H160.057V23.4716H162.241V24.0555H159.433V19.4255H162.174Z" fill="white"/>
<path d="M166.228 19.4256V20.0157H164.823V24.0566H164.192V20.0157H162.787V19.4246L166.228 19.4256Z" fill="white"/>
<path d="M169.226 19.4255H168.601V24.0566H169.226V19.4255Z" fill="white"/>
<path d="M173.488 19.4256V20.0157H172.084V24.0566H171.452V20.0157H170.047V19.4246L173.488 19.4256Z" fill="white"/>
<path d="M177.897 19.3707C178.368 19.3631 178.832 19.496 179.228 19.7525C179.624 20.0091 179.934 20.3776 180.12 20.8112C180.306 21.2448 180.358 21.7239 180.271 22.1875C180.184 22.6511 179.96 23.0782 179.629 23.4145C179.299 23.7507 178.875 23.9809 178.413 24.0758C177.951 24.1707 177.471 24.1259 177.034 23.9472C176.598 23.7684 176.224 23.4638 175.961 23.0721C175.699 22.6805 175.558 22.2194 175.558 21.7477C175.554 21.4377 175.612 21.1301 175.728 20.8425C175.844 20.555 176.015 20.2932 176.232 20.0722C176.45 19.8512 176.709 19.6755 176.995 19.5551C177.28 19.4347 177.587 19.372 177.897 19.3707ZM177.897 23.518C178.25 23.5295 178.598 23.4354 178.897 23.2478C179.196 23.0601 179.432 22.7874 179.574 22.4646C179.717 22.1419 179.761 21.7838 179.698 21.4364C179.636 21.0889 179.472 20.7679 179.226 20.5145C178.981 20.2611 178.665 20.0869 178.32 20.0142C177.974 19.9415 177.615 19.9736 177.288 20.1065C176.961 20.2393 176.681 20.4668 176.484 20.7598C176.287 21.0527 176.183 21.3978 176.183 21.7508C176.178 21.9798 176.218 22.2077 176.301 22.4211C176.385 22.6345 176.51 22.8291 176.67 22.9936C176.829 23.1581 177.02 23.2892 177.23 23.3792C177.441 23.4692 177.668 23.5164 177.897 23.518Z" fill="white"/>
<path d="M183.947 24.0566L181.836 20.5686V24.0566H181.216V19.4255H181.836L183.926 22.8867V19.4255H184.551V24.0566H183.947Z" fill="white"/>
</g>
<mask id="mask5_199_23920" style="mask-type:luminance" maskUnits="userSpaceOnUse" x="238" y="13" width="108" height="33">
<path d="M345.009 13.8809H238.506V45.2294H345.009V13.8809Z" fill="white"/>
</mask>
<g mask="url(#mask5_199_23920)">
<path d="M341.001 44.8335H242.511C242.036 44.8335 241.565 44.74 241.126 44.5582C240.688 44.3764 240.289 44.11 239.953 43.7741C239.617 43.4382 239.351 43.0394 239.169 42.6006C238.987 42.1617 238.894 41.6914 238.894 41.2163V17.8856C238.895 16.9275 239.277 16.0093 239.956 15.3325C240.634 14.6557 241.553 14.2756 242.511 14.2756H341.001C341.961 14.2756 342.881 14.6567 343.559 15.3351C344.237 16.0134 344.618 16.9335 344.618 17.8928V41.2205C344.618 42.1798 344.237 43.0999 343.559 43.7782C342.881 44.4566 341.961 44.8377 341.001 44.8377" fill="black"/>
<path d="M341 45.2294H242.514C241.451 45.228 240.432 44.8052 239.681 44.0536C238.93 43.3021 238.507 42.2832 238.506 41.2205V17.8887C238.507 16.8262 238.93 15.8076 239.681 15.0562C240.433 14.3049 241.451 13.8822 242.514 13.8809H341.004C342.067 13.8822 343.086 14.3049 343.837 15.0562C344.588 15.8076 345.011 16.8262 345.012 17.8887V41.2205C345.011 42.283 344.588 43.3016 343.837 44.0529C343.086 44.8043 342.067 45.227 341.004 45.2283M242.514 14.6715C241.661 14.6726 240.843 15.0119 240.24 15.615C239.637 16.2181 239.298 17.0358 239.297 17.8887V41.2205C239.298 42.0734 239.637 42.8911 240.24 43.4942C240.843 44.0973 241.661 44.4366 242.514 44.4377H341.004C341.857 44.4366 342.675 44.0973 343.278 43.4942C343.881 42.8911 344.221 42.0734 344.222 41.2205V17.8887C344.221 17.035 343.881 16.2167 343.277 15.6135C342.673 15.0103 341.854 14.6715 341 14.6715H242.514Z" fill="#96999C"/>
<path d="M273.964 22.7955L273.52 24.2538H272.55L274.203 19.105H275.402L277.075 24.2538H276.068L275.602 22.7945L273.964 22.7955ZM275.438 22.0845L275.032 20.8164C274.929 20.5064 274.849 20.1519 274.773 19.8543H274.76C274.685 20.1519 274.607 20.5115 274.517 20.8164L274.119 22.0845H275.438Z" fill="white"/>
<path d="M278.477 20.5344L279.081 22.4216C279.184 22.7502 279.263 23.0478 279.333 23.3517H279.355C279.425 23.0416 279.508 22.7554 279.608 22.4216L280.203 20.5344H281.187L279.766 24.2549H278.841L277.458 20.5344H278.477Z" fill="white"/>
<path d="M284.938 23.3609C284.932 23.6601 284.952 23.9593 284.999 24.2549H284.151L284.083 23.8415H284.06C283.927 24.0033 283.758 24.1322 283.567 24.2182C283.377 24.3043 283.168 24.3451 282.959 24.3376C282.808 24.3465 282.658 24.3244 282.516 24.2726C282.374 24.2209 282.244 24.1407 282.135 24.0368C282.025 23.933 281.938 23.8078 281.879 23.6689C281.82 23.5301 281.789 23.3806 281.79 23.2297C281.79 22.2995 282.623 21.8159 283.998 21.8241V21.7632C283.998 21.5182 283.894 21.1141 283.241 21.1141C282.889 21.1147 282.544 21.2097 282.241 21.389L282.057 20.7783C282.468 20.5534 282.932 20.4401 283.4 20.4496C283.611 20.426 283.824 20.4507 284.024 20.522C284.224 20.5932 284.405 20.7091 284.553 20.8608C284.701 21.0125 284.812 21.196 284.879 21.3973C284.945 21.5987 284.965 21.8125 284.936 22.0226L284.938 23.3609ZM284.022 22.436C283.357 22.4277 282.722 22.5662 282.722 23.1315C282.716 23.2033 282.726 23.2757 282.75 23.3435C282.775 23.4113 282.814 23.4728 282.865 23.5237C282.916 23.5747 282.978 23.6138 283.046 23.6384C283.114 23.6629 283.186 23.6723 283.258 23.6658C283.42 23.6686 283.579 23.6201 283.712 23.5273C283.845 23.4346 283.945 23.3022 283.999 23.1491C284.018 23.0819 284.026 23.012 284.022 22.9424V22.436Z" fill="white"/>
<path d="M286.732 19.999C286.591 19.9979 286.457 19.9411 286.358 19.841C286.259 19.7408 286.204 19.6055 286.204 19.4647C286.205 19.3239 286.261 19.1891 286.361 19.0897C286.46 18.9904 286.596 18.9346 286.736 18.9346C286.877 18.9346 287.012 18.9904 287.112 19.0897C287.212 19.1891 287.268 19.3239 287.269 19.4647C287.269 19.6055 287.214 19.7408 287.115 19.841C287.016 19.9411 286.881 19.9979 286.74 19.999H286.732ZM286.266 20.5344H287.206V24.2549H286.266V20.5344Z" fill="white"/>
<path d="M289.498 18.823H288.559V24.255H289.498V18.823Z" fill="white"/>
<path d="M293.745 23.361C293.739 23.6602 293.76 23.9594 293.806 24.255H292.959L292.89 23.8416H292.867C292.734 24.0034 292.566 24.1324 292.375 24.2184C292.184 24.3045 291.976 24.3453 291.766 24.3377C291.616 24.3464 291.465 24.3242 291.323 24.2724C291.181 24.2207 291.052 24.1404 290.942 24.0366C290.833 23.9328 290.746 23.8076 290.686 23.6689C290.627 23.5301 290.597 23.3807 290.597 23.2298C290.597 22.2996 291.43 21.816 292.805 21.8242V21.7633C292.805 21.5183 292.702 21.1142 292.048 21.1142C291.696 21.1148 291.351 21.2098 291.048 21.3892L290.865 20.7784C291.276 20.5532 291.74 20.4399 292.209 20.4497C292.419 20.4263 292.632 20.4512 292.832 20.5225C293.032 20.5938 293.212 20.7097 293.36 20.8614C293.508 21.013 293.62 21.1964 293.687 21.3977C293.753 21.5989 293.773 21.8127 293.744 22.0227L293.745 23.361ZM292.829 22.4361C292.164 22.4278 291.531 22.5663 291.531 23.1316C291.524 23.2033 291.534 23.2756 291.558 23.3433C291.583 23.411 291.622 23.4725 291.673 23.5234C291.724 23.5744 291.786 23.6135 291.853 23.6381C291.921 23.6627 291.993 23.6722 292.065 23.6659C292.227 23.6688 292.386 23.6204 292.519 23.5276C292.652 23.4348 292.753 23.3024 292.806 23.1492C292.825 23.082 292.833 23.0122 292.829 22.9425V22.4361Z" fill="white"/>
<path d="M295.073 18.825H296.012V21.048H296.027C296.157 20.8536 296.336 20.6964 296.545 20.592C296.754 20.4876 296.987 20.4396 297.22 20.4527C298.129 20.4527 298.778 21.2092 298.77 22.3398C298.801 22.5839 298.78 22.8316 298.71 23.0674C298.641 23.3032 298.523 23.5219 298.364 23.7099C298.205 23.8978 298.009 24.0509 297.789 24.1594C297.568 24.268 297.327 24.3297 297.082 24.3406C296.845 24.3526 296.611 24.2989 296.403 24.1857C296.195 24.0724 296.023 23.9039 295.905 23.6988H295.89L295.843 24.2569H295.042C295.057 24.0047 295.071 23.5924 295.071 23.2183L295.073 18.825ZM296.012 22.7212C296.012 22.7958 296.019 22.8703 296.035 22.9434C296.08 23.1304 296.186 23.2969 296.338 23.416C296.489 23.5352 296.675 23.6002 296.868 23.6007C297.456 23.6007 297.815 23.1346 297.815 22.3791C297.815 21.7218 297.505 21.1875 296.876 21.1875C296.68 21.1922 296.492 21.2625 296.341 21.3871C296.19 21.5118 296.085 21.6835 296.043 21.8747C296.024 21.9548 296.014 22.0365 296.013 22.1186L296.012 22.7212Z" fill="white"/>
<path d="M300.817 18.823H299.877V24.255H300.817V18.823Z" fill="white"/>
<path d="M302.841 22.6583C302.847 22.7991 302.882 22.9372 302.944 23.0637C303.006 23.1902 303.093 23.3024 303.201 23.393C303.309 23.4836 303.435 23.5507 303.57 23.5898C303.706 23.629 303.848 23.6394 303.987 23.6204C304.339 23.6253 304.689 23.5683 305.021 23.452L305.159 24.0938C304.746 24.2581 304.305 24.3386 303.86 24.3304C303.606 24.3544 303.349 24.3226 303.108 24.2372C302.867 24.1518 302.648 24.0149 302.466 23.836C302.283 23.6572 302.142 23.4406 302.051 23.2015C301.961 22.9624 301.924 22.7064 301.943 22.4516C301.921 22.1985 301.952 21.9437 302.033 21.703C302.114 21.4624 302.244 21.2411 302.415 21.0531C302.586 20.8652 302.794 20.7145 303.026 20.6107C303.257 20.5068 303.508 20.452 303.762 20.4497C303.991 20.4501 304.216 20.4989 304.425 20.5929C304.633 20.6869 304.819 20.8239 304.971 20.995C305.122 21.166 305.236 21.3672 305.304 21.5853C305.372 21.8034 305.393 22.0335 305.366 22.2604C305.367 22.3936 305.357 22.5268 305.335 22.6583H302.841ZM304.476 22.001C304.492 21.8895 304.483 21.7761 304.452 21.6681C304.42 21.56 304.366 21.4599 304.293 21.3742C304.22 21.2884 304.13 21.219 304.029 21.1705C303.927 21.122 303.817 21.0954 303.704 21.0925C303.472 21.1066 303.254 21.2082 303.094 21.3768C302.934 21.5454 302.843 21.7684 302.841 22.001H304.476Z" fill="white"/>
<path d="M309.997 24.3398C309.745 24.3488 309.495 24.305 309.261 24.2111C309.027 24.1172 308.816 23.9753 308.641 23.7946C308.465 23.614 308.33 23.3985 308.243 23.1621C308.156 22.9258 308.12 22.6739 308.137 22.4227C308.117 22.1628 308.154 21.9018 308.243 21.6571C308.332 21.4123 308.473 21.1893 308.655 21.0029C308.837 20.8165 309.056 20.671 309.299 20.576C309.542 20.481 309.802 20.4386 310.062 20.4518C310.313 20.4422 310.562 20.4855 310.795 20.5789C311.028 20.6723 311.238 20.8137 311.413 20.9939C311.587 21.1741 311.722 21.389 311.808 21.6247C311.893 21.8604 311.929 22.1115 311.911 22.3617C311.93 22.6201 311.895 22.8796 311.807 23.1235C311.72 23.3673 311.582 23.5899 311.402 23.7767C311.223 23.9635 311.006 24.1103 310.765 24.2075C310.525 24.3047 310.267 24.3501 310.008 24.3408L309.997 24.3398ZM310.027 23.6597C310.561 23.6597 310.935 23.143 310.935 22.3844C310.935 21.8036 310.676 21.1308 310.034 21.1308C309.369 21.1308 309.104 21.7798 309.104 22.3989C309.104 23.1172 309.464 23.6587 310.021 23.6587L310.027 23.6597Z" fill="white"/>
<path d="M313.014 21.6422C313.014 21.2143 312.998 20.8557 312.983 20.5343H313.8L313.847 21.0924H313.869C313.995 20.8911 314.172 20.726 314.381 20.6135C314.59 20.5009 314.825 20.4448 315.062 20.4506C315.711 20.4506 316.384 20.8702 316.384 22.0473V24.2507H315.444V22.1538C315.444 21.6184 315.246 21.2143 314.733 21.2143C314.569 21.2181 314.41 21.2732 314.279 21.3717C314.147 21.4703 314.05 21.6075 314.001 21.7642C313.968 21.8599 313.952 21.9606 313.954 22.0618V24.2507H313.015L313.014 21.6422Z" fill="white"/>
<path d="M320.712 19.5793V20.5343H321.606V21.237H320.712V22.872C320.712 23.3309 320.834 23.5593 321.193 23.5593C321.316 23.565 321.44 23.5522 321.559 23.521L321.575 24.231C321.356 24.3035 321.126 24.3384 320.895 24.3344C320.746 24.3416 320.597 24.3178 320.458 24.2644C320.318 24.2111 320.192 24.1293 320.086 24.0243C319.856 23.7265 319.749 23.3517 319.788 22.9774V21.237H319.256V20.5343H319.783V19.8398L320.712 19.5793Z" fill="white"/>
<path d="M322.652 18.825H323.591V21.0407H323.607C323.724 20.8632 323.884 20.7188 324.073 20.6211C324.271 20.5102 324.495 20.4522 324.722 20.4527C325.355 20.4527 326.021 20.8733 326.021 22.0649V24.2579H325.082V22.1621C325.082 21.6267 324.883 21.2144 324.358 21.2144C324.197 21.2159 324.039 21.2674 323.908 21.3618C323.777 21.4561 323.678 21.5887 323.625 21.7414C323.597 21.833 323.584 21.9287 323.587 22.0246V24.2548H322.648L322.652 18.825Z" fill="white"/>
<path d="M328.022 22.6583C328.027 22.7991 328.062 22.9372 328.124 23.0637C328.186 23.1902 328.274 23.3024 328.382 23.393C328.49 23.4836 328.616 23.5507 328.751 23.5898C328.886 23.629 329.028 23.6394 329.168 23.6204C329.52 23.6253 329.87 23.5683 330.202 23.452L330.34 24.0938C329.927 24.2582 329.485 24.3387 329.041 24.3304C328.786 24.3546 328.53 24.3229 328.289 24.2376C328.048 24.1523 327.828 24.0154 327.646 23.8365C327.463 23.6576 327.322 23.441 327.231 23.2018C327.141 22.9625 327.104 22.7065 327.123 22.4516C327.101 22.1985 327.132 21.9437 327.213 21.703C327.294 21.4624 327.424 21.2411 327.595 21.0531C327.766 20.8652 327.973 20.7145 328.205 20.6107C328.437 20.5068 328.688 20.452 328.942 20.4497C329.17 20.45 329.396 20.4987 329.605 20.5926C329.813 20.6865 329.999 20.8235 330.151 20.9946C330.302 21.1657 330.416 21.367 330.484 21.5851C330.552 21.8033 330.573 22.0334 330.546 22.2604C330.547 22.3936 330.537 22.5267 330.516 22.6583H328.022ZM329.657 22.001C329.672 21.8896 329.664 21.7762 329.632 21.6683C329.601 21.5604 329.547 21.4603 329.474 21.3746C329.402 21.2888 329.312 21.2194 329.21 21.1708C329.109 21.1222 328.998 21.0956 328.886 21.0925C328.654 21.1066 328.436 21.2082 328.276 21.3768C328.115 21.5454 328.025 21.7684 328.023 22.001H329.657Z" fill="white"/>
<path d="M262.275 29.2538C262.285 28.4806 262.49 27.7226 262.872 27.0502C263.254 26.3778 263.8 25.8129 264.459 25.4082C264.04 24.8104 263.488 24.3183 262.846 23.9712C262.204 23.624 261.49 23.4313 260.761 23.4085C259.211 23.2452 257.697 24.3386 256.906 24.3386C256.098 24.3386 254.875 23.4229 253.563 23.4498C252.712 23.4774 251.884 23.7248 251.158 24.1678C250.431 24.6108 249.832 25.2343 249.419 25.9777C247.628 29.0781 248.964 33.6378 250.679 36.1471C251.539 37.3749 252.54 38.7463 253.855 38.6967C255.14 38.643 255.619 37.8782 257.171 37.8782C258.722 37.8782 259.159 38.6967 260.498 38.6657C261.877 38.643 262.745 37.4328 263.573 36.1926C264.191 35.3183 264.666 34.3513 264.98 33.3278C264.179 32.9893 263.495 32.4224 263.014 31.698C262.533 30.9735 262.276 30.1234 262.275 29.2538Z" fill="white"/>
<path d="M259.743 21.755C260.496 20.8533 260.867 19.6927 260.776 18.5212C259.628 18.6421 258.568 19.1912 257.806 20.0591C257.433 20.4829 257.148 20.9761 256.966 21.5104C256.784 22.0447 256.709 22.6097 256.746 23.1729C257.32 23.1787 257.888 23.0541 258.407 22.8085C258.927 22.5629 259.383 22.2027 259.743 21.755Z" fill="white"/>
<path d="M280.845 38.4921H279.056L278.071 35.4082H274.66L273.73 38.4921H271.989L275.367 28.0002H277.451L280.845 38.4921ZM277.779 34.1164L276.893 31.3766C276.798 31.101 276.621 30.4424 276.363 29.4006H276.332C276.228 29.8478 276.062 30.5064 275.833 31.3766L274.962 34.1164H277.779Z" fill="white"/>
<path d="M289.531 34.6134C289.592 35.7273 289.218 36.8212 288.487 37.6642C288.194 37.9862 287.836 38.2417 287.436 38.4135C287.036 38.5854 286.604 38.6696 286.169 38.6605C285.747 38.6939 285.323 38.6112 284.945 38.4212C284.566 38.2312 284.246 37.9412 284.021 37.5826H283.991V41.5677H282.308V33.4146C282.308 32.6057 282.287 31.7758 282.246 30.9249H283.72L283.814 32.1238H283.845C284.099 31.7336 284.442 31.4084 284.844 31.1741C285.247 30.9397 285.699 30.8027 286.164 30.774C286.629 30.7453 287.094 30.8256 287.522 31.0087C287.951 31.1917 288.33 31.4723 288.631 31.8282C289.257 32.6195 289.575 33.6108 289.526 34.6186M287.813 34.6806C287.84 34.0364 287.665 33.3999 287.315 32.8586C287.153 32.6222 286.934 32.4301 286.679 32.2996C286.423 32.1692 286.14 32.1044 285.853 32.1113C285.44 32.1109 285.04 32.2575 284.724 32.5247C284.387 32.8 284.153 33.182 284.062 33.6078C284.016 33.7764 283.99 33.9499 283.984 34.1246V35.3864C283.97 35.8976 284.15 36.3951 284.489 36.7785C284.653 36.9645 284.856 37.1119 285.083 37.21C285.311 37.3081 285.558 37.3545 285.805 37.3459C286.093 37.3581 286.38 37.2976 286.638 37.1699C286.896 37.0422 287.118 36.8514 287.283 36.6152C287.661 36.0447 287.847 35.3683 287.813 34.6847" fill="white"/>
<path d="M298.23 34.6134C298.291 35.7273 297.917 36.8214 297.186 37.6643C296.893 37.9864 296.534 38.242 296.134 38.4139C295.734 38.5857 295.302 38.6698 294.867 38.6605C294.445 38.6943 294.022 38.612 293.644 38.4228C293.266 38.2335 292.946 37.9444 292.72 37.5868H292.689V41.5718H291.009V33.4146C291.009 32.6057 290.988 31.7759 290.947 30.925H292.425L292.519 32.1238H292.551C292.805 31.7339 293.148 31.4088 293.55 31.1746C293.953 30.9404 294.404 30.8034 294.869 30.7747C295.334 30.746 295.799 30.8263 296.227 31.0092C296.655 31.1921 297.035 31.4726 297.336 31.8282C297.961 32.6196 298.279 33.611 298.23 34.6186M296.518 34.6806C296.544 34.0363 296.37 33.3996 296.019 32.8586C295.857 32.6221 295.638 32.4299 295.383 32.2994C295.127 32.1689 294.843 32.1043 294.557 32.1114C294.143 32.1113 293.744 32.2578 293.428 32.5248C293.091 32.8004 292.859 33.1823 292.768 33.6079C292.72 33.7762 292.694 33.9498 292.689 34.1246V35.3865C292.675 35.8979 292.855 36.3956 293.195 36.7786C293.358 36.9647 293.561 37.1122 293.789 37.2103C294.017 37.3085 294.263 37.3548 294.511 37.346C294.799 37.3579 295.085 37.2972 295.344 37.1695C295.602 37.0418 295.824 36.8512 295.989 36.6153C296.366 36.0442 296.552 35.3682 296.519 34.6848" fill="white"/>
<path d="M307.962 35.5478C307.977 35.9571 307.901 36.3645 307.74 36.7412C307.579 37.1179 307.337 37.4546 307.032 37.7274C306.229 38.3808 305.209 38.7083 304.175 38.6451C303.225 38.6899 302.282 38.4633 301.455 37.9919L301.845 36.5916C302.577 37.036 303.419 37.2675 304.276 37.2602C304.803 37.2922 305.326 37.1415 305.756 36.8334C305.927 36.6968 306.064 36.5219 306.156 36.3226C306.248 36.1234 306.292 35.9054 306.284 35.6863C306.288 35.4868 306.252 35.2884 306.177 35.1034C306.102 34.9184 305.991 34.7507 305.849 34.6104C305.427 34.2433 304.935 33.9671 304.402 33.7991C302.565 33.1101 301.647 32.1073 301.649 30.7907C301.638 30.3874 301.719 29.9869 301.886 29.6197C302.053 29.2524 302.302 28.928 302.613 28.671C303.339 28.0913 304.253 27.7973 305.181 27.8442C306.002 27.8165 306.818 27.9878 307.558 28.3434L307.138 29.7127C306.52 29.3851 305.829 29.2194 305.129 29.2311C304.63 29.2004 304.137 29.3554 303.746 29.6662C303.612 29.7852 303.505 29.9316 303.432 30.0955C303.36 30.2593 303.324 30.4369 303.326 30.616C303.322 30.8127 303.363 31.0078 303.447 31.1859C303.53 31.3641 303.654 31.5206 303.808 31.6433C304.27 31.993 304.785 32.2665 305.333 32.4535C306.087 32.7186 306.769 33.1544 307.327 33.7268C307.759 34.2335 307.986 34.8831 307.965 35.5488" fill="white"/>
<path d="M313.519 32.1849H311.667V35.8589C311.667 36.7932 311.994 37.26 312.649 37.2593C312.9 37.2646 313.15 37.2389 313.395 37.1828L313.442 38.4592C313.02 38.5974 312.578 38.6603 312.135 38.6452C311.848 38.6614 311.56 38.6158 311.291 38.5113C311.023 38.4068 310.78 38.246 310.579 38.0396C310.149 37.451 309.949 36.7252 310.018 35.9995V32.1859H308.913V30.9261H310.018V29.5392L311.671 29.04V30.9261H313.523L313.519 32.1849Z" fill="white"/>
<path d="M321.878 34.6455C321.919 35.692 321.563 36.7153 320.882 37.5103C320.532 37.8926 320.102 38.1936 319.624 38.3925C319.145 38.5914 318.629 38.6832 318.111 38.6616C317.614 38.6838 317.119 38.5963 316.661 38.4053C316.202 38.2144 315.791 37.9247 315.457 37.5568C314.785 36.7878 314.432 35.792 314.468 34.7716C314.424 33.7165 314.789 32.6853 315.487 31.8924C315.835 31.5167 316.262 31.2216 316.736 31.0278C317.211 30.8339 317.722 30.7459 318.234 30.77C318.734 30.7497 319.232 30.8381 319.694 31.029C320.156 31.2199 320.572 31.5088 320.912 31.8758C321.574 32.6431 321.919 33.6339 321.877 34.6466M320.132 34.7013C320.151 34.0727 319.994 33.4514 319.681 32.9062C319.54 32.6288 319.323 32.3966 319.056 32.2364C318.79 32.0761 318.483 31.9941 318.172 31.9998C317.856 31.991 317.544 32.0713 317.271 32.2316C316.999 32.3919 316.777 32.6257 316.631 32.9062C316.316 33.4623 316.16 34.0946 316.181 34.7334C316.163 35.3615 316.318 35.9824 316.631 36.5275C316.777 36.8048 316.997 37.0362 317.267 37.196C317.536 37.3559 317.845 37.4378 318.158 37.4328C318.471 37.435 318.777 37.3499 319.043 37.1872C319.31 37.0245 319.526 36.7907 319.666 36.512C319.988 35.9638 320.149 35.3366 320.133 34.7013" fill="white"/>
<path d="M327.34 32.4028C327.165 32.3717 326.989 32.3561 326.812 32.3563C326.545 32.3444 326.28 32.3994 326.041 32.5164C325.801 32.6334 325.595 32.8086 325.44 33.026C325.147 33.4674 325 33.9899 325.021 34.5194V38.489H323.341L323.356 33.3071C323.356 32.4349 323.335 31.6408 323.294 30.9249H324.757L324.819 32.3718H324.865C325.024 31.8996 325.316 31.4833 325.706 31.173C326.057 30.9106 326.483 30.7685 326.921 30.7679C327.062 30.7672 327.202 30.7772 327.341 30.7978L327.34 32.4028Z" fill="white"/>
<path d="M334.858 34.3488C334.862 34.6044 334.842 34.8597 334.797 35.1115H329.751C329.74 35.4332 329.8 35.7534 329.926 36.0495C330.052 36.3456 330.242 36.6103 330.482 36.825C330.952 37.1928 331.539 37.3798 332.135 37.3521C332.831 37.3608 333.522 37.2395 334.173 36.9945L334.437 38.1623C333.632 38.4912 332.768 38.6506 331.898 38.6305C331.392 38.6587 330.884 38.5815 330.409 38.4036C329.933 38.2257 329.5 37.951 329.136 37.597C328.793 37.2235 328.527 36.7854 328.355 36.3083C328.183 35.8312 328.107 35.3246 328.132 34.818C328.094 33.7879 328.424 32.7779 329.063 31.9687C329.377 31.5733 329.781 31.2575 330.24 31.0469C330.7 30.8363 331.202 30.7368 331.707 30.7564C332.19 30.7293 332.671 30.8265 333.106 31.0387C333.54 31.251 333.913 31.5712 334.188 31.9687C334.65 32.6751 334.883 33.5071 334.854 34.3509M333.251 33.9147C333.274 33.4613 333.161 33.0113 332.926 32.6229C332.786 32.3952 332.588 32.2098 332.351 32.0863C332.114 31.9629 331.849 31.9062 331.582 31.9222C331.32 31.918 331.061 31.9783 330.828 32.0978C330.595 32.2172 330.395 32.3923 330.245 32.6074C329.958 32.9864 329.785 33.4397 329.748 33.9137L333.251 33.9147Z" fill="white"/>
</g>
<path d="M36.8973 21.3954C36.9055 22.1176 36.7754 22.8346 36.5139 23.5079C36.2716 24.1282 35.9043 24.6921 35.4349 25.1645C34.9591 25.6359 34.3903 26.003 33.7648 26.2424C33.072 26.5056 32.3356 26.6357 31.5945 26.6259H27.6084V16.165H31.5945C32.3359 16.155 33.0725 16.2862 33.7648 16.5515C34.3899 16.7943 34.9583 17.1629 35.4349 17.6346C35.9046 18.1054 36.2716 18.6684 36.5128 19.2882C36.774 19.9597 36.9045 20.6749 36.8973 21.3954ZM34.9006 21.3954C34.9084 20.8715 34.8317 20.3498 34.6733 19.8504C34.5373 19.4227 34.313 19.0283 34.0149 18.6929C33.7259 18.3771 33.37 18.1299 32.9732 17.9694C32.5352 17.7949 32.067 17.7089 31.5956 17.7162H29.5617V25.0756H31.5945C32.0659 25.083 32.5342 24.9969 32.9722 24.8224C33.369 24.6619 33.7249 24.4148 34.0139 24.099C34.312 23.7635 34.5363 23.3692 34.6722 22.9415C34.8311 22.4418 34.9082 21.9197 34.9006 21.3954ZM41.5149 19.0877C42.0279 19.0809 42.5375 19.1717 43.0165 19.3553C43.4519 19.5235 43.8465 19.7825 44.174 20.1149C44.5042 20.4577 44.7572 20.8672 44.9161 21.3158C45.0957 21.8244 45.1839 22.3608 45.1765 22.9002C45.1843 23.4419 45.0961 23.9807 44.9161 24.4917C44.7568 24.9401 44.5054 25.3503 44.1782 25.6957C43.8522 26.032 43.4574 26.2936 43.0207 26.4626C42.5419 26.6457 42.0326 26.7362 41.52 26.7292C41.0037 26.7361 40.4907 26.6453 40.0081 26.4615C39.5695 26.2937 39.1728 26.0324 38.8454 25.6957C38.516 25.349 38.2623 24.9376 38.1003 24.4876C37.918 23.9771 37.8287 23.438 37.8367 22.896C37.8291 22.3564 37.9184 21.8198 38.1003 21.3117C38.2617 20.8648 38.5156 20.457 38.8454 20.1149C39.174 19.7818 39.5701 19.5228 40.007 19.3553C40.49 19.1715 41.0033 19.0806 41.52 19.0877H41.5149ZM41.5149 25.3598C41.7769 25.3793 42.0397 25.3327 42.2791 25.2244C42.5185 25.116 42.7269 24.9494 42.8853 24.7398C43.2174 24.1922 43.3729 23.5557 43.3307 22.9167C43.3721 22.2755 43.2167 21.6369 42.8853 21.0864C42.7284 20.8746 42.5205 20.7058 42.2809 20.5957C42.0413 20.4857 41.7778 20.438 41.5149 20.457C41.2484 20.4375 40.9814 20.4852 40.7381 20.5957C40.4949 20.7062 40.2833 20.876 40.1228 21.0895C39.7885 21.6371 39.6311 22.2744 39.6722 22.9146C39.6305 23.5536 39.7887 24.1896 40.1249 24.7346C40.2869 24.9468 40.4995 25.1151 40.7431 25.2243C40.9868 25.3335 41.2538 25.3801 41.52 25.3598H41.5149ZM57.0171 19.2034L54.6649 26.6259H53.2325C53.0685 26.6259 52.9551 26.5198 52.8924 26.3075L51.5572 22.0176C51.5138 21.8729 51.4738 21.7292 51.4373 21.5866C51.4008 21.444 51.3719 21.3007 51.3505 21.1567C51.3216 21.3014 51.2892 21.4471 51.2533 21.5939C51.2175 21.7406 51.1776 21.8867 51.1335 22.032L49.7817 26.3075C49.768 26.3984 49.7214 26.4811 49.6507 26.5398C49.58 26.5985 49.4901 26.6292 49.3983 26.6259H48.0237L45.6726 19.2034H47.0977C47.2157 19.1999 47.3319 19.2327 47.4305 19.2975C47.517 19.3533 47.581 19.4378 47.6114 19.5362L48.6748 23.5006C48.7279 23.7177 48.7747 23.9299 48.8154 24.1372C48.856 24.3446 48.8905 24.5513 48.9187 24.7573C48.9718 24.5506 49.0283 24.3439 49.0882 24.1372C49.1482 23.9305 49.2119 23.7183 49.2794 23.5006L50.5092 19.5217C50.5378 19.4256 50.5974 19.3417 50.6787 19.283C50.7688 19.2182 50.8779 19.1851 50.9888 19.1889H51.7773C51.892 19.1856 52.0048 19.2185 52.0998 19.283C52.186 19.3391 52.2499 19.4235 52.2806 19.5217L53.4743 23.5006C53.537 23.7177 53.5959 23.9312 53.651 24.1414C53.7061 24.3515 53.7602 24.5599 53.8133 24.7666C53.8795 24.3401 53.9688 23.9175 54.0809 23.5006L55.1744 19.5362C55.2082 19.4397 55.2714 19.3562 55.3552 19.2975C55.4458 19.2337 55.5545 19.2007 55.6653 19.2034H57.0171ZM59.7041 20.1149C59.8527 19.967 60.0109 19.8289 60.1774 19.7016C60.3417 19.5751 60.5187 19.466 60.7055 19.376C60.8967 19.286 61.097 19.2167 61.3029 19.1693C61.5306 19.1168 61.7637 19.0911 61.9974 19.0928C62.3672 19.0861 62.7343 19.1565 63.0753 19.2995C63.3784 19.4291 63.6472 19.6272 63.8608 19.8783C64.0778 20.14 64.2401 20.4426 64.3382 20.7681C64.4499 21.1366 64.5046 21.5199 64.5005 21.9049V26.6259H62.7188V21.9018C62.7428 21.5255 62.633 21.1529 62.4087 20.8497C62.2893 20.7198 62.142 20.6188 61.9778 20.5541C61.8136 20.4895 61.6369 20.463 61.461 20.4767C61.1592 20.4741 60.8612 20.545 60.5929 20.6834C60.3093 20.8332 60.0507 21.026 59.826 21.2549V26.6259H58.0361V19.2034H59.1285C59.2304 19.1962 59.3318 19.2247 59.415 19.2841C59.4982 19.3435 59.558 19.4301 59.5842 19.529L59.7041 20.1149ZM68.0019 15.8777V26.6259H66.2181V15.8777H68.0019ZM73.0732 19.0897C73.5858 19.0831 74.0951 19.1739 74.5738 19.3574C75.0091 19.5256 75.4037 19.7845 75.7313 20.117C76.0611 20.4599 76.3137 20.8694 76.4723 21.3179C76.652 21.8265 76.7401 22.3629 76.7327 22.9022C76.7405 23.444 76.6523 23.9828 76.4723 24.4938C76.3128 24.9415 76.0614 25.3509 75.7344 25.6957C75.4085 26.032 75.0136 26.2936 74.5769 26.4626C74.0981 26.6457 73.5889 26.7362 73.0763 26.7292C72.5599 26.7361 72.0469 26.6453 71.5643 26.4615C71.1261 26.2935 70.7297 26.0322 70.4027 25.6957C70.0733 25.349 69.8195 24.9376 69.6575 24.4876C69.4752 23.9771 69.386 23.438 69.394 22.896C69.3864 22.3564 69.4756 21.8198 69.6575 21.3117C69.819 20.8648 70.0729 20.457 70.4027 20.1149C70.7313 19.7818 71.1274 19.5228 71.5643 19.3553C72.0469 19.1716 72.5599 19.0808 73.0763 19.0877L73.0732 19.0897ZM73.0732 25.3619C73.3352 25.3813 73.598 25.3347 73.8374 25.2264C74.0768 25.1181 74.2852 24.9515 74.4436 24.7418C74.7757 24.1943 74.9312 23.5578 74.889 22.9188C74.9304 22.2776 74.7749 21.639 74.4436 21.0885C74.2867 20.8766 74.0788 20.7078 73.8392 20.5978C73.5996 20.4878 73.3361 20.4401 73.0732 20.4591C72.8067 20.4396 72.5397 20.4872 72.2964 20.5977C72.0532 20.7082 71.8416 20.8781 71.6811 21.0916C71.3462 21.6393 71.1885 22.277 71.2294 22.9177C71.1877 23.5567 71.3459 24.1927 71.6821 24.7377C71.8444 24.9491 72.0569 25.1168 72.3004 25.2254C72.5438 25.334 72.8105 25.3803 73.0763 25.3598L73.0732 25.3619ZM82.0221 23.4593C81.5855 23.4748 81.1505 23.5193 80.7199 23.5926C80.4283 23.6396 80.1438 23.7237 79.8735 23.8427C79.693 23.9187 79.5358 24.041 79.4177 24.1972C79.3278 24.3267 79.2798 24.4808 79.2802 24.6385C79.2682 24.7649 79.2873 24.8923 79.3359 25.0096C79.3846 25.1269 79.4613 25.2305 79.5593 25.3113C79.7723 25.4555 80.0257 25.5279 80.2827 25.518C80.6112 25.5261 80.937 25.4578 81.2346 25.3185C81.5295 25.165 81.795 24.9607 82.019 24.715L82.0221 23.4593ZM77.9305 20.2379C78.7671 19.4633 79.8714 19.0432 81.0113 19.066C81.4099 19.0595 81.8058 19.1322 82.176 19.2799C82.5048 19.4128 82.8009 19.6151 83.0442 19.8731C83.2852 20.1345 83.4686 20.4437 83.5826 20.7805C83.7091 21.1531 83.7717 21.5445 83.7676 21.938V26.6259H82.9574C82.8229 26.6332 82.6887 26.6073 82.5667 26.5504C82.4585 26.4775 82.3811 26.367 82.3497 26.2404L82.1905 25.705C82.0155 25.8634 81.832 26.0121 81.6407 26.1505C81.4662 26.2758 81.2796 26.3835 81.0837 26.4719C80.8848 26.5607 80.6769 26.6276 80.4636 26.6713C80.2254 26.719 79.983 26.7422 79.7401 26.7406C79.4459 26.7433 79.1531 26.7004 78.872 26.6135C78.619 26.5357 78.385 26.4062 78.1848 26.2331C77.989 26.0604 77.8356 25.8451 77.7362 25.6037C77.625 25.3256 77.5709 25.0279 77.5771 24.7284C77.5775 24.5374 77.6092 24.3479 77.6711 24.1672C77.74 23.9722 77.8452 23.7919 77.9812 23.636C78.1417 23.4512 78.3279 23.2904 78.5341 23.1585C78.7948 22.993 79.0758 22.8617 79.3702 22.7679C79.7469 22.6458 80.133 22.5549 80.5246 22.4961C81.0228 22.4212 81.5255 22.3791 82.0293 22.37V21.9359C82.0584 21.5431 81.9438 21.153 81.7069 20.8384C81.5893 20.715 81.4461 20.619 81.2873 20.557C81.1286 20.4951 80.9581 20.4687 80.7881 20.4798C80.5428 20.4733 80.2983 20.5082 80.0647 20.5831C79.8905 20.6435 79.7223 20.7199 79.5624 20.8115L79.1676 21.0389C79.0475 21.1077 78.9112 21.1434 78.7728 21.1422C78.6589 21.1458 78.547 21.1117 78.4545 21.0451C78.3717 20.9827 78.3016 20.9052 78.2478 20.8167L77.9305 20.2379ZM90.1059 21.0988C89.9304 20.8757 89.7035 20.6984 89.4445 20.5821C89.2008 20.4779 88.9385 20.4245 88.6735 20.425C88.4218 20.4211 88.1722 20.473 87.9429 20.5769C87.7219 20.6816 87.5304 20.8396 87.3858 21.0368C87.2177 21.2716 87.0973 21.537 87.0313 21.8181C86.9437 22.1839 86.9023 22.5592 86.9083 22.9353C86.9015 23.3059 86.9361 23.6762 87.0117 24.0391C87.0655 24.3015 87.1675 24.5517 87.3124 24.777C87.4297 24.9568 87.5951 25.1001 87.7899 25.1904C87.9883 25.2771 88.2028 25.3204 88.4193 25.3175C88.7503 25.3276 89.0779 25.2476 89.367 25.086C89.6499 24.9118 89.8997 24.6889 90.1049 24.4277L90.1059 21.0988ZM91.8928 15.8777V26.6259H90.8004C90.6989 26.6352 90.5975 26.6073 90.515 26.5474C90.4325 26.4875 90.3745 26.3997 90.3519 26.3003L90.2 25.5841C89.9073 25.9189 89.5573 26.1988 89.1665 26.4109C88.7494 26.6298 88.2836 26.7393 87.8126 26.7292C87.4259 26.7357 87.0431 26.6507 86.6955 26.4812C86.3521 26.3075 86.0538 26.0563 85.8242 25.7474C85.5638 25.3901 85.3731 24.9869 85.262 24.5589C85.1225 24.0303 85.0557 23.4851 85.0636 22.9384C85.0592 22.4187 85.1348 21.9014 85.2879 21.4047C85.4237 20.9581 85.6421 20.541 85.9317 20.1749C86.2038 19.8336 86.5469 19.5557 86.9373 19.3605C87.3471 19.161 87.7982 19.0608 88.2539 19.068C88.6181 19.0584 88.9804 19.125 89.3174 19.2634C89.6091 19.3919 89.876 19.5707 90.1059 19.7915V15.8777H91.8928ZM38.9488 32.7006V43.1615H37.2373V36.4046C37.2373 36.1345 37.2518 35.8428 37.2807 35.5293L34.1193 41.4687C34.0595 41.5996 33.9624 41.71 33.8401 41.7859C33.7179 41.8618 33.5759 41.9 33.432 41.8955H33.1613C33.0174 41.9 32.8754 41.8618 32.7532 41.7859C32.6309 41.71 32.5338 41.5996 32.474 41.4687L29.2723 35.5076C29.2868 35.6667 29.2988 35.8235 29.3085 35.9778C29.3181 36.1321 29.3229 36.2744 29.3229 36.4046V43.1615H27.6084V32.7006H29.077C29.1638 32.7006 29.2385 32.7031 29.3012 32.7079C29.3592 32.7118 29.4163 32.7239 29.4707 32.7441C29.5231 32.7645 29.5701 32.7967 29.6082 32.8381C29.6552 32.8905 29.6952 32.9489 29.727 33.0117L32.8605 38.8209C32.9425 38.9752 33.0183 39.1344 33.0879 39.2984C33.1575 39.4623 33.2264 39.6312 33.2946 39.8048C33.3635 39.6263 33.4324 39.4541 33.5013 39.288C33.5702 39.122 33.6474 38.9618 33.7328 38.8075L36.8219 33.0128C36.8542 32.9492 36.8956 32.8907 36.9448 32.8391C36.9853 32.7974 37.0343 32.765 37.0885 32.7441C37.1433 32.7238 37.2007 32.7117 37.259 32.7079C37.3217 32.7031 37.3965 32.7006 37.4833 32.7006H38.9488ZM44.0562 35.6233C44.5692 35.6166 45.0788 35.7074 45.5578 35.891C45.9932 36.0592 46.3878 36.3181 46.7153 36.6506C47.0451 36.9935 47.2978 37.4029 47.4563 37.8515C47.636 38.3601 47.7242 38.8965 47.7168 39.4358C47.7246 39.9776 47.6364 40.5164 47.4563 41.0274C47.2967 41.4775 47.0442 41.8891 46.7153 42.2355C46.3894 42.5717 45.9945 42.8334 45.5578 43.0024C45.0788 43.1859 44.5692 43.2768 44.0562 43.27C43.5398 43.2769 43.0268 43.1861 42.5442 43.0024C42.1063 42.8339 41.7103 42.5723 41.3836 42.2355C41.0542 41.8888 40.8005 41.4774 40.6385 41.0274C40.2864 39.998 40.2864 38.8809 40.6385 37.8515C40.8 37.403 41.0547 36.9937 41.3857 36.6506C41.714 36.3176 42.1097 36.0586 42.5463 35.891C43.0292 35.7071 43.5426 35.6163 44.0593 35.6233H44.0562ZM44.0562 41.8955C44.3184 41.9151 44.5814 41.8686 44.821 41.7603C45.0605 41.6519 45.2691 41.4852 45.4276 41.2754C45.7597 40.7279 45.9153 40.0914 45.8731 39.4524C45.9144 38.8111 45.759 38.1726 45.4276 37.6221C45.2706 37.4101 45.0626 37.2412 44.8228 37.1311C44.583 37.0211 44.3193 36.9735 44.0562 36.9927C43.7897 36.9733 43.5225 37.0211 43.2793 37.1318C43.0361 37.2425 42.8245 37.4125 42.6641 37.6262C42.3292 38.1739 42.1715 38.8117 42.2125 39.4524C42.171 40.0909 42.3292 40.7266 42.6651 41.2713C42.8272 41.4831 43.0396 41.6511 43.2831 41.7601C43.5265 41.8691 43.7933 41.9157 44.0593 41.8955H44.0562ZM50.871 41.2372C51.0464 41.4603 51.2734 41.6376 51.5324 41.7539C51.7716 41.8553 52.029 41.907 52.2889 41.9058C52.544 41.9101 52.797 41.8597 53.0309 41.758C53.2549 41.6553 53.448 41.4957 53.5911 41.295C53.76 41.0528 53.8804 40.7801 53.9456 40.492C54.0338 40.1092 54.0751 39.717 54.0685 39.3242C54.1185 38.7068 53.9771 38.089 53.6634 37.5549C53.5294 37.3748 53.3529 37.2307 53.1497 37.1353C52.9465 37.04 52.7228 36.9963 52.4987 37.0082C52.1835 37.0011 51.8726 37.0827 51.6016 37.2438C51.3225 37.4215 51.0755 37.6452 50.871 37.9052V41.2372ZM50.871 36.6506C51.1574 36.3462 51.4937 36.0929 51.8652 35.9013C52.2531 35.71 52.6812 35.6143 53.1136 35.6223C53.5148 35.6162 53.912 35.7028 54.2742 35.8755C54.6206 36.0448 54.9228 36.2925 55.1568 36.5989C55.4142 36.9423 55.6046 37.3312 55.718 37.7451C55.854 38.2373 55.9198 38.7464 55.9133 39.257C55.9199 39.8125 55.8443 40.3659 55.689 40.8992C55.5574 41.3568 55.3403 41.7853 55.0493 42.1621C54.7774 42.5118 54.428 42.7934 54.0285 42.9848C53.6291 43.1762 53.1906 43.2721 52.7478 43.2649C52.536 43.2672 52.3247 43.2443 52.1184 43.1966C51.9392 43.1531 51.7657 43.0886 51.6016 43.0044C51.4435 42.9234 51.2963 42.8227 51.1634 42.7047C51.0271 42.5827 50.8999 42.4508 50.7831 42.3099L50.7035 42.8091C50.6869 42.913 50.6342 43.0078 50.5547 43.0768C50.4709 43.1339 50.3707 43.1618 50.2695 43.1563H49.0872V32.4133H50.8741L50.871 36.6506ZM59.1471 35.7391V43.1615H57.356V35.7391H59.1471ZM59.393 33.576C59.394 33.7258 59.3619 33.8741 59.299 34.0101C59.1759 34.2788 58.9565 34.4916 58.6841 34.6064C58.5424 34.6672 58.3897 34.6982 58.2355 34.6973C58.0847 34.698 57.9354 34.667 57.7973 34.6064C57.6637 34.549 57.542 34.4669 57.4387 34.3645C57.337 34.2623 57.255 34.1421 57.1969 34.0101C57.1365 33.8734 57.1058 33.7254 57.107 33.576C57.1058 33.4219 57.1364 33.2692 57.1969 33.1275C57.3111 32.8557 57.5264 32.6389 57.7973 32.5229C57.9354 32.4622 58.0847 32.4313 58.2355 32.4319C58.3897 32.4311 58.5424 32.4621 58.6841 32.5229C58.8199 32.5802 58.944 32.6622 59.0499 32.7647C59.1551 32.8684 59.2396 32.9912 59.299 33.1264C59.3631 33.2676 59.3963 33.4209 59.3961 33.576H59.393ZM62.7818 32.4133V43.1615H60.9949V32.4133H62.7818ZM69.3506 38.5987C69.3522 38.3766 69.3195 38.1556 69.2534 37.9435C69.1924 37.7459 69.0926 37.5625 68.9599 37.404C68.8249 37.2463 68.6556 37.1215 68.4649 37.0392C68.2444 36.9458 68.0067 36.9 67.7673 36.9048C67.5448 36.8924 67.322 36.9251 67.1125 37.0009C66.9029 37.0768 66.7108 37.1942 66.5478 37.3461C66.2277 37.6906 66.0286 38.1299 65.9804 38.5977L69.3506 38.5987ZM65.9401 39.6766C65.9611 40.0142 66.0307 40.347 66.1468 40.6646C66.2391 40.9196 66.3818 41.1533 66.5664 41.3519C66.7396 41.5324 66.9516 41.6709 67.1865 41.757C67.4405 41.8487 67.7091 41.8939 67.9792 41.8903C68.2324 41.8947 68.4848 41.8598 68.7274 41.787C68.9167 41.7279 69.1006 41.6529 69.2772 41.5627C69.4336 41.4807 69.5714 41.406 69.6906 41.3385C69.7942 41.2743 69.9129 41.2386 70.0347 41.2351C70.1 41.231 70.1651 41.2442 70.2236 41.2734C70.282 41.3027 70.3317 41.3468 70.3675 41.4015L70.8843 42.0526C70.6927 42.2789 70.4683 42.4754 70.2187 42.6355C69.9774 42.79 69.719 42.9162 69.4488 43.0117C69.1836 43.1053 68.9098 43.1721 68.6313 43.2111C68.3639 43.249 68.0942 43.2683 67.8241 43.269C67.3325 43.2735 66.8443 43.1866 66.3845 43.0127C65.9482 42.8463 65.5532 42.5872 65.227 42.2531C64.886 41.8976 64.6225 41.4754 64.4529 41.0129C64.2553 40.4623 64.1597 39.8802 64.1708 39.2953C64.1674 38.808 64.2507 38.3241 64.4168 37.866C64.5717 37.4346 64.8113 37.0386 65.1216 36.7012C65.4368 36.3644 65.8186 36.0969 66.2429 35.9158C66.7152 35.7168 67.2238 35.6182 67.7363 35.6264C68.178 35.6218 68.6168 35.6978 69.0312 35.8507C69.4146 35.9923 69.7627 36.2155 70.0513 36.5049C70.3451 36.8067 70.5728 37.1664 70.7199 37.5611C70.8887 38.0184 70.9711 38.503 70.9628 38.9904C70.9783 39.1766 70.9485 39.3638 70.876 39.5361C70.8379 39.5868 70.787 39.6265 70.7285 39.6512C70.6701 39.6758 70.6062 39.6846 70.5432 39.6766H65.9401ZM81.1322 39.2136L79.8621 35.7318C79.7994 35.5775 79.7343 35.3942 79.6668 35.182C79.5992 34.9698 79.5303 34.7407 79.4601 34.4948C79.3974 34.7407 79.3323 34.9709 79.2647 35.1851C79.1972 35.3994 79.1321 35.5865 79.0694 35.7463L77.8075 39.2116L81.1322 39.2136ZM84.5717 43.1615H83.0669C82.9186 43.1682 82.7725 43.1232 82.6535 43.0344C82.5492 42.9527 82.4671 42.8461 82.4148 42.7243L81.6314 40.5861H77.3011L76.5198 42.7202C76.4746 42.8403 76.397 42.9455 76.2956 43.0241C76.1787 43.1179 76.032 43.1666 75.8822 43.1615H74.363L78.4803 32.7006H80.4625L84.5717 43.1615ZM87.1471 41.2372C87.3226 41.4603 87.5495 41.6376 87.8085 41.7539C88.0549 41.8567 88.3197 41.9084 88.5867 41.9058C88.8385 41.9097 89.088 41.8578 89.3174 41.7539C89.5382 41.6493 89.7285 41.4899 89.8703 41.2909C90.036 41.0537 90.1552 40.7871 90.2217 40.5055C90.3094 40.1394 90.3508 39.7637 90.3447 39.3872C90.3516 39.0166 90.3169 38.6464 90.2413 38.2835C90.1879 38.0222 90.0858 37.7733 89.9406 37.5497C89.8228 37.3719 89.6593 37.2291 89.4672 37.1363C89.2686 37.0468 89.0526 37.0024 88.8348 37.0061C88.5032 36.9961 88.1753 37.0776 87.8871 37.2417C87.6047 37.4179 87.355 37.6417 87.1491 37.9032L87.1471 41.2372ZM87.053 36.7539C87.3471 36.4192 87.6967 36.1378 88.0865 35.922C88.5054 35.7018 88.9735 35.5923 89.4466 35.6037C89.8317 35.599 90.2125 35.6858 90.5576 35.8569C90.8996 36.0313 91.1967 36.2824 91.4257 36.5907C91.6865 36.9472 91.8779 37.3497 91.99 37.7771C92.1296 38.3043 92.1964 38.8481 92.1884 39.3934C92.1932 39.9156 92.1175 40.4353 91.9641 40.9344C91.8287 41.3803 91.6118 41.7973 91.3244 42.1642C91.0533 42.5062 90.7099 42.7839 90.3188 42.9776C89.9075 43.1769 89.4551 43.2771 88.998 43.27C88.6346 43.2795 88.273 43.2145 87.9356 43.0788C87.6423 42.9515 87.3749 42.771 87.1471 42.5466V45.585H85.3602V35.7391H86.4526C86.5546 35.7318 86.6559 35.7603 86.7391 35.8198C86.8223 35.8792 86.8821 35.9658 86.9083 36.0646L87.053 36.7539ZM95.3653 41.2392C95.5411 41.4625 95.7684 41.6398 96.0278 41.756C96.2739 41.8587 96.5383 41.9104 96.8049 41.9079C97.0567 41.9118 97.3062 41.8599 97.5356 41.756C97.7564 41.6514 97.9467 41.492 98.0885 41.293C98.2542 41.0557 98.3735 40.7892 98.4399 40.5075C98.5277 40.1414 98.569 39.7657 98.5629 39.3893C98.5698 39.0187 98.5351 38.6485 98.4595 38.2856C98.4064 38.0244 98.3047 37.7755 98.1598 37.5518C98.0418 37.3738 97.8779 37.231 97.6855 37.1384C97.4865 37.0488 97.2701 37.0043 97.0519 37.0082C96.7204 36.9982 96.3925 37.0797 96.1042 37.2438C95.8219 37.4199 95.5722 37.6437 95.3663 37.9052L95.3653 41.2392ZM95.2733 36.7539C95.5674 36.4192 95.917 36.1378 96.3068 35.922C96.7257 35.7018 97.1938 35.5923 97.6669 35.6037C98.052 35.599 98.4328 35.6858 98.7778 35.8569C99.1199 36.0313 99.417 36.2824 99.646 36.5907C99.9068 36.9472 100.098 37.3497 100.21 37.7771C100.35 38.3043 100.417 38.8481 100.409 39.3934C100.413 39.9156 100.338 40.4353 100.184 40.9344C100.049 41.3803 99.8321 41.7973 99.5447 42.1642C99.2736 42.5062 98.9302 42.7839 98.5391 42.9776C98.1281 43.1767 97.6761 43.2769 97.2194 43.27C96.8555 43.2797 96.4936 43.2146 96.1559 43.0788C95.8625 42.9515 95.5952 42.771 95.3674 42.5466V45.585H93.5784V35.7391H94.6708C94.7728 35.7318 94.8741 35.7603 94.9573 35.8198C95.0405 35.8792 95.1004 35.9658 95.1266 36.0646L95.2733 36.7539Z" fill="white"/>
<defs>
<filter id="filter0_d_199_23920" x="0.607724" y="0.100493" width="363.784" height="65.109" filterUnits="userSpaceOnUse" color-interpolation-filters="sRGB">
<feFlood flood-opacity="0" result="BackgroundImageFix"/>
<feColorMatrix in="SourceAlpha" type="matrix" values="0 0 0 0 0 0 0 0 0 0 0 0 0 0 0 0 0 0 127 0" result="hardAlpha"/>
<feOffset dy="3.10043"/>
<feGaussianBlur stdDeviation="3.10043"/>
<feColorMatrix type="matrix" values="0 0 0 0 0 0 0 0 0 0 0 0 0 0 0 0 0 0 0.161 0"/>
<feBlend mode="normal" in2="BackgroundImageFix" result="effect1_dropShadow_199_23920"/>
<feBlend mode="normal" in="SourceGraphic" in2="effect1_dropShadow_199_23920" result="shape"/>
</filter>
<linearGradient id="paint0_linear_199_23920" x1="121.32" y1="45.2274" x2="121.816" y2="45.2274" gradientUnits="userSpaceOnUse">
<stop stop-color="#FFD700"/>
<stop offset="0.075" stop-color="#FECE00"/>
<stop offset="0.48" stop-color="#FCA704"/>
<stop offset="0.803" stop-color="#FA8E07"/>
<stop offset="1" stop-color="#FA8608"/>
</linearGradient>
<linearGradient id="paint1_linear_199_23920" x1="133.073" y1="52.6655" x2="133.412" y2="52.3268" gradientUnits="userSpaceOnUse">
<stop stop-color="#E82C36"/>
<stop offset="1" stop-color="#B4005A"/>
</linearGradient>
<linearGradient id="paint2_linear_199_23920" x1="140.259" y1="49.6855" x2="140.607" y2="49.337" gradientUnits="userSpaceOnUse">
<stop stop-color="#2F8F5B"/>
<stop offset="0.389" stop-color="#4EA157"/>
<stop offset="0.768" stop-color="#67B054"/>
<stop offset="1" stop-color="#70B653"/>
</linearGradient>
</defs>
</svg>
