<svg width="20" height="16" viewBox="0 0 20 16" fill="none" xmlns="http://www.w3.org/2000/svg">
<g clip-path="url(#clip0_199_28103)">
<path d="M19.0983 2.76555C18.906 2.56411 18.6745 2.40429 18.4179 2.29603C18.1614 2.18777 17.8854 2.13336 17.6069 2.13618H14.6185V2.10083C14.6204 1.88354 14.5783 1.66812 14.4948 1.46749C14.4114 1.26686 14.2882 1.08516 14.1328 0.933294C13.9799 0.779279 13.798 0.657061 13.5976 0.573696C13.3972 0.490332 13.1823 0.447468 12.9653 0.447576H7.57907C7.36056 0.445621 7.14382 0.486916 6.94133 0.569082C6.73884 0.651247 6.55461 0.772661 6.39925 0.92633C6.24388 1.08 6.12045 1.26289 6.03607 1.46446C5.95169 1.66603 5.90802 1.88231 5.90758 2.10083V2.13732H2.94312C2.66469 2.1345 2.38864 2.1889 2.1321 2.29717C1.87556 2.40543 1.644 2.56525 1.45177 2.76669C1.05478 3.16175 0.828775 3.69688 0.822394 4.2569V13.2061C0.819261 13.485 0.873517 13.7614 0.981791 14.0184C1.09006 14.2753 1.25004 14.5073 1.45177 14.6998C1.84711 15.097 2.3827 15.3231 2.94312 15.3292H17.6069C17.8854 15.332 18.1614 15.2776 18.4179 15.1693C18.6745 15.061 18.906 14.9012 19.0983 14.6998C19.4955 14.3044 19.7216 13.7688 19.7276 13.2084V4.2569C19.7305 3.97847 19.6761 3.70243 19.5678 3.44589C19.4595 3.18935 19.2997 2.95778 19.0983 2.76555ZM18.7927 13.2061H18.7745C18.7748 13.3596 18.7448 13.5115 18.6862 13.6533C18.6276 13.7951 18.5416 13.9239 18.4332 14.0324C18.3247 14.1409 18.1959 14.2269 18.0541 14.2854C17.9123 14.344 17.7603 14.374 17.6069 14.3737H2.94312C2.78962 14.3741 2.63754 14.3442 2.49562 14.2857C2.3537 14.2272 2.22473 14.1413 2.11614 14.0328C2.00754 13.9243 1.92145 13.7954 1.86281 13.6536C1.80417 13.5117 1.77414 13.3596 1.77444 13.2061V4.2569C1.77414 4.1034 1.80417 3.95135 1.86281 3.80949C1.92145 3.66762 2.00754 3.53875 2.11614 3.43025C2.22473 3.32176 2.3537 3.2358 2.49562 3.1773C2.63754 3.1188 2.78962 3.08891 2.94312 3.08936H6.40925C6.47312 3.08967 6.53642 3.07731 6.59549 3.05301C6.65455 3.02871 6.70822 2.99294 6.75338 2.94777C6.79854 2.90261 6.83431 2.84895 6.85861 2.78988C6.88291 2.73081 6.89527 2.66752 6.89497 2.60365V2.08259C6.89145 1.98956 6.90718 1.89681 6.94117 1.81014C6.97516 1.72347 7.02669 1.64476 7.09252 1.57893C7.15835 1.5131 7.23706 1.46158 7.32373 1.42758C7.41039 1.39359 7.50315 1.37786 7.59618 1.38138H12.9698C13.0629 1.37786 13.1556 1.39359 13.2423 1.42758C13.3289 1.46158 13.4077 1.5131 13.4735 1.57893C13.5393 1.64476 13.5908 1.72347 13.6248 1.81014C13.6588 1.89681 13.6746 1.98956 13.671 2.08259V2.60365C13.6707 2.66752 13.6831 2.73081 13.7074 2.78988C13.7317 2.84895 13.7675 2.90261 13.8126 2.94777C13.8578 2.99294 13.9114 3.02871 13.9705 3.05301C14.0296 3.07731 14.0929 3.08967 14.1567 3.08936H17.6252C17.7786 3.08906 17.9305 3.11906 18.0723 3.17763C18.2141 3.2362 18.3429 3.32218 18.4514 3.43066C18.5599 3.53914 18.6459 3.66796 18.7044 3.80975C18.763 3.95154 18.793 4.10349 18.7927 4.2569V13.2061Z" fill="white"/>
<path d="M10.2757 4.31152C9.25395 4.31214 8.26399 4.66697 7.47448 5.31558C6.68498 5.96419 6.14476 6.86644 5.94584 7.86866C5.74693 8.87088 5.90163 9.91108 6.38359 10.812C6.86554 11.713 7.64495 12.419 8.58903 12.8098C9.53312 13.2006 10.5835 13.252 11.5612 12.9552C12.5389 12.6585 13.3835 12.0319 13.9512 11.1823C14.5188 10.3327 14.7743 9.3126 14.6742 8.29575C14.574 7.2789 14.1245 6.3282 13.4021 5.60562C12.5723 4.77744 11.448 4.31207 10.2757 4.31152ZM12.7191 11.1936C12.0691 11.8383 11.1907 12.2 10.2751 12.2C9.35964 12.2 8.48122 11.8383 7.83118 11.1936C7.51037 10.873 7.25624 10.492 7.08344 10.0726C6.91065 9.65323 6.8226 9.20379 6.8244 8.75022C6.82875 7.83534 7.18997 6.95827 7.83118 6.30568C8.15183 5.98488 8.53282 5.73074 8.95219 5.55795C9.37156 5.38515 9.821 5.29711 10.2746 5.29891C11.1891 5.30356 12.0657 5.66475 12.718 6.30568C13.0389 6.62646 13.2931 7.00765 13.4659 7.42723C13.6387 7.8468 13.7267 8.29645 13.7247 8.75022C13.731 9.20421 13.6452 9.65477 13.4725 10.0747C13.2999 10.4946 13.044 10.8753 12.7203 11.1936H12.7191Z" fill="white"/>
<path d="M16.6693 6.0534C17.1554 6.0534 17.5495 5.65931 17.5495 5.17318C17.5495 4.68705 17.1554 4.29297 16.6693 4.29297C16.1831 4.29297 15.7891 4.68705 15.7891 5.17318C15.7891 5.65931 16.1831 6.0534 16.6693 6.0534Z" fill="white"/>
</g>
<defs>
<clipPath id="clip0_199_28103">
<rect width="18.9053" height="14.8804" fill="white" transform="translate(0.820312 0.44751)"/>
</clipPath>
</defs>
</svg>
