<svg width="33" height="33" viewBox="0 0 33 33" fill="none" xmlns="http://www.w3.org/2000/svg">
<g id="fb-logo.svg" clip-path="url(#clip0_264_6712)">
<g id="Group 9434">
<path id="Ellipse 437" d="M16.5 32.2925C25.3366 32.2925 32.5 25.129 32.5 16.2925C32.5 7.45592 25.3366 0.29248 16.5 0.29248C7.66344 0.29248 0.5 7.45592 0.5 16.2925C0.5 25.129 7.66344 32.2925 16.5 32.2925Z" fill="#1778F2"/>
<path id="Vector" d="M17.92 24.5263V17.0323H20.44L20.818 14.0983H17.918V12.2293C17.918 11.3813 18.154 10.8043 19.368 10.8043H20.911V8.18428C20.1614 8.10455 19.4079 8.06582 18.654 8.06828C18.1414 8.03117 17.6268 8.10662 17.1464 8.28934C16.6659 8.47207 16.2313 8.75765 15.8729 9.12607C15.5144 9.49449 15.2409 9.93684 15.0715 10.4221C14.9021 10.9074 14.8408 11.4238 14.892 11.9353V14.0943H12.374V17.0293H14.895V24.5293L17.92 24.5263Z" fill="white"/>
</g>
</g>
<defs>
<clipPath id="clip0_264_6712">
<rect width="32" height="32" fill="white" transform="translate(0.5 0.29248)"/>
</clipPath>
</defs>
</svg>
