<svg width="20" height="20" viewBox="0 0 20 20" fill="none" xmlns="http://www.w3.org/2000/svg">
<path d="M12.3169 17.7087H7.68359V12.7503C7.68359 12.292 8.05859 11.917 8.51693 11.917H11.4836C11.9419 11.917 12.3169 12.292 12.3169 12.7503V17.7087V17.7087Z" stroke="#0072BC" stroke-width="1.5" stroke-linecap="round" stroke-linejoin="round"/>
<path d="M17.7087 9.49176V15.0834C17.7087 16.5334 16.592 17.7084 15.2087 17.7084H4.79199C3.40866 17.7084 2.29199 16.5334 2.29199 15.0834V9.49176C2.29199 8.70843 2.61699 7.9751 3.19199 7.4751L8.40033 2.9001C9.32533 2.08343 10.6753 2.08343 11.6003 2.9001L16.8087 7.4751C17.3837 7.9751 17.7087 8.70843 17.7087 9.49176Z" stroke="#0072BC" stroke-width="1.5" stroke-linecap="round" stroke-linejoin="round"/>
</svg>
