<svg width="33" height="33" viewBox="0 0 33 33" fill="none" xmlns="http://www.w3.org/2000/svg">
<g id="in-logo.svg" clip-path="url(#clip0_264_6719)">
<g id="Group 9435">
<path id="Ellipse 438" d="M16.5 32.2925C25.3366 32.2925 32.5 25.129 32.5 16.2925C32.5 7.45592 25.3366 0.29248 16.5 0.29248C7.66344 0.29248 0.5 7.45592 0.5 16.2925C0.5 25.129 7.66344 32.2925 16.5 32.2925Z" fill="#0B66C1"/>
<path id="Vector" d="M9.74406 22.9176H12.7161V13.9776H9.74406V22.9176ZM11.2301 12.7566H11.2101C10.9973 12.7699 10.784 12.7392 10.5836 12.6663C10.3832 12.5934 10.2001 12.4799 10.0456 12.3329C9.8911 12.186 9.76862 12.0087 9.68581 11.8122C9.60299 11.6157 9.56164 11.4043 9.56433 11.1911C9.56702 10.9779 9.6137 10.7675 9.70145 10.5732C9.7892 10.3788 9.91612 10.2047 10.0743 10.0617C10.2324 9.9187 10.4184 9.80988 10.6205 9.74206C10.8227 9.67424 11.0367 9.64889 11.2491 9.66759C11.4619 9.65278 11.6754 9.68208 11.8764 9.75366C12.0774 9.82525 12.2614 9.93756 12.4169 10.0836C12.5724 10.2296 12.6961 10.4062 12.7802 10.6022C12.8643 10.7983 12.907 11.0096 12.9056 11.2229C12.9042 11.4362 12.8588 11.6469 12.7722 11.8419C12.6855 12.0368 12.5596 12.2118 12.4022 12.3558C12.2448 12.4997 12.0593 12.6097 11.8575 12.6786C11.6556 12.7476 11.4427 12.7742 11.2301 12.7566ZM23.4301 22.9176H20.4591V18.1356C20.4591 16.9356 20.0291 16.1136 18.9541 16.1136C18.6189 16.1156 18.2925 16.2211 18.0195 16.4157C17.7465 16.6102 17.5403 16.8844 17.4291 17.2006C17.3522 17.4342 17.3183 17.6799 17.3291 17.9256V22.9186H14.3601C14.3601 22.9186 14.3991 14.8186 14.3601 13.9786H17.3321V15.2436C17.6006 14.7771 17.9916 14.393 18.4627 14.1328C18.9339 13.8727 19.4673 13.7464 20.0051 13.7676C21.9601 13.7676 23.4261 15.0456 23.4261 17.7916L23.4301 22.9176Z" fill="white"/>
</g>
</g>
<defs>
<clipPath id="clip0_264_6719">
<rect width="32" height="32" fill="white" transform="translate(0.5 0.29248)"/>
</clipPath>
</defs>
</svg>
