<svg width="33" height="33" viewBox="0 0 33 33" fill="none" xmlns="http://www.w3.org/2000/svg">
<g id="instagram 1" clip-path="url(#clip0_265_8736)">
<g id="Group">
<path id="Vector" d="M16.5 32.155C25.3366 32.155 32.5 24.9916 32.5 16.155C32.5 7.31847 25.3366 0.155029 16.5 0.155029C7.66344 0.155029 0.5 7.31847 0.5 16.155C0.5 24.9916 7.66344 32.155 16.5 32.155Z" fill="url(#paint0_linear_265_8736)"/>
<g id="Group_2">
<path id="Vector_2" d="M19.8991 7.26611H13.1079C10.0786 7.26611 7.61816 9.72656 7.61816 12.7559V19.547C7.61816 22.5763 10.0786 25.0368 13.1079 25.0368H19.8991C22.9284 25.0368 25.3888 22.5763 25.3888 19.547V12.7559C25.3888 9.72656 22.9284 7.26611 19.8991 7.26611ZM23.4048 19.5541C23.4048 21.4883 21.8333 23.067 19.8919 23.067H13.1008C11.1666 23.067 9.58794 21.4954 9.58794 19.5541V12.763C9.58794 10.8288 11.1595 9.25011 13.1008 9.25011H19.8919C21.8262 9.25011 23.4048 10.8217 23.4048 12.763V19.5541Z" fill="white"/>
<path id="Vector_3" d="M16.5001 11.6108C13.9969 11.6108 11.9561 13.6517 11.9561 16.1548C11.9561 18.658 13.9969 20.6988 16.5001 20.6988C19.0032 20.6988 21.0441 18.658 21.0441 16.1548C21.0441 13.6517 19.0032 11.6108 16.5001 11.6108ZM16.5001 18.9139C14.9783 18.9139 13.7409 17.6766 13.7409 16.1548C13.7409 14.6331 14.9783 13.3957 16.5001 13.3957C18.0218 13.3957 19.2592 14.6331 19.2592 16.1548C19.2592 17.6766 18.0218 18.9139 16.5001 18.9139Z" fill="white"/>
<path id="Vector_4" d="M21.39 12.109C21.8086 12.0411 22.093 11.6467 22.0251 11.2281C21.9573 10.8094 21.5629 10.5251 21.1442 10.5929C20.7256 10.6608 20.4412 11.0552 20.5091 11.4738C20.577 11.8925 20.9714 12.1768 21.39 12.109Z" fill="white"/>
</g>
</g>
</g>
<defs>
<linearGradient id="paint0_linear_265_8736" x1="4.31717" y1="28.3379" x2="27.055" y2="5.60008" gradientUnits="userSpaceOnUse">
<stop stop-color="#FEE411"/>
<stop offset="0.0518459" stop-color="#FEDB16"/>
<stop offset="0.1381" stop-color="#FEC125"/>
<stop offset="0.2481" stop-color="#FE983D"/>
<stop offset="0.3762" stop-color="#FE5F5E"/>
<stop offset="0.5" stop-color="#FE2181"/>
<stop offset="1" stop-color="#9000DC"/>
</linearGradient>
<clipPath id="clip0_265_8736">
<rect width="32" height="32" fill="white" transform="translate(0.5 0.155029)"/>
</clipPath>
</defs>
</svg>
