<svg width="32" height="32" viewBox="0 0 32 32" fill="none" xmlns="http://www.w3.org/2000/svg">
<rect width="32" height="32" rx="16" fill="#0072BC"/>
<path d="M22.3073 21.3105H23.5106C24.8857 21.3105 26.0002 20.196 26.0002 18.821V13.8418C26.0002 12.4667 24.8857 11.3522 23.5106 11.3522H8.49007C7.11499 11.3522 6.00049 12.4667 6.00049 13.8418V18.821C6.00049 20.196 7.11499 21.3105 8.49007 21.3105H9.69337" stroke="white" stroke-width="1.5" stroke-miterlimit="10" stroke-linecap="round" stroke-linejoin="round"/>
<path d="M23.3028 17.9917H8.69727" stroke="white" stroke-width="1.5" stroke-miterlimit="10" stroke-linecap="round" stroke-linejoin="round"/>
<path d="M10.9382 25.9995H21.0625C21.7499 25.9995 22.3073 25.4422 22.3073 24.7547V17.9913H9.69336V24.7547C9.69336 25.4422 10.2507 25.9995 10.9382 25.9995Z" stroke="white" stroke-width="1.5" stroke-miterlimit="10" stroke-linecap="round" stroke-linejoin="round"/>
<path d="M17.6598 20.647H14.3403" stroke="white" stroke-width="1.5" stroke-miterlimit="10" stroke-linecap="round" stroke-linejoin="round"/>
<path d="M17.6598 23.3027H14.3403" stroke="white" stroke-width="1.5" stroke-miterlimit="10" stroke-linecap="round" stroke-linejoin="round"/>
<path d="M10.6889 14.0083H8.69727" stroke="white" stroke-width="1.5" stroke-miterlimit="10" stroke-linecap="round" stroke-linejoin="round"/>
<path d="M12.1829 5.99993H19.8177C21.1926 5.99993 22.3073 7.11456 22.3073 8.48952V11.3525H9.69336V8.48952C9.69336 7.11456 10.808 5.99993 12.1829 5.99993Z" stroke="white" stroke-width="1.5" stroke-miterlimit="10" stroke-linecap="round" stroke-linejoin="round"/>
</svg>
