<svg width="32" height="32" viewBox="0 0 32 32" fill="none" xmlns="http://www.w3.org/2000/svg">
<rect width="32" height="32" rx="16" fill="#0072BC"/>
<g clip-path="url(#clip0_485_9736)">
<path d="M17.7195 20.6595L12.2808 17.5195M12.2808 14.4799L17.7195 11.3398" stroke="white" stroke-width="1.5" stroke-miterlimit="2.6131"/>
<path d="M22.5006 11.9693C23.6875 10.7824 23.6875 8.85818 22.5006 7.67134C21.3138 6.48449 19.3895 6.48449 18.2027 7.67134C17.0158 8.85818 17.0158 10.7824 18.2027 11.9693C19.3895 13.1561 21.3138 13.1561 22.5006 11.9693Z" stroke="white" stroke-width="1.5" stroke-miterlimit="2.6131"/>
<path d="M23.3719 22.5114C23.555 20.843 22.351 19.342 20.6826 19.1589C19.0142 18.9758 17.5132 20.1798 17.3301 21.8482C17.147 23.5166 18.351 25.0176 20.0194 25.2007C21.6878 25.3838 23.1888 24.1798 23.3719 22.5114Z" stroke="white" stroke-width="1.5" stroke-miterlimit="2.6131"/>
<path d="M12.6484 16.487C12.9173 14.8302 11.7921 13.2691 10.1353 13.0002C8.47848 12.7313 6.91738 13.8564 6.64849 15.5132C6.3796 17.1701 7.50474 18.7312 9.16156 19.0001C10.8184 19.2689 12.3795 18.1438 12.6484 16.487Z" stroke="white" stroke-width="1.5" stroke-miterlimit="2.6131"/>
</g>
<defs>
<clipPath id="clip0_485_9736">
<rect width="20" height="20" fill="white" transform="translate(5 6)"/>
</clipPath>
</defs>
</svg>
