<svg width="33" height="33" viewBox="0 0 33 33" fill="none" xmlns="http://www.w3.org/2000/svg">
<g id="twitter 1" clip-path="url(#clip0_265_8894)">
<g id="Group">
<path id="Vector" d="M16.5 0.155029C7.66375 0.155029 0.5 7.31878 0.5 16.155C0.5 24.9913 7.66375 32.155 16.5 32.155C25.3363 32.155 32.5 24.9913 32.5 16.155C32.5 7.31878 25.3363 0.155029 16.5 0.155029Z" fill="black"/>
<path id="Vector_2" d="M18.2504 14.707L25.0998 6.74512H23.4767L17.5293 13.6583L12.7792 6.74512H7.30054L14.4836 17.1991L7.30054 25.5483H8.92372L15.2043 18.2478L20.2207 25.5483H25.6994L18.25 14.707H18.2504ZM9.50856 7.96704H12.0017L23.4774 24.382H20.9843L9.50856 7.96704Z" fill="white"/>
</g>
</g>
<defs>
<clipPath id="clip0_265_8894">
<rect width="32" height="32" fill="white" transform="translate(0.5 0.155029)"/>
</clipPath>
</defs>
</svg>
