<svg width="32" height="33" viewBox="0 0 32 33" fill="none" xmlns="http://www.w3.org/2000/svg">
<rect y="0.316833" width="32" height="32" rx="16" fill="black" fill-opacity="0.52"/>
<path fill-rule="evenodd" clip-rule="evenodd" d="M11 7.31683H21C21.2652 7.31683 21.5196 7.42219 21.7071 7.60973C21.8946 7.79726 22 8.05162 22 8.31683V24.3168C22 24.582 21.8946 24.8364 21.7071 25.0239C21.5196 25.2115 21.2652 25.3168 21 25.3168H11C10.7348 25.3168 10.4804 25.2115 10.2929 25.0239C10.1054 24.8364 10 24.582 10 24.3168V8.31683C10 8.05162 10.1054 7.79726 10.2929 7.60973C10.4804 7.42219 10.7348 7.31683 11 7.31683ZM7.5 9.31683H6.5C6.36739 9.31683 6.24021 9.36951 6.14645 9.46328C6.05268 9.55705 6 9.68423 6 9.81683V22.8168C6 22.9494 6.05268 23.0766 6.14645 23.1704C6.24021 23.2642 6.36739 23.3168 6.5 23.3168H7.5C7.63261 23.3168 7.75979 23.2642 7.85355 23.1704C7.94732 23.0766 8 22.9494 8 22.8168V9.81683C8 9.68423 7.94732 9.55705 7.85355 9.46328C7.75979 9.36951 7.63261 9.31683 7.5 9.31683ZM25.5 9.31683H24.5C24.3674 9.31683 24.2402 9.36951 24.1464 9.46328C24.0527 9.55705 24 9.68423 24 9.81683V22.8168C24 22.9494 24.0527 23.0766 24.1464 23.1704C24.2402 23.2642 24.3674 23.3168 24.5 23.3168H25.5C25.6326 23.3168 25.7598 23.2642 25.8536 23.1704C25.9473 23.0766 26 22.9494 26 22.8168V9.81683C26 9.68423 25.9473 9.55705 25.8536 9.46328C25.7598 9.36951 25.6326 9.31683 25.5 9.31683Z" fill="white"/>
</svg>
