<svg width="33" height="33" viewBox="0 0 33 33" fill="none" xmlns="http://www.w3.org/2000/svg">
<rect x="0.340027" y="0.316833" width="32" height="32" rx="16" fill="black" fill-opacity="0.52"/>
<path fill-rule="evenodd" clip-rule="evenodd" d="M11.34 7.31683H21.34C21.6052 7.31683 21.8596 7.42219 22.0471 7.60973C22.2347 7.79726 22.34 8.05162 22.34 8.31683V24.3168C22.34 24.582 22.2347 24.8364 22.0471 25.0239C21.8596 25.2115 21.6052 25.3168 21.34 25.3168H11.34C11.0748 25.3168 10.8205 25.2115 10.6329 25.0239C10.4454 24.8364 10.34 24.582 10.34 24.3168V8.31683C10.34 8.05162 10.4454 7.79726 10.6329 7.60973C10.8205 7.42219 11.0748 7.31683 11.34 7.31683ZM7.84003 9.31683H6.84003C6.70742 9.31683 6.58024 9.36951 6.48647 9.46328C6.39271 9.55705 6.34003 9.68423 6.34003 9.81683V22.8168C6.34003 22.9494 6.39271 23.0766 6.48647 23.1704C6.58024 23.2642 6.70742 23.3168 6.84003 23.3168H7.84003C7.97264 23.3168 8.09981 23.2642 8.19358 23.1704C8.28735 23.0766 8.34003 22.9494 8.34003 22.8168V9.81683C8.34003 9.68423 8.28735 9.55705 8.19358 9.46328C8.09981 9.36951 7.97264 9.31683 7.84003 9.31683ZM25.84 9.31683H24.84C24.7074 9.31683 24.5802 9.36951 24.4865 9.46328C24.3927 9.55705 24.34 9.68423 24.34 9.81683V22.8168C24.34 22.9494 24.3927 23.0766 24.4865 23.1704C24.5802 23.2642 24.7074 23.3168 24.84 23.3168H25.84C25.9726 23.3168 26.0998 23.2642 26.1936 23.1704C26.2873 23.0766 26.34 22.9494 26.34 22.8168V9.81683C26.34 9.68423 26.2873 9.55705 26.1936 9.46328C26.0998 9.36951 25.9726 9.31683 25.84 9.31683Z" fill="white"/>
</svg>
