<svg width="33" height="33" viewBox="0 0 33 33" fill="none" xmlns="http://www.w3.org/2000/svg">
<rect x="0.670013" y="0.316833" width="32" height="32" rx="16" fill="black" fill-opacity="0.52"/>
<path fill-rule="evenodd" clip-rule="evenodd" d="M11.67 7.31683H21.67C21.9352 7.31683 22.1896 7.42219 22.3771 7.60973C22.5647 7.79726 22.67 8.05162 22.67 8.31683V24.3168C22.67 24.582 22.5647 24.8364 22.3771 25.0239C22.1896 25.2115 21.9352 25.3168 21.67 25.3168H11.67C11.4048 25.3168 11.1504 25.2115 10.9629 25.0239C10.7754 24.8364 10.67 24.582 10.67 24.3168V8.31683C10.67 8.05162 10.7754 7.79726 10.9629 7.60973C11.1504 7.42219 11.4048 7.31683 11.67 7.31683ZM8.17001 9.31683H7.17001C7.03741 9.31683 6.91023 9.36951 6.81646 9.46328C6.72269 9.55705 6.67001 9.68423 6.67001 9.81683V22.8168C6.67001 22.9494 6.72269 23.0766 6.81646 23.1704C6.91023 23.2642 7.03741 23.3168 7.17001 23.3168H8.17001C8.30262 23.3168 8.4298 23.2642 8.52357 23.1704C8.61734 23.0766 8.67001 22.9494 8.67001 22.8168V9.81683C8.67001 9.68423 8.61734 9.55705 8.52357 9.46328C8.4298 9.36951 8.30262 9.31683 8.17001 9.31683ZM26.17 9.31683H25.17C25.0374 9.31683 24.9102 9.36951 24.8165 9.46328C24.7227 9.55705 24.67 9.68423 24.67 9.81683V22.8168C24.67 22.9494 24.7227 23.0766 24.8165 23.1704C24.9102 23.2642 25.0374 23.3168 25.17 23.3168H26.17C26.3026 23.3168 26.4298 23.2642 26.5236 23.1704C26.6173 23.0766 26.67 22.9494 26.67 22.8168V9.81683C26.67 9.68423 26.6173 9.55705 26.5236 9.46328C26.4298 9.36951 26.3026 9.31683 26.17 9.31683Z" fill="white"/>
</svg>
