<?xml version="1.0"?>
<svg width="353" height="73" xmlns="http://www.w3.org/2000/svg" xmlns:svg="http://www.w3.org/2000/svg">
 <defs>
  <clipPath id="clip0_210_32694">
   <rect fill="white" height="59" id="svg_1" transform="translate(0 0.807617)" width="336.84"/>
  </clipPath>
 </defs>
 <g class="layer">
  <title>Layer 1</title>
  <g clip-path="url(#clip0_210_32694)" id="svg_2">
   <path d="m142.37,26.81c0,-3.22 -1.35,-5.22 -5.03,-5.22c-3.68,0 -5.03,2 -5.03,5.22l0,8.58c0,1.81 0.6,4.54 3.77,4.54c3.16,0 5.43,-2.34 6.28,-5.77l0,-7.34l0.01,-0.01zm176.22,-2.64c2.05,-1.7 4.34,-2.84 6.84,-2.78c2.68,0.06 3.8,2.2 3.8,4.64l0,16.99c0,2.09 1.7,3.36 3.81,3.36c2.1,0 3.8,-1.27 3.8,-3.36l0,-17.08c0,-6.24 -2.43,-11.96 -9.51,-11.96c-4.19,0 -7.66,2.13 -10.33,4.27c-1.71,-2.98 -4.55,-4.27 -7.81,-4.27c-3.83,0 -6.5,1.63 -8.72,3.21c-0.07,-2.01 -1.74,-3.21 -3.79,-3.21c-2.05,0 -3.81,1.26 -3.81,3.36l0,25.68c0,2.09 1.7,3.36 3.81,3.36c2.1,0 3.8,-1.27 3.8,-3.36l0,-18.85c2.07,-1.7 4.31,-2.85 6.81,-2.79c2.31,0.06 3.77,1.88 3.77,4.11l0,17.52c0,2.1 1.7,3.36 3.8,3.36c2.1,0 3.8,-1.26 3.8,-3.36l0,-17.45c0,-0.45 -0.03,-0.95 -0.07,-1.41l0,0.02zm-38.96,2.64c0,-3.22 -1.35,-5.22 -5.03,-5.22c-3.68,0 -5.03,2 -5.03,5.22l0,8.58c0,1.81 0.6,4.54 3.76,4.54c3.17,0 5.44,-2.34 6.29,-5.77l0,-7.34l0.01,-0.01zm7.6,0l0,16.22c0,2.1 -1.7,3.36 -3.81,3.36c-2.1,0 -3.8,-1.27 -3.8,-3.36l0,-0.59c-2.12,2.96 -4.13,3.94 -7.54,3.96c-6.2,0.03 -10.12,-3.93 -10.12,-11l0,-8.58c0,-8.45 4.68,-12.2 12.63,-12.2c7.96,0 12.63,3.75 12.63,12.2l0.01,-0.01zm-51.8,0c0,-3.22 -1.35,-5.22 -5.03,-5.22c-3.68,0 -5.03,2 -5.03,5.22l0,8.58c0,1.81 0.6,4.54 3.76,4.54c3.17,0 5.44,-2.34 6.29,-5.77l0,-7.34l0.01,-0.01zm7.6,0l0,16.22c0,2.1 -1.7,3.36 -3.81,3.36c-2.1,0 -3.8,-1.27 -3.8,-3.36l0,-0.59c-2.12,2.96 -4.13,3.94 -7.54,3.96c-6.2,0.03 -10.12,-3.93 -10.12,-11l0,-8.58c0,-8.45 4.68,-12.2 12.63,-12.2c7.96,0 12.63,3.75 12.63,12.2l0.01,-0.01zm-38.44,18.46l0,-2.84c-2.11,2.96 -4.13,3.94 -7.53,3.96c-6.21,0.03 -10.12,-3.93 -10.12,-11l0,-8.58c0,-8.45 4.67,-12.19 12.62,-12.19c7.96,0 12.63,3.74 12.63,12.19l0,18.46c0,10.15 -6.65,14.54 -14.29,14.54l-3.89,0c-1.93,0 -3.48,-1.56 -3.48,-3.48c0,-1.93 1.56,-3.49 3.48,-3.49l3.89,0c4.32,0 6.69,-2.85 6.69,-7.57l0,0zm0,-18.46c0,-3.22 -1.34,-5.22 -5.03,-5.22c-3.68,0 -5.02,2 -5.02,5.22l0,8.58c0,1.81 0.6,4.54 3.76,4.54c3.16,0 5.43,-2.34 6.29,-5.77l0,-7.34l0,-0.01zm-32.68,-12.83c-3.83,0 -6.5,1.63 -8.72,3.21c-0.07,-2.01 -1.74,-3.21 -3.79,-3.21c-2.05,0 -3.81,1.26 -3.81,3.36l0,25.68c0,2.09 1.7,3.36 3.81,3.36c2.1,0 3.8,-1.27 3.8,-3.36l0,-18.85c2.06,-1.7 4.3,-2.85 6.81,-2.79c2.31,0.06 3.77,1.95 3.77,4.19l0,17.45c0,2.09 1.7,3.36 3.8,3.36c2.1,0 3.8,-1.27 3.8,-3.36l0,-18.02c0,-6.21 -2.89,-11.02 -9.46,-11.02l-0.01,0zm76.88,29.04c0,2.09 1.71,3.36 3.81,3.36c2.1,0 3.8,-1.27 3.8,-3.36l0,-38.85c0,-2.1 -1.7,-3.36 -3.8,-3.36c-2.1,0 -3.81,1.26 -3.81,3.36l0,38.85zm-147.97,-18.85c2.06,-1.7 4.35,-2.84 6.85,-2.78c2.68,0.06 3.8,2.2 3.8,4.64l0,16.99c0,2.09 1.7,3.36 3.8,3.36c2.11,0 3.81,-1.27 3.81,-3.36l0,-17.08c0,-6.24 -2.44,-11.96 -9.51,-11.96c-4.2,0 -7.66,2.13 -10.33,4.27c-1.71,-2.98 -4.55,-4.27 -7.81,-4.27c-3.84,0 -6.5,1.63 -8.72,3.21c-0.08,-2.01 -1.75,-3.21 -3.8,-3.21c-2.05,0 -3.8,1.26 -3.8,3.36l0,25.68c0,2.09 1.7,3.36 3.8,3.36c2.11,0 3.81,-1.27 3.81,-3.36l0,-18.85c2.06,-1.7 4.3,-2.85 6.81,-2.79c2.31,0.06 3.76,1.88 3.76,4.11l0,17.52c0,2.1 1.7,3.36 3.81,3.36c2.1,0 3.8,-1.26 3.8,-3.36l0,-17.45c0,-0.45 -0.03,-0.95 -0.07,-1.41l-0.01,0.02zm49.16,2.64l0,16.22c0,2.1 -1.7,3.36 -3.81,3.36c-2.1,0 -3.8,-1.27 -3.8,-3.36l0,-0.59c-2.12,2.96 -4.13,3.94 -7.54,3.96c-6.2,0.03 -10.12,-3.93 -10.12,-11l0,-8.58c0,-8.45 4.68,-12.2 12.63,-12.2c7.96,0 12.63,3.75 12.63,12.2l0.01,-0.01z" fill="#0071bc" id="svg_3"/>
   <path clip-rule="evenodd" d="m56.31,39.92l-6.29,-13.51l-6.3,13.51c-0.46,0.94 -0.73,2 -0.73,3.12c0,3.89 3.15,7.04 7.03,7.04c3.89,0 7.04,-3.15 7.04,-7.04c0,-1.13 -0.27,-2.19 -0.73,-3.13l-0.02,0.01z" fill="#0072BC" fill-rule="evenodd" id="svg_4"/>
   <path clip-rule="evenodd" d="m0.66,40.08l11.88,-25.49c1.64,-3.52 5.83,-5.04 9.35,-3.4c3.52,1.64 5.04,5.83 3.4,9.35l-11.89,25.48c-1.63,3.52 -5.82,5.05 -9.34,3.4c-3.52,-1.64 -5.04,-5.82 -3.4,-9.34z" fill="#C4122F" fill-rule="evenodd" id="svg_5"/>
   <path clip-rule="evenodd" d="m22.15,40.08l11.88,-25.49c1.64,-3.52 5.83,-5.04 9.35,-3.4c3.52,1.64 5.04,5.83 3.4,9.35l-11.88,25.48c-1.64,3.52 -5.83,5.05 -9.35,3.4c-3.52,-1.64 -5.04,-5.82 -3.4,-9.34z" fill="#F58220" fill-rule="evenodd" id="svg_6"/>
   <path d="m9.75,56.85l0.61,0l0,-1.48c0,-0.14 0.02,-0.26 0.07,-0.36c0.04,-0.09 0.11,-0.17 0.19,-0.22c0.09,-0.06 0.19,-0.08 0.3,-0.09c0.17,0 0.3,0.06 0.4,0.17c0.09,0.11 0.13,0.27 0.14,0.47l0,1.51l0.6,0l0,-1.49c0,-0.15 0.03,-0.26 0.08,-0.36c0.05,-0.1 0.11,-0.17 0.2,-0.22c0.08,-0.06 0.18,-0.08 0.29,-0.08c0.17,0 0.3,0.06 0.39,0.17c0.1,0.11 0.14,0.27 0.14,0.48l0,1.5l0.6,0l0,-1.68c0,-0.22 -0.04,-0.4 -0.11,-0.55c-0.08,-0.15 -0.18,-0.27 -0.32,-0.34c-0.14,-0.08 -0.31,-0.12 -0.5,-0.13c-0.13,0 -0.25,0.03 -0.35,0.06c-0.11,0.04 -0.21,0.1 -0.3,0.16c-0.09,0.07 -0.17,0.16 -0.24,0.25c-0.04,-0.09 -0.1,-0.18 -0.18,-0.25c-0.08,-0.06 -0.16,-0.12 -0.26,-0.16c-0.1,-0.03 -0.21,-0.06 -0.34,-0.06c-0.14,0 -0.25,0.03 -0.35,0.07c-0.1,0.05 -0.19,0.1 -0.26,0.17c-0.08,0.07 -0.14,0.14 -0.19,0.22l0,-0.4l-0.61,0l0,2.64zm6.97,0l0,-1.57c0,-0.24 -0.05,-0.43 -0.13,-0.6c-0.08,-0.17 -0.21,-0.29 -0.39,-0.38c-0.17,-0.09 -0.39,-0.13 -0.65,-0.13c-0.14,0 -0.27,0.01 -0.38,0.03c-0.12,0.01 -0.23,0.04 -0.32,0.08c-0.1,0.03 -0.2,0.06 -0.3,0.11l0.17,0.49c0.07,-0.03 0.16,-0.06 0.23,-0.09c0.08,-0.03 0.16,-0.05 0.25,-0.06c0.08,-0.01 0.17,-0.02 0.27,-0.02c0.21,0 0.37,0.05 0.48,0.14c0.11,0.1 0.17,0.24 0.17,0.42l0,0.06c-0.07,-0.03 -0.14,-0.04 -0.21,-0.06c-0.07,-0.02 -0.15,-0.03 -0.23,-0.04c-0.09,-0.01 -0.19,-0.02 -0.29,-0.02c-0.16,0 -0.3,0.02 -0.43,0.06c-0.13,0.03 -0.24,0.09 -0.34,0.16c-0.1,0.06 -0.17,0.16 -0.22,0.26c-0.06,0.11 -0.08,0.24 -0.09,0.38c0,0.15 0.02,0.26 0.08,0.36c0.05,0.1 0.12,0.18 0.2,0.25c0.1,0.07 0.19,0.13 0.3,0.16c0.12,0.04 0.23,0.06 0.36,0.06c0.14,0 0.25,-0.02 0.36,-0.06c0.1,-0.03 0.2,-0.07 0.28,-0.13c0.08,-0.06 0.15,-0.13 0.21,-0.19l0,0.32l0.6,0l0.02,0.01zm-0.59,-0.95c0,0.11 -0.03,0.2 -0.09,0.29c-0.06,0.08 -0.14,0.14 -0.25,0.19c-0.11,0.04 -0.22,0.07 -0.36,0.07c-0.1,0 -0.18,-0.02 -0.26,-0.05c-0.07,-0.03 -0.13,-0.07 -0.18,-0.13c-0.05,-0.06 -0.07,-0.13 -0.07,-0.21c0,-0.09 0.02,-0.17 0.08,-0.23c0.04,-0.06 0.11,-0.11 0.2,-0.14c0.09,-0.03 0.2,-0.04 0.33,-0.04c0.12,0 0.23,0 0.34,0.03c0.1,0.02 0.19,0.04 0.27,0.07l0,0.16l-0.01,-0.01zm1.31,0.95l0.61,0l0,-1.49c0,-0.14 0.02,-0.26 0.07,-0.35c0.06,-0.1 0.12,-0.18 0.21,-0.22c0.09,-0.06 0.19,-0.08 0.31,-0.08c0.18,0 0.32,0.06 0.42,0.17c0.1,0.11 0.14,0.26 0.14,0.48l0,1.5l0.61,0l0,-1.69c0,-0.2 -0.04,-0.38 -0.12,-0.54c-0.07,-0.15 -0.18,-0.26 -0.32,-0.35c-0.14,-0.08 -0.31,-0.13 -0.51,-0.13c-0.14,0 -0.26,0.03 -0.36,0.07c-0.1,0.05 -0.19,0.1 -0.26,0.17c-0.08,0.07 -0.15,0.14 -0.2,0.23l0,-0.41l-0.6,0l0,2.64l0,0zm4.28,0.81c0.24,0 0.45,-0.03 0.63,-0.08c0.18,-0.07 0.34,-0.15 0.46,-0.27c0.11,-0.11 0.19,-0.25 0.25,-0.41c0.05,-0.17 0.08,-0.36 0.08,-0.58l0,-2.11l-0.6,0l0,0.4c-0.07,-0.08 -0.14,-0.16 -0.23,-0.23c-0.08,-0.07 -0.19,-0.12 -0.29,-0.16c-0.12,-0.04 -0.25,-0.06 -0.4,-0.06c-0.12,0 -0.24,0.02 -0.36,0.05c-0.11,0.04 -0.23,0.1 -0.33,0.16c-0.09,0.07 -0.19,0.16 -0.26,0.26c-0.08,0.09 -0.14,0.21 -0.19,0.34c-0.04,0.13 -0.06,0.27 -0.06,0.43c0,0.16 0.02,0.3 0.06,0.43c0.05,0.13 0.1,0.24 0.19,0.34c0.07,0.1 0.17,0.19 0.26,0.25c0.1,0.07 0.22,0.13 0.33,0.16c0.12,0.04 0.24,0.06 0.37,0.06c0.14,0 0.27,-0.03 0.39,-0.06c0.11,-0.04 0.21,-0.1 0.3,-0.17c0.09,-0.07 0.17,-0.16 0.25,-0.25l0,0.2c0,0.27 -0.08,0.47 -0.22,0.61c-0.14,0.13 -0.35,0.2 -0.62,0.2c-0.18,0 -0.34,-0.02 -0.5,-0.08c-0.15,-0.04 -0.3,-0.11 -0.44,-0.2l-0.23,0.46c0.17,0.1 0.36,0.18 0.56,0.23c0.2,0.06 0.41,0.09 0.62,0.09l-0.02,-0.01zm0.05,-1.53c-0.1,0 -0.2,-0.01 -0.29,-0.05c-0.09,-0.04 -0.16,-0.08 -0.23,-0.15c-0.07,-0.07 -0.13,-0.15 -0.16,-0.23c-0.04,-0.09 -0.06,-0.19 -0.06,-0.3c0,-0.12 0.02,-0.22 0.06,-0.3c0.03,-0.09 0.09,-0.17 0.16,-0.23c0.07,-0.06 0.14,-0.11 0.23,-0.15c0.09,-0.03 0.19,-0.05 0.3,-0.05c0.11,0 0.21,0.02 0.3,0.05c0.09,0.04 0.17,0.09 0.24,0.16c0.07,0.06 0.13,0.14 0.17,0.23c0.04,0.09 0.06,0.19 0.06,0.29c0,0.12 -0.02,0.22 -0.06,0.31c-0.04,0.09 -0.1,0.17 -0.17,0.23c-0.07,0.07 -0.15,0.11 -0.24,0.15c-0.09,0.04 -0.19,0.05 -0.3,0.05l-0.01,-0.01zm4.35,0.72l0,-1.57c0,-0.24 -0.05,-0.43 -0.13,-0.6c-0.09,-0.17 -0.22,-0.29 -0.39,-0.38c-0.18,-0.09 -0.39,-0.13 -0.65,-0.13c-0.14,0 -0.27,0.01 -0.39,0.03c-0.11,0.01 -0.22,0.04 -0.32,0.08c-0.1,0.03 -0.2,0.06 -0.3,0.11l0.17,0.49c0.08,-0.03 0.16,-0.06 0.24,-0.09c0.07,-0.03 0.16,-0.05 0.24,-0.06c0.09,-0.01 0.18,-0.02 0.28,-0.02c0.21,0 0.37,0.05 0.48,0.14c0.11,0.1 0.16,0.24 0.16,0.42l0,0.06c-0.06,-0.03 -0.13,-0.04 -0.2,-0.06c-0.07,-0.02 -0.15,-0.03 -0.24,-0.04c-0.08,-0.01 -0.18,-0.02 -0.29,-0.02c-0.15,0 -0.29,0.02 -0.42,0.06c-0.13,0.03 -0.25,0.09 -0.35,0.16c-0.1,0.06 -0.16,0.16 -0.22,0.26c-0.05,0.11 -0.07,0.24 -0.08,0.38c0,0.15 0.03,0.26 0.07,0.36c0.06,0.1 0.13,0.18 0.21,0.25c0.09,0.07 0.19,0.13 0.3,0.16c0.11,0.04 0.23,0.06 0.36,0.06c0.13,0 0.25,-0.02 0.35,-0.06c0.11,-0.03 0.2,-0.07 0.29,-0.13c0.08,-0.06 0.15,-0.13 0.21,-0.19l0,0.32l0.6,0l0.02,0.01zm-0.59,-0.95c0,0.11 -0.03,0.2 -0.09,0.29c-0.06,0.08 -0.15,0.14 -0.25,0.19c-0.11,0.04 -0.22,0.07 -0.36,0.07c-0.1,0 -0.18,-0.02 -0.26,-0.05c-0.08,-0.03 -0.14,-0.07 -0.18,-0.13c-0.05,-0.06 -0.07,-0.13 -0.07,-0.21c0,-0.09 0.02,-0.17 0.07,-0.23c0.05,-0.06 0.12,-0.11 0.21,-0.14c0.09,-0.03 0.2,-0.04 0.33,-0.04c0.12,0 0.23,0 0.33,0.03c0.11,0.02 0.2,0.04 0.28,0.07l0,0.16l-0.01,-0.01zm1.34,0.95l0.6,0l0,-3.65l-0.6,0l0,3.65zm3.61,0l0,-1.57c0,-0.24 -0.04,-0.43 -0.13,-0.6c-0.08,-0.17 -0.21,-0.29 -0.39,-0.38c-0.17,-0.09 -0.38,-0.13 -0.64,-0.13c-0.15,0 -0.28,0.01 -0.39,0.03c-0.12,0.02 -0.22,0.04 -0.32,0.08c-0.1,0.03 -0.2,0.06 -0.3,0.11l0.17,0.49c0.07,-0.03 0.16,-0.06 0.24,-0.09c0.07,-0.03 0.16,-0.05 0.24,-0.06c0.08,-0.01 0.17,-0.02 0.27,-0.02c0.22,0 0.38,0.05 0.48,0.14c0.12,0.1 0.17,0.24 0.17,0.42l0,0.06c-0.07,-0.03 -0.14,-0.04 -0.2,-0.06c-0.07,-0.02 -0.16,-0.03 -0.24,-0.04c-0.08,-0.01 -0.18,-0.02 -0.29,-0.02c-0.15,0 -0.3,0.02 -0.43,0.06c-0.13,0.03 -0.24,0.09 -0.34,0.16c-0.1,0.06 -0.17,0.16 -0.22,0.26c-0.05,0.11 -0.08,0.24 -0.09,0.38c0,0.15 0.03,0.26 0.08,0.36c0.05,0.1 0.12,0.18 0.21,0.25c0.09,0.07 0.19,0.13 0.29,0.16c0.12,0.04 0.23,0.06 0.36,0.06c0.14,0 0.25,-0.02 0.36,-0.06c0.11,-0.03 0.2,-0.07 0.28,-0.13c0.09,-0.06 0.15,-0.13 0.22,-0.19l0,0.32l0.6,0l0.01,0.01zm-0.58,-0.95c0,0.11 -0.03,0.2 -0.1,0.29c-0.06,0.08 -0.14,0.14 -0.25,0.19c-0.1,0.04 -0.22,0.07 -0.35,0.07c-0.1,0 -0.19,-0.02 -0.26,-0.05c-0.08,-0.03 -0.14,-0.07 -0.19,-0.13c-0.04,-0.06 -0.07,-0.13 -0.07,-0.21c0,-0.09 0.03,-0.17 0.08,-0.23c0.05,-0.06 0.12,-0.11 0.21,-0.14c0.09,-0.03 0.19,-0.04 0.32,-0.04c0.13,0 0.23,0 0.34,0.03c0.11,0.02 0.19,0.04 0.27,0.07l0,0.16l0,-0.01zm1.3,0.95l0.6,0l0,-1.48c0,-0.14 0.02,-0.26 0.07,-0.36c0.05,-0.09 0.11,-0.17 0.2,-0.22c0.08,-0.06 0.18,-0.08 0.3,-0.09c0.16,0 0.29,0.06 0.39,0.17c0.09,0.11 0.14,0.27 0.15,0.47l0,1.51l0.6,0l0,-1.49c0,-0.15 0.02,-0.26 0.07,-0.36c0.05,-0.1 0.12,-0.17 0.2,-0.22c0.09,-0.06 0.19,-0.08 0.3,-0.08c0.17,0 0.3,0.06 0.4,0.17c0.09,0.11 0.13,0.27 0.13,0.48l0,1.5l0.61,0l0,-1.68c0,-0.22 -0.04,-0.4 -0.12,-0.55c-0.07,-0.15 -0.18,-0.27 -0.32,-0.34c-0.14,-0.08 -0.3,-0.12 -0.49,-0.13c-0.13,0 -0.26,0.03 -0.36,0.06c-0.11,0.04 -0.21,0.1 -0.3,0.16c-0.09,0.07 -0.17,0.16 -0.24,0.25c-0.04,-0.09 -0.1,-0.18 -0.18,-0.25c-0.07,-0.06 -0.16,-0.12 -0.26,-0.16c-0.1,-0.03 -0.21,-0.06 -0.34,-0.06c-0.14,0 -0.25,0.03 -0.35,0.07c-0.1,0.05 -0.19,0.1 -0.26,0.17c-0.08,0.07 -0.14,0.14 -0.19,0.22l0,-0.4l-0.6,0l0,2.64l-0.01,0zm4.72,0l0.66,0l0,-0.68l-0.66,0l0,0.68zm2.5,0.06c0.17,0 0.32,-0.02 0.45,-0.06c0.13,-0.04 0.25,-0.1 0.35,-0.17c0.1,-0.08 0.2,-0.16 0.29,-0.26l-0.37,-0.36c-0.06,0.07 -0.13,0.12 -0.2,0.17c-0.07,0.05 -0.14,0.09 -0.23,0.12c-0.07,0.03 -0.16,0.04 -0.26,0.04c-0.11,0 -0.22,-0.02 -0.32,-0.06c-0.09,-0.05 -0.18,-0.11 -0.25,-0.19c-0.07,-0.07 -0.12,-0.17 -0.16,-0.27c-0.04,-0.1 -0.06,-0.22 -0.06,-0.33c0,-0.13 0.02,-0.24 0.06,-0.34c0.03,-0.09 0.09,-0.19 0.16,-0.26c0.06,-0.08 0.15,-0.14 0.24,-0.18c0.09,-0.05 0.19,-0.07 0.3,-0.07c0.1,0 0.19,0.01 0.28,0.04c0.08,0.03 0.15,0.07 0.22,0.12c0.07,0.04 0.13,0.1 0.19,0.17l0.37,-0.4c-0.08,-0.09 -0.17,-0.17 -0.27,-0.24c-0.1,-0.07 -0.21,-0.12 -0.34,-0.16c-0.13,-0.04 -0.28,-0.06 -0.45,-0.06c-0.19,0 -0.38,0.04 -0.54,0.11c-0.17,0.07 -0.32,0.17 -0.44,0.29c-0.12,0.13 -0.22,0.28 -0.29,0.45c-0.07,0.16 -0.1,0.34 -0.11,0.53c0,0.2 0.04,0.37 0.11,0.54c0.07,0.17 0.16,0.31 0.28,0.44c0.13,0.12 0.27,0.22 0.44,0.29c0.17,0.07 0.35,0.11 0.54,0.11l0.01,-0.01zm2.82,0c0.2,0 0.39,-0.04 0.56,-0.1c0.18,-0.07 0.32,-0.17 0.45,-0.3c0.13,-0.13 0.23,-0.28 0.3,-0.44c0.07,-0.16 0.1,-0.34 0.1,-0.53c0,-0.2 -0.03,-0.38 -0.1,-0.54c-0.07,-0.17 -0.17,-0.31 -0.29,-0.44c-0.13,-0.12 -0.28,-0.22 -0.44,-0.29c-0.17,-0.07 -0.36,-0.11 -0.57,-0.11c-0.2,0 -0.39,0.04 -0.56,0.11c-0.18,0.07 -0.32,0.17 -0.45,0.29c-0.13,0.13 -0.23,0.28 -0.3,0.45c-0.07,0.16 -0.11,0.34 -0.11,0.53c0,0.2 0.04,0.37 0.11,0.54c0.07,0.17 0.17,0.31 0.29,0.44c0.13,0.12 0.27,0.22 0.44,0.29c0.17,0.07 0.36,0.11 0.56,0.11l0.01,-0.01zm0.01,-0.52c-0.12,0 -0.23,-0.03 -0.33,-0.07c-0.1,-0.05 -0.18,-0.11 -0.26,-0.19c-0.06,-0.07 -0.13,-0.16 -0.16,-0.27c-0.04,-0.1 -0.06,-0.21 -0.06,-0.33c0,-0.13 0.02,-0.23 0.05,-0.33c0.04,-0.1 0.09,-0.19 0.16,-0.27c0.07,-0.08 0.15,-0.14 0.25,-0.18c0.1,-0.05 0.21,-0.07 0.33,-0.07c0.12,0 0.23,0.02 0.33,0.07c0.1,0.04 0.18,0.1 0.26,0.18c0.06,0.08 0.12,0.17 0.16,0.27c0.04,0.1 0.06,0.21 0.06,0.32c0,0.13 -0.02,0.24 -0.05,0.34c-0.04,0.1 -0.09,0.19 -0.16,0.27c-0.07,0.07 -0.15,0.13 -0.25,0.18c-0.1,0.05 -0.21,0.07 -0.34,0.07l0.01,0.01zm2.02,0.46l0.6,0l0,-1.48c0,-0.14 0.03,-0.26 0.07,-0.36c0.05,-0.09 0.12,-0.17 0.2,-0.22c0.08,-0.06 0.18,-0.08 0.3,-0.09c0.16,0 0.29,0.06 0.39,0.17c0.09,0.11 0.14,0.27 0.15,0.47l0,1.51l0.6,0l0,-1.49c0,-0.15 0.02,-0.26 0.08,-0.36c0.04,-0.1 0.11,-0.17 0.19,-0.22c0.09,-0.06 0.19,-0.08 0.3,-0.08c0.17,0 0.31,0.06 0.4,0.17c0.09,0.11 0.13,0.27 0.13,0.48l0,1.5l0.61,0l0,-1.68c0,-0.22 -0.04,-0.4 -0.12,-0.55c-0.07,-0.15 -0.18,-0.27 -0.32,-0.34c-0.13,-0.08 -0.3,-0.12 -0.49,-0.13c-0.13,0 -0.25,0.03 -0.36,0.06c-0.11,0.04 -0.21,0.1 -0.3,0.16c-0.09,0.07 -0.17,0.16 -0.23,0.25c-0.05,-0.09 -0.11,-0.18 -0.19,-0.25c-0.07,-0.06 -0.16,-0.12 -0.26,-0.16c-0.1,-0.03 -0.21,-0.06 -0.34,-0.06c-0.14,0 -0.25,0.03 -0.35,0.07c-0.1,0.05 -0.19,0.1 -0.26,0.17c-0.08,0.07 -0.14,0.14 -0.2,0.22l0,-0.4l-0.6,0l0,2.64z" fill="white" id="svg_7"/>
  </g>
 </g>
</svg>