<svg width="353" height="73" viewBox="0 0 353 73" fill="none" xmlns="http://www.w3.org/2000/svg">
<g clip-path="url(#clip0_210_32694)">
<path d="M142.371 26.8097C142.371 23.5861 141.022 21.5895 137.342 21.5895C133.661 21.5895 132.312 23.5861 132.312 26.8097V35.3907C132.312 37.2044 132.914 39.9327 136.077 39.9327C139.239 39.9327 141.51 37.5855 142.364 34.1561V26.8173L142.371 26.8097ZM318.586 24.1653C320.644 22.4735 322.93 21.3304 325.43 21.3913C328.112 21.4523 329.233 23.5861 329.233 26.0324V43.0191C329.233 45.1148 330.932 46.3798 333.035 46.3798C335.139 46.3798 336.838 45.1148 336.838 43.0191V25.9409C336.838 19.6995 334.407 13.9763 327.335 13.9763C323.136 13.9763 319.669 16.1101 317.001 18.2516C315.294 15.2718 312.452 13.9763 309.19 13.9763C305.357 13.9763 302.69 15.6072 300.472 17.1923C300.396 15.1804 298.727 13.9763 296.677 13.9763C294.627 13.9763 292.874 15.2414 292.874 17.3371V43.0191C292.874 45.1148 294.573 46.3798 296.677 46.3798C298.78 46.3798 300.48 45.1148 300.48 43.0191V24.1653C302.545 22.4659 304.785 21.3227 307.293 21.3837C309.602 21.4371 311.057 23.2584 311.057 25.4913V43.0115C311.057 45.1072 312.757 46.3722 314.86 46.3722C316.963 46.3722 318.663 45.1072 318.663 43.0115V25.5599C318.663 25.1103 318.632 24.6073 318.594 24.15L318.586 24.1653ZM279.629 26.8097C279.629 23.5861 278.28 21.5895 274.599 21.5895C270.919 21.5895 269.57 23.5861 269.57 26.8097V35.3907C269.57 37.2044 270.172 39.9327 273.334 39.9327C276.497 39.9327 278.768 37.5855 279.621 34.1561V26.8173L279.629 26.8097ZM287.227 26.8097V43.0267C287.227 45.13 285.528 46.3875 283.424 46.3875C281.321 46.3875 279.621 45.1224 279.621 43.0267V42.4399C277.503 45.3968 275.491 46.3798 272.085 46.3951C265.881 46.4256 261.964 42.4704 261.964 35.3983V26.8173C261.964 18.3659 266.636 14.6241 274.592 14.6241C282.548 14.6241 287.219 18.3659 287.219 26.8173L287.227 26.8097ZM235.429 26.8097C235.429 23.5861 234.08 21.5895 230.399 21.5895C226.718 21.5895 225.369 23.5861 225.369 26.8097V35.3907C225.369 37.2044 225.971 39.9327 229.134 39.9327C232.296 39.9327 234.567 37.5855 235.421 34.1561V26.8173L235.429 26.8097ZM243.027 26.8097V43.0267C243.027 45.13 241.327 46.3875 239.224 46.3875C237.12 46.3875 235.421 45.1224 235.421 43.0267V42.4399C233.302 45.3968 231.291 46.3798 227.884 46.3951C221.681 46.4256 217.764 42.4704 217.764 35.3983V26.8173C217.764 18.3659 222.435 14.6241 230.391 14.6241C238.347 14.6241 243.019 18.3659 243.019 26.8173L243.027 26.8097ZM204.595 45.2672V42.4323C202.476 45.3891 200.464 46.3722 197.058 46.3875C190.855 46.418 186.938 42.4628 186.938 35.3907V26.8097C186.938 18.3583 191.609 14.6165 199.565 14.6165C207.521 14.6165 212.193 18.3583 212.193 26.8097V45.2672C212.193 55.4181 205.54 59.8077 197.896 59.8077H194.01C192.082 59.8077 190.527 58.2454 190.527 56.325C190.527 54.4045 192.089 52.8423 194.01 52.8423H197.896C202.217 52.8423 204.595 49.9921 204.595 45.2748V45.2672ZM204.595 26.8097C204.595 23.5861 203.246 21.5895 199.565 21.5895C195.884 21.5895 194.536 23.5861 194.536 26.8097V35.3907C194.536 37.2044 195.138 39.9327 198.3 39.9327C201.463 39.9327 203.734 37.5855 204.587 34.1561V26.8173L204.595 26.8097ZM171.909 13.9763C168.076 13.9763 165.409 15.6072 163.191 17.1923C163.115 15.1804 161.446 13.9763 159.396 13.9763C157.346 13.9763 155.593 15.2414 155.593 17.3371V43.0191C155.593 45.1148 157.293 46.3798 159.396 46.3798C161.499 46.3798 163.199 45.1148 163.199 43.0191V24.1653C165.264 22.4659 167.505 21.3227 170.012 21.3837C172.321 21.4371 173.777 23.3346 173.777 25.5675V43.0191C173.777 45.1148 175.476 46.3798 177.579 46.3798C179.683 46.3798 181.382 45.1148 181.382 43.0191V24.996C181.382 18.785 178.486 13.9763 171.917 13.9763H171.909ZM248.795 43.0191C248.795 45.1148 250.495 46.3798 252.598 46.3798C254.702 46.3798 256.401 45.1148 256.401 43.0191V4.16838C256.401 2.06504 254.702 0.807617 252.598 0.807617C250.495 0.807617 248.795 2.07267 248.795 4.16838V43.0191ZM100.823 24.1653C102.88 22.4735 105.167 21.3304 107.666 21.3913C110.349 21.4523 111.469 23.5861 111.469 26.0324V43.0191C111.469 45.1148 113.169 46.3798 115.272 46.3798C117.375 46.3798 119.075 45.1148 119.075 43.0191V25.9409C119.075 19.6995 116.644 13.9763 109.571 13.9763C105.372 13.9763 101.905 16.1101 99.2377 18.2516C97.5307 15.2718 94.6881 13.9763 91.4264 13.9763C87.5932 13.9763 84.9259 15.6072 82.7083 17.1923C82.6321 15.1804 80.9631 13.9763 78.9131 13.9763C76.8631 13.9763 75.1104 15.2414 75.1104 17.3371V43.0191C75.1104 45.1148 76.8098 46.3798 78.9131 46.3798C81.0165 46.3798 82.7159 45.1148 82.7159 43.0191V24.1653C84.7811 22.4659 87.0216 21.3227 89.5289 21.3837C91.838 21.4371 93.2935 23.2584 93.2935 25.4913V43.0115C93.2935 45.1072 94.993 46.3722 97.0963 46.3722C99.1996 46.3722 100.899 45.1072 100.899 43.0115V25.5599C100.899 25.1103 100.869 24.6073 100.83 24.15L100.823 24.1653ZM149.977 26.8097V43.0267C149.977 45.13 148.277 46.3875 146.174 46.3875C144.071 46.3875 142.371 45.1224 142.371 43.0267V42.4399C140.253 45.3968 138.241 46.3798 134.834 46.3951C128.631 46.4256 124.714 42.4704 124.714 35.3983V26.8173C124.714 18.3659 129.386 14.6241 137.342 14.6241C145.298 14.6241 149.969 18.3659 149.969 26.8173L149.977 26.8097Z" fill="white"/>
<path fill-rule="evenodd" clip-rule="evenodd" d="M56.3099 39.9176L50.0152 26.4136L43.7204 39.9176C43.2556 40.8626 42.9888 41.9219 42.9888 43.0421C42.9888 46.9287 46.1362 50.0761 50.0228 50.0761C53.9094 50.0761 57.0568 46.9287 57.0568 43.0421C57.0568 41.9142 56.7901 40.8549 56.3252 39.91L56.3099 39.9176Z" fill="#0072BC"/>
<path fill-rule="evenodd" clip-rule="evenodd" d="M0.663018 40.0777L12.5438 14.5938C14.1823 11.073 18.3661 9.54885 21.8869 11.1949C25.4077 12.8334 26.9318 17.0172 25.2857 20.538L13.405 46.0219C11.7665 49.5427 7.58268 51.0668 4.06188 49.4207C0.541086 47.7823 -0.98307 43.5985 0.663018 40.0777Z" fill="#C4122F"/>
<path fill-rule="evenodd" clip-rule="evenodd" d="M22.1536 40.0777L34.0343 14.5938C35.6728 11.073 39.8566 9.54885 43.3774 11.1949C46.8982 12.8334 48.4224 17.0172 46.7763 20.538L34.8955 46.0219C33.257 49.5427 29.0732 51.0668 25.5524 49.4207C22.0316 47.7823 20.5075 43.5985 22.1536 40.0777Z" fill="#F58220"/>
<path d="M9.75458 56.851H10.3566V55.365C10.3566 55.2278 10.3795 55.1059 10.4252 55.0144C10.4709 54.9154 10.5395 54.8392 10.6233 54.7858C10.7072 54.7325 10.8062 54.7096 10.9206 54.702C11.0882 54.702 11.2178 54.7553 11.3168 54.8696C11.4083 54.9763 11.454 55.1364 11.4616 55.3421V56.851H12.0637V55.3574C12.0637 55.2126 12.0865 55.0983 12.1399 54.9992C12.1856 54.9001 12.2542 54.8315 12.338 54.7782C12.4218 54.7248 12.5209 54.702 12.6276 54.702C12.7953 54.702 12.9324 54.7553 13.0239 54.8696C13.1153 54.9763 13.1611 55.1364 13.1611 55.3497V56.851H13.7631V55.1668C13.7631 54.9535 13.725 54.7706 13.6488 54.6181C13.5726 54.4657 13.4659 54.3514 13.3287 54.2752C13.1915 54.199 13.0239 54.1609 12.8334 54.1533C12.7038 54.1533 12.5819 54.1761 12.4752 54.2142C12.3685 54.2524 12.2694 54.3057 12.178 54.3743C12.0865 54.4429 12.0103 54.5267 11.9417 54.6181C11.896 54.5267 11.835 54.4429 11.7588 54.3743C11.6826 54.3057 11.5988 54.2524 11.4997 54.2142C11.4007 54.1761 11.2864 54.1533 11.1568 54.1533C11.0196 54.1533 10.9053 54.1761 10.8062 54.2219C10.7072 54.2676 10.6233 54.3209 10.5471 54.3895C10.4709 54.4581 10.41 54.5343 10.3566 54.6105V54.2066H9.75458V56.851ZM16.72 56.851V55.2812C16.72 55.0449 16.6742 54.8468 16.5904 54.6791C16.5066 54.5115 16.377 54.3895 16.2018 54.2981C16.0265 54.2066 15.8131 54.1685 15.554 54.1685C15.4092 54.1685 15.2796 54.1761 15.1653 54.199C15.051 54.2142 14.9443 54.2447 14.8453 54.2752C14.7462 54.3057 14.6471 54.3438 14.548 54.3895L14.7157 54.8773C14.7919 54.8468 14.8757 54.8163 14.9519 54.7858C15.0282 54.7629 15.112 54.7401 15.1958 54.7325C15.2796 54.7172 15.3711 54.7096 15.4702 54.7096C15.6835 54.7096 15.8436 54.7553 15.9503 54.8544C16.0646 54.9535 16.1179 55.0906 16.1179 55.2735V55.3269C16.0493 55.304 15.9808 55.2888 15.9122 55.2659C15.8436 55.2507 15.7597 55.2354 15.6759 55.2278C15.5921 55.2202 15.493 55.2126 15.3863 55.2126C15.2339 55.2126 15.0891 55.2278 14.9596 55.2659C14.83 55.304 14.7157 55.3574 14.6166 55.4259C14.5176 55.4945 14.449 55.586 14.3956 55.6927C14.3423 55.7994 14.3194 55.9289 14.3118 56.0737C14.3118 56.2185 14.3347 56.3328 14.388 56.4319C14.4414 56.531 14.5099 56.6148 14.5938 56.6834C14.6852 56.752 14.7843 56.8053 14.891 56.8434C15.0053 56.8815 15.1196 56.8968 15.2492 56.8968C15.3863 56.8968 15.5006 56.8815 15.6073 56.8434C15.714 56.8129 15.8055 56.7672 15.8893 56.7062C15.9731 56.6453 16.0417 56.5843 16.1027 56.5157V56.8434H16.7047L16.72 56.851ZM16.1332 55.8984C16.1332 56.0128 16.1027 56.1042 16.0417 56.188C15.9808 56.2719 15.8969 56.3328 15.7902 56.3785C15.6835 56.4243 15.5692 56.4471 15.4321 56.4471C15.333 56.4471 15.2492 56.4319 15.1729 56.4014C15.0967 56.3709 15.0358 56.3252 14.9901 56.2719C14.9443 56.2109 14.9215 56.1423 14.9215 56.0585C14.9215 55.967 14.9443 55.8908 14.9977 55.8298C15.0434 55.7689 15.112 55.7232 15.2034 55.6927C15.2949 55.6622 15.4016 55.647 15.5311 55.647C15.6531 55.647 15.7597 55.6546 15.8664 55.6774C15.9731 55.7003 16.057 55.7232 16.1408 55.7536V55.9061L16.1332 55.8984ZM17.4439 56.851H18.046V55.3574C18.046 55.2202 18.0688 55.0983 18.1222 55.0068C18.1755 54.9077 18.2441 54.8315 18.3279 54.7858C18.4194 54.7325 18.5185 54.7096 18.6404 54.7096C18.8233 54.7096 18.9605 54.7706 19.0595 54.8773C19.1586 54.9916 19.2043 55.144 19.2043 55.3574V56.8587H19.8064V55.1745C19.8064 54.9687 19.7683 54.7858 19.6921 54.6334C19.6159 54.481 19.5092 54.3667 19.372 54.2828C19.2348 54.199 19.0595 54.1533 18.8614 54.1533C18.7242 54.1533 18.6023 54.1761 18.5032 54.2219C18.4042 54.2676 18.3127 54.3209 18.2365 54.3895C18.1603 54.4581 18.0917 54.5343 18.0384 54.6181V54.2066H17.4363V56.851H17.4439ZM21.7192 57.6588C21.9554 57.6588 22.1688 57.6284 22.3517 57.575C22.5346 57.514 22.687 57.4302 22.809 57.3083C22.9157 57.2016 22.9995 57.0644 23.0605 56.8968C23.1138 56.7291 23.1443 56.5386 23.1443 56.3176V54.2142H22.5422V54.6105C22.4737 54.5267 22.3974 54.4505 22.3136 54.3819C22.2298 54.3133 22.1231 54.26 22.0164 54.2219C21.9021 54.1838 21.7725 54.1609 21.6201 54.1609C21.4982 54.1609 21.3763 54.1761 21.2619 54.2142C21.1476 54.2524 21.0333 54.3057 20.9343 54.3743C20.8352 54.4429 20.7437 54.5267 20.6675 54.6258C20.5913 54.7248 20.5304 54.8392 20.4846 54.9687C20.4389 55.0983 20.416 55.243 20.416 55.3955C20.416 55.5631 20.4389 55.7003 20.4846 55.8298C20.5304 55.9594 20.5837 56.0737 20.6675 56.1728C20.7437 56.2719 20.8352 56.3557 20.9343 56.4243C21.0333 56.4929 21.1476 56.5462 21.2619 56.5843C21.3763 56.6224 21.4982 56.6377 21.6277 56.6377C21.7725 56.6377 21.9021 56.6148 22.0164 56.5767C22.1307 56.5386 22.2298 56.4776 22.3212 56.409C22.4127 56.3404 22.4889 56.249 22.5651 56.1575V56.3633C22.5651 56.63 22.4889 56.8282 22.3517 56.9653C22.2069 57.1025 22.0012 57.1711 21.7344 57.1711C21.5515 57.1711 21.3915 57.1482 21.2315 57.0949C21.079 57.0492 20.9266 56.9806 20.7895 56.8891L20.5608 57.3464C20.7285 57.4455 20.919 57.5293 21.1172 57.5826C21.3153 57.636 21.5287 57.6665 21.7421 57.6665L21.7192 57.6588ZM21.7725 56.1347C21.6658 56.1347 21.5744 56.1194 21.483 56.0813C21.3915 56.0432 21.3153 55.9975 21.2467 55.9289C21.1781 55.8603 21.1248 55.7841 21.0867 55.7003C21.0486 55.6088 21.0257 55.5098 21.0257 55.4031C21.0257 55.2812 21.0486 55.1821 21.0867 55.0983C21.1248 55.0068 21.1781 54.9306 21.2467 54.8696C21.3153 54.8087 21.3915 54.7553 21.483 54.7248C21.5744 54.6944 21.6735 54.6715 21.7802 54.6715C21.8869 54.6715 21.9859 54.6867 22.0774 54.7248C22.1688 54.7629 22.2527 54.8087 22.3212 54.8773C22.3898 54.9382 22.4508 55.022 22.4889 55.1059C22.527 55.1973 22.5499 55.2964 22.5499 55.4031C22.5499 55.5174 22.527 55.6165 22.4889 55.7079C22.4508 55.7994 22.3898 55.8756 22.3212 55.9365C22.2527 56.0051 22.1688 56.0509 22.0774 56.089C21.9859 56.1271 21.8869 56.1423 21.7802 56.1423L21.7725 56.1347ZM26.1164 56.851V55.2812C26.1164 55.0449 26.0707 54.8468 25.9868 54.6791C25.903 54.5115 25.7734 54.3895 25.5982 54.2981C25.4229 54.2066 25.2095 54.1685 24.9504 54.1685C24.8056 54.1685 24.6761 54.1761 24.5617 54.199C24.4474 54.2142 24.3407 54.2447 24.2417 54.2752C24.1426 54.3057 24.0435 54.3438 23.9445 54.3895L24.1121 54.8773C24.1883 54.8468 24.2722 54.8163 24.3484 54.7858C24.4246 54.7629 24.5084 54.7401 24.5922 54.7325C24.6761 54.7172 24.7675 54.7096 24.8666 54.7096C25.08 54.7096 25.24 54.7553 25.3467 54.8544C25.461 54.9535 25.5143 55.0906 25.5143 55.2735V55.3269C25.4458 55.304 25.3772 55.2888 25.3086 55.2659C25.24 55.2507 25.1562 55.2354 25.0723 55.2278C24.9885 55.2202 24.8894 55.2126 24.7827 55.2126C24.6303 55.2126 24.4855 55.2278 24.356 55.2659C24.2264 55.304 24.1121 55.3574 24.013 55.4259C23.914 55.4945 23.8454 55.586 23.792 55.6927C23.7387 55.7994 23.7158 55.9289 23.7082 56.0737C23.7082 56.2185 23.7387 56.3328 23.7844 56.4319C23.8378 56.531 23.9064 56.6148 23.9902 56.6834C24.0816 56.752 24.1807 56.8053 24.2874 56.8434C24.4017 56.8815 24.516 56.8968 24.6456 56.8968C24.7827 56.8968 24.8971 56.8815 25.0038 56.8434C25.1104 56.8129 25.2019 56.7672 25.2857 56.7062C25.3695 56.6453 25.4381 56.5843 25.4991 56.5157V56.8434H26.1011L26.1164 56.851ZM25.5296 55.8984C25.5296 56.0128 25.4991 56.1042 25.4381 56.188C25.3772 56.2719 25.2933 56.3328 25.1866 56.3785C25.08 56.4243 24.9656 56.4471 24.8285 56.4471C24.7294 56.4471 24.6456 56.4319 24.5694 56.4014C24.4932 56.3709 24.4322 56.3252 24.3865 56.2719C24.3407 56.2109 24.3179 56.1423 24.3179 56.0585C24.3179 55.967 24.3407 55.8908 24.3941 55.8298C24.4398 55.7689 24.5084 55.7232 24.5998 55.6927C24.6913 55.6622 24.798 55.647 24.9275 55.647C25.0495 55.647 25.1562 55.6546 25.2629 55.6774C25.3695 55.7003 25.461 55.7232 25.5372 55.7536V55.9061L25.5296 55.8984ZM26.8708 56.851H27.4729V53.2007H26.8708V56.851ZM30.4831 56.851V55.2812C30.4831 55.0449 30.4374 54.8468 30.3535 54.6791C30.2697 54.5115 30.1402 54.3895 29.9649 54.2981C29.7896 54.2066 29.5762 54.1685 29.3171 54.1685C29.1723 54.1685 29.0428 54.1761 28.9284 54.199C28.8141 54.2219 28.7074 54.2447 28.6084 54.2752C28.5093 54.3057 28.4102 54.3438 28.3112 54.3895L28.4788 54.8773C28.555 54.8468 28.6389 54.8163 28.7151 54.7858C28.7913 54.7629 28.8751 54.7401 28.9589 54.7325C29.0428 54.7172 29.1342 54.7096 29.2333 54.7096C29.4467 54.7096 29.6067 54.7553 29.7134 54.8544C29.8277 54.9535 29.881 55.0906 29.881 55.2735V55.3269C29.8125 55.304 29.7439 55.2888 29.6753 55.2659C29.6067 55.2507 29.5229 55.2354 29.439 55.2278C29.3552 55.2202 29.2561 55.2126 29.1495 55.2126C28.997 55.2126 28.8522 55.2278 28.7227 55.2659C28.5931 55.304 28.4788 55.3574 28.3798 55.4259C28.2807 55.4945 28.2121 55.586 28.1588 55.6927C28.1054 55.7994 28.0825 55.9289 28.0749 56.0737C28.0749 56.2185 28.0978 56.3328 28.1511 56.4319C28.2045 56.531 28.2731 56.6148 28.3569 56.6834C28.4483 56.752 28.5474 56.8053 28.6541 56.8434C28.7684 56.8815 28.8827 56.8968 29.0123 56.8968C29.1495 56.8968 29.2638 56.8815 29.3705 56.8434C29.4771 56.8129 29.5686 56.7672 29.6524 56.7062C29.7363 56.6453 29.8048 56.5843 29.8658 56.5157V56.8434H30.4678L30.4831 56.851ZM29.8963 55.8984C29.8963 56.0128 29.8658 56.1042 29.8048 56.188C29.7439 56.2719 29.66 56.3328 29.5534 56.3785C29.4467 56.4243 29.3324 56.4471 29.1952 56.4471C29.0961 56.4471 29.0123 56.4319 28.9361 56.4014C28.8599 56.3709 28.7989 56.3252 28.7532 56.2719C28.7074 56.2109 28.6846 56.1423 28.6846 56.0585C28.6846 55.967 28.7074 55.8908 28.7608 55.8298C28.8065 55.7689 28.8751 55.7232 28.9666 55.6927C29.058 55.6622 29.1647 55.647 29.2942 55.647C29.4162 55.647 29.5229 55.6546 29.6296 55.6774C29.7363 55.7003 29.8201 55.7232 29.9039 55.7536V55.9061L29.8963 55.8984ZM31.1994 56.851H31.8015V55.365C31.8015 55.2278 31.8243 55.1059 31.8701 55.0144C31.9158 54.9154 31.9844 54.8392 32.0682 54.7858C32.152 54.7325 32.2511 54.7096 32.3654 54.702C32.5331 54.702 32.6626 54.7553 32.7617 54.8696C32.8531 54.9763 32.8989 55.1364 32.9065 55.3421V56.851H33.5085V55.3574C33.5085 55.2126 33.5314 55.0983 33.5847 54.9992C33.6305 54.9001 33.6991 54.8315 33.7829 54.7782C33.8667 54.7248 33.9658 54.702 34.0801 54.702C34.2478 54.702 34.3849 54.7553 34.4764 54.8696C34.5678 54.9763 34.6135 55.1364 34.6135 55.3497V56.851H35.2156V55.1668C35.2156 54.9535 35.1775 54.7706 35.1013 54.6181C35.0251 54.4657 34.9184 54.3514 34.7812 54.2752C34.644 54.199 34.4764 54.1609 34.2859 54.1533C34.1563 54.1533 34.0344 54.1761 33.9277 54.2142C33.821 54.2524 33.7219 54.3057 33.6305 54.3743C33.539 54.4429 33.4628 54.5267 33.3942 54.6181C33.3485 54.5267 33.2875 54.4429 33.2113 54.3743C33.1351 54.3057 33.0513 54.2524 32.9522 54.2142C32.8531 54.1761 32.7388 54.1533 32.6093 54.1533C32.4721 54.1533 32.3578 54.1761 32.2587 54.2219C32.1597 54.2676 32.0682 54.3209 31.9996 54.3895C31.9234 54.4581 31.8624 54.5343 31.8091 54.6105V54.2066H31.2071V56.851H31.1994ZM35.9167 56.851H36.5797V56.1652H35.9167V56.851ZM38.4239 56.912C38.5916 56.912 38.744 56.8891 38.8736 56.851C39.0031 56.8129 39.1174 56.752 39.2241 56.6758C39.3232 56.5995 39.4223 56.5157 39.5061 56.4167L39.1403 56.0585C39.0793 56.1271 39.0107 56.1804 38.9421 56.2338C38.8736 56.2795 38.7974 56.3176 38.7135 56.3481C38.6373 56.3785 38.5459 56.3862 38.4544 56.3938C38.3401 56.3938 38.2334 56.3709 38.1343 56.3252C38.0353 56.2795 37.9514 56.2185 37.8829 56.1423C37.8143 56.0661 37.7609 55.9746 37.7228 55.868C37.6847 55.7689 37.6619 55.6546 37.6619 55.5403C37.6619 55.4107 37.6847 55.304 37.7152 55.2049C37.7533 55.1059 37.8067 55.0144 37.8752 54.9382C37.9438 54.862 38.0277 54.801 38.1191 54.7553C38.2106 54.7096 38.3096 54.6867 38.4239 54.6867C38.523 54.6867 38.6145 54.702 38.6983 54.7325C38.7821 54.7629 38.8507 54.801 38.9193 54.8468C38.9879 54.8925 39.0488 54.9535 39.1098 55.022L39.4832 54.6181C39.3994 54.5267 39.3079 54.4505 39.2089 54.3819C39.1098 54.3133 38.9955 54.26 38.8659 54.2219C38.7364 54.1838 38.5916 54.1609 38.4239 54.1609C38.2258 54.1609 38.0429 54.199 37.8752 54.2676C37.7076 54.3438 37.5628 54.4429 37.4409 54.5648C37.3189 54.6944 37.2199 54.8392 37.1513 55.0068C37.0827 55.1745 37.0522 55.3497 37.0446 55.5403C37.0446 55.7384 37.0827 55.9137 37.1513 56.0813C37.2199 56.249 37.3113 56.3862 37.4332 56.5157C37.5552 56.6377 37.7 56.7367 37.8676 56.8129C38.0353 56.8815 38.2182 56.9196 38.4087 56.9196L38.4239 56.912ZM41.236 56.912C41.4418 56.912 41.6323 56.8739 41.7999 56.8053C41.9752 56.7367 42.12 56.6377 42.2496 56.5081C42.3791 56.3785 42.4782 56.2337 42.5468 56.0737C42.6154 55.9061 42.6535 55.7308 42.6535 55.5403C42.6535 55.3421 42.6154 55.1592 42.5468 54.9992C42.4782 54.8315 42.3791 54.6867 42.2572 54.5648C42.1276 54.4429 41.9828 54.3438 41.8152 54.2676C41.6475 54.199 41.457 54.1609 41.2512 54.1609C41.0455 54.1609 40.8626 54.199 40.6873 54.2676C40.512 54.3362 40.3672 54.4352 40.2377 54.5648C40.1081 54.6944 40.0091 54.8392 39.9405 55.0068C39.8719 55.1745 39.8338 55.3497 39.8338 55.5403C39.8338 55.7384 39.8719 55.9137 39.9405 56.0813C40.0091 56.249 40.1081 56.3862 40.2301 56.5157C40.3596 56.6377 40.5044 56.7367 40.6721 56.8129C40.8397 56.8815 41.0302 56.9196 41.2284 56.9196L41.236 56.912ZM41.2512 56.3862C41.1293 56.3862 41.0226 56.3633 40.9235 56.3176C40.8245 56.2719 40.7407 56.2109 40.6644 56.1347C40.5959 56.0585 40.5349 55.967 40.4968 55.8603C40.4587 55.7613 40.4358 55.647 40.4358 55.5326C40.4358 55.4031 40.4587 55.2964 40.4892 55.1973C40.5273 55.0983 40.5806 55.0068 40.6492 54.9306C40.7178 54.8544 40.8016 54.7934 40.9007 54.7477C40.9998 54.702 41.1064 54.6791 41.2284 54.6791C41.3503 54.6791 41.457 54.702 41.5561 54.7477C41.6551 54.7934 41.739 54.8544 41.8152 54.9306C41.8838 55.0068 41.9447 55.0983 41.9828 55.1973C42.0209 55.2964 42.0438 55.4107 42.0438 55.525C42.0438 55.647 42.0209 55.7613 41.9905 55.8603C41.9524 55.9594 41.899 56.0509 41.8304 56.1271C41.7618 56.2033 41.678 56.2642 41.5789 56.31C41.4799 56.3557 41.3732 56.3785 41.2436 56.3785L41.2512 56.3862ZM43.2707 56.851H43.8728V55.365C43.8728 55.2278 43.8957 55.1059 43.9414 55.0144C43.9871 54.9154 44.0557 54.8392 44.1395 54.7858C44.2233 54.7325 44.3224 54.7096 44.4367 54.702C44.6044 54.702 44.7339 54.7553 44.833 54.8696C44.9245 54.9763 44.9702 55.1364 44.9778 55.3421V56.851H45.5798V55.3574C45.5798 55.2126 45.6027 55.0983 45.656 54.9992C45.7018 54.9001 45.7704 54.8315 45.8542 54.7782C45.938 54.7248 46.0371 54.702 46.1514 54.702C46.3191 54.702 46.4562 54.7553 46.5477 54.8696C46.6391 54.9763 46.6849 55.1364 46.6849 55.3497V56.851H47.2869V55.1668C47.2869 54.9535 47.2488 54.7706 47.1726 54.6181C47.0964 54.4657 46.9897 54.3514 46.8525 54.2752C46.7153 54.199 46.5477 54.1609 46.3572 54.1533C46.2276 54.1533 46.1057 54.1761 45.999 54.2142C45.8923 54.2524 45.7932 54.3057 45.7018 54.3743C45.6103 54.4429 45.5341 54.5267 45.4655 54.6181C45.4198 54.5267 45.3588 54.4429 45.2826 54.3743C45.2064 54.3057 45.1226 54.2524 45.0235 54.2142C44.9245 54.1761 44.8101 54.1533 44.6806 54.1533C44.5434 54.1533 44.4291 54.1761 44.33 54.2219C44.231 54.2676 44.1395 54.3209 44.0709 54.3895C43.9947 54.4581 43.9338 54.5343 43.8728 54.6105V54.2066H43.2707V56.851Z" fill="white"/>
</g>
<defs>
<clipPath id="clip0_210_32694">
<rect width="336.838" height="59" fill="white" transform="translate(0 0.807617)"/>
</clipPath>
</defs>
</svg>
