<svg width="22" height="15" viewBox="0 0 22 15" fill="none" xmlns="http://www.w3.org/2000/svg">
<g clip-path="url(#clip0_210_33252)">
<g clip-path="url(#clip1_210_33252)">
<path d="M16.029 2.9437C15.8604 2.76702 15.6573 2.62686 15.4323 2.5319C15.2073 2.43695 14.9652 2.38923 14.721 2.3917H12.1V2.3607C12.1016 2.17013 12.0647 1.98119 11.9915 1.80523C11.9183 1.62926 11.8103 1.4699 11.674 1.33671C11.5399 1.20163 11.3803 1.09443 11.2046 1.02132C11.0288 0.948202 10.8403 0.910608 10.65 0.910703H5.92599C5.73434 0.908988 5.54425 0.945206 5.36665 1.01727C5.18906 1.08933 5.02748 1.19582 4.89121 1.3306C4.75495 1.46537 4.6467 1.62578 4.57269 1.80257C4.49868 1.97936 4.46038 2.16905 4.45999 2.3607V2.3927H1.85999C1.61579 2.39023 1.37368 2.43795 1.14868 2.5329C0.923681 2.62786 0.720587 2.76802 0.551991 2.9447C0.203809 3.29119 0.00558669 3.76053 -9.47314e-06 4.2517V12.1007C-0.00275768 12.3452 0.0448287 12.5877 0.139791 12.8131C0.234753 13.0385 0.375061 13.2419 0.551991 13.4107C0.898722 13.7591 1.36847 13.9574 1.85999 13.9627H14.721C14.9652 13.9652 15.2073 13.9175 15.4323 13.8225C15.6573 13.7275 15.8604 13.5874 16.029 13.4107C16.3774 13.064 16.5757 12.5942 16.581 12.1027V4.2517C16.5835 4.0075 16.5357 3.76539 16.4408 3.54039C16.3458 3.3154 16.2057 3.1123 16.029 2.9437ZM15.761 12.1007H15.745C15.7453 12.2353 15.7189 12.3685 15.6676 12.4929C15.6162 12.6172 15.5408 12.7302 15.4457 12.8254C15.3505 12.9205 15.2375 12.9959 15.1132 13.0473C14.9888 13.0987 14.8555 13.125 14.721 13.1247H1.85999C1.72536 13.1251 1.59198 13.0989 1.4675 13.0476C1.34303 12.9963 1.22992 12.9209 1.13468 12.8257C1.03943 12.7306 0.963926 12.6175 0.912496 12.4931C0.861066 12.3687 0.834726 12.2353 0.834991 12.1007V4.2517C0.834726 4.11707 0.861066 3.98371 0.912496 3.85929C0.963926 3.73487 1.03943 3.62184 1.13468 3.52668C1.22992 3.43153 1.34303 3.35613 1.4675 3.30483C1.59198 3.25352 1.72536 3.22731 1.85999 3.2277H4.89999C4.95601 3.22797 5.01152 3.21713 5.06333 3.19582C5.11513 3.1745 5.1622 3.14313 5.20181 3.10352C5.24142 3.06391 5.27279 3.01684 5.2941 2.96504C5.31542 2.91323 5.32626 2.85772 5.32599 2.80171V2.3447C5.3229 2.26311 5.3367 2.18176 5.36651 2.10575C5.39633 2.02974 5.44152 1.9607 5.49925 1.90297C5.55699 1.84523 5.62602 1.80004 5.70204 1.77023C5.77805 1.74041 5.8594 1.72662 5.94099 1.7297H10.654C10.7356 1.72662 10.8169 1.74041 10.8929 1.77023C10.969 1.80004 11.038 1.84523 11.0957 1.90297C11.1535 1.9607 11.1987 2.02974 11.2285 2.10575C11.2583 2.18176 11.2721 2.26311 11.269 2.3447V2.80171C11.2687 2.85772 11.2796 2.91323 11.3009 2.96504C11.3222 3.01684 11.3536 3.06391 11.3932 3.10352C11.4328 3.14313 11.4799 3.1745 11.5317 3.19582C11.5835 3.21713 11.639 3.22797 11.695 3.2277H14.737C14.8715 3.22744 15.0048 3.25375 15.1292 3.30512C15.2535 3.35648 15.3665 3.4319 15.4617 3.52704C15.5568 3.62218 15.6322 3.73517 15.6836 3.85952C15.7349 3.98388 15.7613 4.11715 15.761 4.2517V12.1007Z" fill="white"/>
<path d="M8.29001 4.2998C7.39386 4.30035 6.52561 4.61155 5.83317 5.18042C5.14072 5.74929 4.66692 6.54061 4.49246 7.41962C4.318 8.29862 4.45368 9.21094 4.87639 10.0011C5.29909 10.7913 5.98267 11.4105 6.81069 11.7533C7.63871 12.096 8.55994 12.1411 9.41746 11.8808C10.275 11.6205 11.0158 11.071 11.5136 10.3259C12.0114 9.58073 12.2355 8.68604 12.1477 7.7942C12.0599 6.90237 11.6656 6.06855 11.032 5.4348C10.3043 4.70844 9.31821 4.30028 8.29001 4.2998ZM10.433 10.3358C9.86288 10.9012 9.09246 11.2185 8.28951 11.2185C7.48656 11.2185 6.71613 10.9012 6.14601 10.3358C5.86464 10.0546 5.64175 9.72041 5.4902 9.3526C5.33865 8.98479 5.26143 8.5906 5.26301 8.19279C5.26682 7.39039 5.58363 6.62116 6.14601 6.0488C6.42723 5.76743 6.76139 5.54454 7.1292 5.39299C7.49701 5.24144 7.8912 5.16422 8.28901 5.1658C9.09106 5.16988 9.85989 5.48666 10.432 6.0488C10.7135 6.33014 10.9365 6.66446 11.088 7.03246C11.2396 7.40045 11.3167 7.79482 11.315 8.19279C11.3205 8.59098 11.2452 8.98614 11.0938 9.35445C10.9424 9.72276 10.7179 10.0566 10.434 10.3358H10.433Z" fill="white"/>
<path d="M13.901 5.82769C14.3274 5.82769 14.673 5.48206 14.673 5.05569C14.673 4.62933 14.3274 4.28369 13.901 4.28369C13.4747 4.28369 13.129 4.62933 13.129 5.05569C13.129 5.48206 13.4747 5.82769 13.901 5.82769Z" fill="white"/>
</g>
</g>
<defs>
<clipPath id="clip0_210_33252">
<rect width="22" height="14" fill="white" transform="translate(0 0.910645)"/>
</clipPath>
<clipPath id="clip1_210_33252">
<rect width="16.581" height="13.051" fill="white" transform="translate(0 0.910645)"/>
</clipPath>
</defs>
</svg>
