<svg width="24" height="16" viewBox="0 0 24 16" fill="none" xmlns="http://www.w3.org/2000/svg">
<g clip-path="url(#clip0_210_31955)">
<g clip-path="url(#clip1_210_31955)">
<path d="M17.4325 2.45511C17.251 2.26492 17.0324 2.11404 16.7901 2.01182C16.5479 1.90961 16.2873 1.85824 16.0245 1.8609H13.2031V1.82753C13.2048 1.62238 13.1651 1.419 13.0863 1.22958C13.0075 1.04017 12.8912 0.868622 12.7445 0.725239C12.6001 0.579831 12.4284 0.464442 12.2392 0.385737C12.05 0.307031 11.8471 0.266562 11.6422 0.266664H6.55699C6.35068 0.264818 6.14605 0.303806 5.95488 0.38138C5.76371 0.458954 5.58977 0.573583 5.44309 0.718665C5.29641 0.863746 5.17988 1.03641 5.10021 1.22672C5.02054 1.41703 4.97931 1.62122 4.9789 1.82753V1.86198H2.1801C1.91723 1.85932 1.65661 1.91068 1.41441 2.0129C1.1722 2.11511 0.953579 2.26599 0.772092 2.45618C0.397288 2.82916 0.18391 3.33439 0.177886 3.86312V12.3123C0.174928 12.5755 0.226153 12.8365 0.328376 13.0791C0.430599 13.3217 0.581634 13.5407 0.772092 13.7224C1.14533 14.0975 1.651 14.3109 2.1801 14.3166H16.0245C16.2873 14.3193 16.5479 14.2679 16.7901 14.1657C17.0324 14.0635 17.251 13.9126 17.4325 13.7224C17.8075 13.3492 18.0209 12.8435 18.0267 12.3144V3.86312C18.0293 3.60024 17.978 3.33963 17.8757 3.09742C17.7735 2.85522 17.6227 2.6366 17.4325 2.45511ZM17.144 12.3123H17.1267C17.127 12.4571 17.0987 12.6006 17.0434 12.7344C16.9881 12.8683 16.9069 12.9899 16.8045 13.0923C16.7021 13.1947 16.5805 13.2759 16.4466 13.3312C16.3128 13.3865 16.1693 13.4148 16.0245 13.4145H2.1801C2.03518 13.415 1.89159 13.3868 1.75761 13.3315C1.62362 13.2763 1.50186 13.1951 1.39933 13.0927C1.2968 12.9903 1.21552 12.8686 1.16016 12.7347C1.1048 12.6007 1.07645 12.4572 1.07673 12.3123V3.86312C1.07645 3.71819 1.1048 3.57464 1.16016 3.4407C1.21552 3.30677 1.2968 3.18509 1.39933 3.08266C1.50186 2.98024 1.62362 2.89907 1.75761 2.84384C1.89159 2.78861 2.03518 2.7604 2.1801 2.76082H5.45254C5.51284 2.76111 5.5726 2.74944 5.62836 2.7265C5.68413 2.70355 5.7348 2.66978 5.77743 2.62714C5.82007 2.58451 5.85384 2.53384 5.87679 2.47808C5.89973 2.42231 5.9114 2.36255 5.91111 2.30225V1.81031C5.90779 1.72248 5.92264 1.63491 5.95473 1.55308C5.98683 1.47126 6.03547 1.39695 6.09762 1.3348C6.15977 1.27265 6.23409 1.224 6.31591 1.19191C6.39773 1.15981 6.4853 1.14496 6.57313 1.14829H11.6465C11.7343 1.14496 11.8219 1.15981 11.9037 1.19191C11.9855 1.224 12.0599 1.27265 12.122 1.3348C12.1842 1.39695 12.2328 1.47126 12.2649 1.55308C12.297 1.63491 12.3118 1.72248 12.3085 1.81031V2.30225C12.3082 2.36255 12.3199 2.42231 12.3428 2.47808C12.3658 2.53384 12.3995 2.58451 12.4422 2.62714C12.4848 2.66978 12.5355 2.70355 12.5913 2.7265C12.647 2.74944 12.7068 2.76111 12.7671 2.76082H16.0417C16.1865 2.76054 16.33 2.78886 16.4638 2.84415C16.5977 2.89945 16.7193 2.98063 16.8217 3.08305C16.9242 3.18546 17.0053 3.30709 17.0606 3.44095C17.1159 3.57482 17.1443 3.71828 17.144 3.86312V12.3123Z" fill="white"/>
<path d="M9.10175 3.91504C8.13708 3.91562 7.20245 4.25062 6.45706 4.86299C5.71167 5.47535 5.20164 6.32718 5.01384 7.27339C4.82605 8.2196 4.9721 9.20167 5.42713 10.0523C5.88215 10.9029 6.618 11.5694 7.50933 11.9384C8.40065 12.3073 9.39232 12.3559 10.3154 12.0757C11.2385 11.7955 12.0359 11.204 12.5718 10.4019C13.1077 9.59974 13.3489 8.63665 13.2544 7.67662C13.1599 6.71659 12.7355 5.81902 12.0534 5.13682C11.27 4.35492 10.2086 3.91555 9.10175 3.91504ZM11.4086 10.4125C10.7949 11.0212 9.96556 11.3627 9.10122 11.3627C8.23687 11.3627 7.40753 11.0212 6.79382 10.4125C6.49094 10.1098 6.25101 9.75011 6.08787 9.35417C5.92473 8.95824 5.84161 8.53391 5.84331 8.10569C5.84741 7.24193 6.18845 6.41388 6.79382 5.79776C7.09655 5.49488 7.45626 5.25495 7.85219 5.09181C8.24813 4.92867 8.67245 4.84555 9.10067 4.84725C9.96406 4.85164 10.7917 5.19264 11.4075 5.79776C11.7105 6.10061 11.9505 6.4605 12.1137 6.85663C12.2768 7.25276 12.3599 7.67728 12.358 8.10569C12.3639 8.53431 12.2829 8.95969 12.1199 9.35616C11.9569 9.75263 11.7153 10.112 11.4097 10.4125H11.4086Z" fill="white"/>
<path d="M15.1418 5.55952C15.6007 5.55952 15.9728 5.18745 15.9728 4.72849C15.9728 4.26952 15.6007 3.89746 15.1418 3.89746C14.6828 3.89746 14.3107 4.26952 14.3107 4.72849C14.3107 5.18745 14.6828 5.55952 15.1418 5.55952Z" fill="white"/>
</g>
</g>
<defs>
<clipPath id="clip0_210_31955">
<rect width="23.6821" height="15.0704" fill="white" transform="translate(0.177887 0.266602)"/>
</clipPath>
<clipPath id="clip1_210_31955">
<rect width="17.8488" height="14.0489" fill="white" transform="translate(0.177887 0.266602)"/>
</clipPath>
</defs>
</svg>
