<svg width="16" height="10" viewBox="0 0 16 10" fill="none" xmlns="http://www.w3.org/2000/svg">
<g clip-path="url(#clip0_210_32045)">
<g clip-path="url(#clip1_210_32045)">
<path d="M14.4652 4.65234H14.4489C14.6092 4.28109 14.6465 3.86831 14.5554 3.47435C14.4643 3.08039 14.2495 2.7259 13.9425 2.4627C13.6356 2.1995 13.2525 2.04139 12.8492 2.01148C12.4459 1.98157 12.0437 2.08144 11.7013 2.29648C11.4564 1.70818 11.007 1.22833 10.436 0.945529C9.86499 0.662731 9.21093 0.596085 8.59461 0.757897C7.97829 0.91971 7.44133 1.29905 7.08287 1.82588C6.72442 2.3527 6.56868 2.99143 6.64442 3.62413H6.62209C6.15287 3.62413 5.70287 3.81052 5.37109 4.14231C5.0393 4.47409 4.85291 4.92409 4.85291 5.39331C4.85291 5.86253 5.0393 6.31253 5.37109 6.64431C5.70287 6.9761 6.15287 7.16249 6.62209 7.16249H14.4652C14.6299 7.16249 14.7931 7.13004 14.9453 7.067C15.0975 7.00395 15.2358 6.91154 15.3523 6.79504C15.4688 6.67854 15.5612 6.54024 15.6242 6.38803C15.6873 6.23582 15.7197 6.07268 15.7197 5.90793C15.7197 5.74317 15.6873 5.58004 15.6242 5.42782C15.5612 5.27561 15.4688 5.13731 15.3523 5.02081C15.2358 4.90432 15.0975 4.8119 14.9453 4.74886C14.7931 4.68581 14.6299 4.65234 14.4652 4.65234Z" fill="#0072BC"/>
<path d="M11.5023 6.50773H11.4851C11.6 6.25855 11.6596 5.9874 11.6596 5.71297C11.6424 5.16533 11.4086 4.6469 11.0096 4.27145C10.6105 3.896 10.0788 3.6942 9.53113 3.71033C9.13439 3.70871 8.74452 3.81389 8.40243 4.01484C8.16225 3.49301 7.7757 3.05215 7.28973 2.74583C6.80377 2.43952 6.23931 2.28092 5.66492 2.2893C4.90257 2.26716 4.1626 2.54845 3.60747 3.07142C3.05234 3.59439 2.72744 4.31627 2.7041 5.07858C2.70475 5.19335 2.71288 5.30795 2.72846 5.42166H2.7041C2.19324 5.40663 1.6973 5.59498 1.32523 5.94536C0.953156 6.29574 0.735376 6.77948 0.719727 7.29032C0.735112 7.80133 0.952778 8.28533 1.32488 8.63593C1.69698 8.98652 2.19307 9.17502 2.7041 9.15999H11.5023C11.8649 9.17064 12.2169 9.03689 12.4809 8.78812C12.7449 8.53935 12.8993 8.19593 12.9101 7.83335C12.8987 7.47104 12.7441 7.12804 12.4802 6.87955C12.2163 6.63105 11.8646 6.49734 11.5023 6.50773Z" fill="#020202"/>
</g>
</g>
<defs>
<clipPath id="clip0_210_32045">
<rect width="15" height="9" fill="white" transform="translate(0.719727 0.660156)"/>
</clipPath>
<clipPath id="clip1_210_32045">
<rect width="15" height="8.4998" fill="white" transform="translate(0.719727 0.660156)"/>
</clipPath>
</defs>
</svg>
