<svg width="62" height="36" viewBox="0 0 62 36" fill="none" xmlns="http://www.w3.org/2000/svg">
<g clip-path="url(#clip0_210_32704)">
<g clip-path="url(#clip1_210_32704)">
<g clip-path="url(#clip2_210_32704)">
<path d="M46 32.9624C54.8366 32.9624 62 25.799 62 16.9624C62 8.12585 54.8366 0.962402 46 0.962402C37.1634 0.962402 30 8.12585 30 16.9624C30 25.799 37.1634 32.9624 46 32.9624Z" fill="#1778F2"/>
<path d="M47.42 25.1962V17.7022H49.94L50.318 14.7682H47.418V12.8992C47.418 12.0512 47.654 11.4742 48.868 11.4742H50.411V8.85421C49.6614 8.77447 48.9079 8.73574 48.154 8.73821C47.6414 8.70109 47.1268 8.77654 46.6464 8.95926C46.1659 9.14199 45.7313 9.42757 45.3729 9.79599C45.0144 10.1644 44.7409 10.6068 44.5715 11.092C44.4021 11.5773 44.3408 12.0938 44.392 12.6052V14.7642H41.874V17.6992H44.395V25.1992L47.42 25.1962Z" fill="white"/>
</g>
</g>
</g>
<defs>
<clipPath id="clip0_210_32704">
<rect width="32" height="32" fill="white" transform="translate(30 0.962402)"/>
</clipPath>
<clipPath id="clip1_210_32704">
<rect width="32" height="32" fill="white" transform="translate(30 0.962402)"/>
</clipPath>
<clipPath id="clip2_210_32704">
<rect width="32" height="32" fill="white" transform="translate(30 0.962402)"/>
</clipPath>
</defs>
</svg>
