<svg width="62" height="36" viewBox="0 0 62 36" fill="none" xmlns="http://www.w3.org/2000/svg">
<g clip-path="url(#clip0_210_32711)">
<g clip-path="url(#clip1_210_32711)">
<g clip-path="url(#clip2_210_32711)">
<path d="M46 32.9624C54.8366 32.9624 62 25.799 62 16.9624C62 8.12585 54.8366 0.962402 46 0.962402C37.1634 0.962402 30 8.12585 30 16.9624C30 25.799 37.1634 32.9624 46 32.9624Z" fill="#0B66C1"/>
<path d="M39.2441 23.5875H42.2161V14.6475H39.2441V23.5875ZM40.7301 13.4265H40.7101C40.4973 13.4398 40.284 13.4091 40.0836 13.3362C39.8832 13.2633 39.7001 13.1498 39.5456 13.0029C39.3911 12.8559 39.2686 12.6786 39.1858 12.4821C39.103 12.2857 39.0616 12.0742 39.0643 11.861C39.067 11.6478 39.1137 11.4374 39.2014 11.2431C39.2892 11.0488 39.4161 10.8746 39.5743 10.7316C39.7324 10.5886 39.9184 10.4798 40.1205 10.412C40.3227 10.3442 40.5367 10.3188 40.7491 10.3375C40.9619 10.3227 41.1754 10.352 41.3764 10.4236C41.5774 10.4952 41.7614 10.6075 41.9169 10.7535C42.0724 10.8995 42.1961 11.0761 42.2802 11.2721C42.3643 11.4682 42.407 11.6795 42.4056 11.8928C42.4042 12.1061 42.3588 12.3169 42.2722 12.5118C42.1855 12.7067 42.0596 12.8817 41.9022 13.0257C41.7448 13.1697 41.5593 13.2796 41.3575 13.3486C41.1556 13.4175 40.9427 13.4441 40.7301 13.4265ZM52.9301 23.5875H49.9591V18.8055C49.9591 17.6055 49.5291 16.7835 48.4541 16.7835C48.1189 16.7855 47.7925 16.891 47.5195 17.0856C47.2465 17.2802 47.0403 17.5543 46.9291 17.8705C46.8522 18.1041 46.8183 18.3498 46.8291 18.5955V23.5885H43.8601C43.8601 23.5885 43.8991 15.4885 43.8601 14.6485H46.8321V15.9135C47.1006 15.4471 47.4916 15.0629 47.9627 14.8028C48.4339 14.5426 48.9673 14.4163 49.5051 14.4375C51.4601 14.4375 52.9261 15.7155 52.9261 18.4615L52.9301 23.5875Z" fill="white"/>
</g>
</g>
</g>
<defs>
<clipPath id="clip0_210_32711">
<rect width="32" height="32" fill="white" transform="translate(30 0.962402)"/>
</clipPath>
<clipPath id="clip1_210_32711">
<rect width="32" height="32" fill="white" transform="translate(30 0.962402)"/>
</clipPath>
<clipPath id="clip2_210_32711">
<rect width="32" height="32" fill="white" transform="translate(30 0.962402)"/>
</clipPath>
</defs>
</svg>
