<svg width="427" height="59" viewBox="0 0 427 59" fill="none" xmlns="http://www.w3.org/2000/svg">
<path d="M189.025 26.202C189.025 23.1625 187.753 21.2799 184.283 21.2799C180.812 21.2799 179.54 23.1625 179.54 26.202V34.2931C179.54 36.0033 180.108 38.5757 183.09 38.5757C186.072 38.5757 188.213 36.3626 189.018 33.129V26.2092L189.025 26.202ZM355.179 23.7086C357.119 22.1134 359.275 21.0355 361.632 21.093C364.161 21.1505 365.217 23.1625 365.217 25.4691V41.4859C365.217 43.462 366.82 44.6548 368.803 44.6548C370.786 44.6548 372.389 43.462 372.389 41.4859V25.3829C372.389 19.4978 370.096 14.1014 363.428 14.1014C359.469 14.1014 356.199 16.1134 353.684 18.1325C352.075 15.3229 349.395 14.1014 346.319 14.1014C342.705 14.1014 340.19 15.6391 338.099 17.1337C338.027 15.2367 336.453 14.1014 334.52 14.1014C332.587 14.1014 330.935 15.2942 330.935 17.2703V41.4859C330.935 43.462 332.537 44.6548 334.52 44.6548C336.504 44.6548 338.106 43.462 338.106 41.4859V23.7086C340.053 22.1062 342.166 21.0284 344.53 21.0858C346.707 21.1361 348.08 22.8535 348.08 24.9589V41.4787C348.08 43.4548 349.682 44.6476 351.665 44.6476C353.649 44.6476 355.251 43.4548 355.251 41.4787V25.0236C355.251 24.5996 355.222 24.1254 355.186 23.6942L355.179 23.7086ZM318.446 26.202C318.446 23.1625 317.174 21.2799 313.703 21.2799C310.233 21.2799 308.961 23.1625 308.961 26.202V34.2931C308.961 36.0033 309.529 38.5757 312.511 38.5757C315.493 38.5757 317.634 36.3626 318.439 33.129V26.2092L318.446 26.202ZM325.61 26.202V41.4931C325.61 43.4764 324.008 44.662 322.024 44.662C320.041 44.662 318.439 43.4692 318.439 41.4931V40.9398C316.441 43.7279 314.544 44.6548 311.332 44.6692C305.483 44.6979 301.79 40.9686 301.79 34.3003V26.2092C301.79 18.2403 306.194 14.7122 313.696 14.7122C321.198 14.7122 325.603 18.2403 325.603 26.2092L325.61 26.202ZM276.769 26.202C276.769 23.1625 275.497 21.2799 272.027 21.2799C268.556 21.2799 267.284 23.1625 267.284 26.202V34.2931C267.284 36.0033 267.852 38.5757 270.834 38.5757C273.816 38.5757 275.957 36.3626 276.762 33.129V26.2092L276.769 26.202ZM283.933 26.202V41.4931C283.933 43.4764 282.331 44.662 280.348 44.662C278.364 44.662 276.762 43.4692 276.762 41.4931V40.9398C274.764 43.7279 272.867 44.6548 269.655 44.6692C263.806 44.6979 260.113 40.9686 260.113 34.3003V26.2092C260.113 18.2403 264.518 14.7122 272.019 14.7122C279.521 14.7122 283.926 18.2403 283.926 26.2092L283.933 26.202ZM247.696 43.6057V40.9326C245.698 43.7207 243.801 44.6476 240.589 44.662C234.74 44.6907 231.047 40.9614 231.047 34.2931V26.202C231.047 18.2331 235.452 14.705 242.953 14.705C250.455 14.705 254.86 18.2331 254.86 26.202V43.6057C254.86 53.177 248.587 57.3159 241.38 57.3159H237.715C235.897 57.3159 234.431 55.8429 234.431 54.0321C234.431 52.2213 235.904 50.7482 237.715 50.7482H241.38C245.454 50.7482 247.696 48.0608 247.696 43.6129V43.6057ZM247.696 26.202C247.696 23.1625 246.424 21.2799 242.953 21.2799C239.483 21.2799 238.211 23.1625 238.211 26.202V34.2931C238.211 36.0033 238.779 38.5757 241.761 38.5757C244.743 38.5757 246.884 36.3626 247.689 33.129V26.2092L247.696 26.202ZM216.877 14.1014C213.262 14.1014 210.747 15.6391 208.656 17.1337C208.584 15.2367 207.011 14.1014 205.078 14.1014C203.145 14.1014 201.492 15.2942 201.492 17.2703V41.4859C201.492 43.462 203.095 44.6548 205.078 44.6548C207.061 44.6548 208.663 43.462 208.663 41.4859V23.7086C210.611 22.1062 212.723 21.0284 215.087 21.0858C217.265 21.1361 218.637 22.9254 218.637 25.0308V41.4859C218.637 43.462 220.24 44.6548 222.223 44.6548C224.206 44.6548 225.808 43.462 225.808 41.4859V24.4918C225.808 18.6355 223.078 14.1014 216.884 14.1014H216.877ZM289.373 41.4859C289.373 43.462 290.975 44.6548 292.958 44.6548C294.942 44.6548 296.544 43.462 296.544 41.4859V4.85345C296.544 2.8702 294.942 1.68457 292.958 1.68457C290.975 1.68457 289.373 2.87739 289.373 4.85345V41.4859ZM149.849 23.7086C151.789 22.1134 153.945 21.0355 156.302 21.093C158.831 21.1505 159.887 23.1625 159.887 25.4691V41.4859C159.887 43.462 161.49 44.6548 163.473 44.6548C165.456 44.6548 167.059 43.462 167.059 41.4859V25.3829C167.059 19.4978 164.766 14.1014 158.098 14.1014C154.139 14.1014 150.869 16.1134 148.354 18.1325C146.745 15.3229 144.064 14.1014 140.989 14.1014C137.375 14.1014 134.86 15.6391 132.769 17.1337C132.697 15.2367 131.123 14.1014 129.19 14.1014C127.257 14.1014 125.604 15.2942 125.604 17.2703V41.4859C125.604 43.462 127.207 44.6548 129.19 44.6548C131.173 44.6548 132.776 43.462 132.776 41.4859V23.7086C134.723 22.1062 136.836 21.0284 139.2 21.0858C141.377 21.1361 142.749 22.8535 142.749 24.9589V41.4787C142.749 43.4548 144.352 44.6476 146.335 44.6476C148.318 44.6476 149.921 43.4548 149.921 41.4787V25.0236C149.921 24.5996 149.892 24.1254 149.856 23.6942L149.849 23.7086ZM196.196 26.202V41.4931C196.196 43.4764 194.594 44.662 192.611 44.662C190.627 44.662 189.025 43.4692 189.025 41.4931V40.9398C187.027 43.7279 185.13 44.6548 181.918 44.6692C176.069 44.6979 172.376 40.9686 172.376 34.3003V26.2092C172.376 18.2403 176.781 14.7122 184.283 14.7122C191.784 14.7122 196.189 18.2403 196.189 26.2092L196.196 26.202Z" fill="black"/>
<path fill-rule="evenodd" clip-rule="evenodd" d="M107.877 38.5616L101.942 25.8286L96.0066 38.5616C95.5683 39.4526 95.3168 40.4514 95.3168 41.5077C95.3168 45.1724 98.2844 48.1401 101.949 48.1401C105.614 48.1401 108.581 45.1724 108.581 41.5077C108.581 40.4442 108.33 39.4454 107.892 38.5544L107.877 38.5616Z" fill="#0072BC"/>
<path fill-rule="evenodd" clip-rule="evenodd" d="M55.408 38.7125L66.6104 14.6837C68.1553 11.3639 72.1002 9.92675 75.42 11.4789C78.7398 13.0238 80.1769 16.9687 78.6248 20.2885L67.4224 44.3173C65.8775 47.6371 61.9325 49.0742 58.6128 47.5221C55.293 45.9772 53.8559 42.0323 55.408 38.7125Z" fill="#C4122F"/>
<path fill-rule="evenodd" clip-rule="evenodd" d="M75.6715 38.7125L86.874 14.6837C88.4189 11.3639 92.3638 9.92675 95.6836 11.4789C99.0034 13.0238 100.44 16.9687 98.8884 20.2885L87.6859 44.3173C86.141 47.6371 82.1961 49.0742 78.8763 47.5221C75.5566 45.9772 74.1194 42.0323 75.6715 38.7125Z" fill="#F58220"/>
<path d="M63.9801 54.5279H64.5477V53.1267C64.5477 52.9973 64.5693 52.8823 64.6124 52.7961C64.6555 52.7027 64.7202 52.6309 64.7992 52.5806C64.8783 52.5303 64.9717 52.5087 65.0795 52.5015C65.2376 52.5015 65.3597 52.5518 65.4531 52.6596C65.5394 52.7602 65.5825 52.9111 65.5897 53.1051V54.5279H66.1573V53.1195C66.1573 52.983 66.1789 52.8752 66.2292 52.7818C66.2723 52.6883 66.337 52.6237 66.416 52.5734C66.4951 52.5231 66.5885 52.5015 66.6891 52.5015C66.8471 52.5015 66.9765 52.5518 67.0627 52.6596C67.1489 52.7602 67.1921 52.9111 67.1921 53.1123V54.5279H67.7597V52.9398C67.7597 52.7386 67.7238 52.5662 67.6519 52.4225C67.5801 52.2788 67.4795 52.171 67.3501 52.0991C67.2208 52.0273 67.0627 51.9913 66.8831 51.9841C66.7609 51.9841 66.646 52.0057 66.5454 52.0416C66.4448 52.0776 66.3513 52.1279 66.2651 52.1925C66.1789 52.2572 66.107 52.3362 66.0424 52.4225C65.9992 52.3362 65.9418 52.2572 65.8699 52.1925C65.798 52.1279 65.719 52.0776 65.6256 52.0416C65.5322 52.0057 65.4244 51.9841 65.3022 51.9841C65.1729 51.9841 65.0651 52.0057 64.9717 52.0488C64.8783 52.0919 64.7992 52.1422 64.7274 52.2069C64.6555 52.2716 64.598 52.3434 64.5477 52.4153V52.0344H63.9801V54.5279ZM70.5478 54.5279V53.0476C70.5478 52.8249 70.5046 52.638 70.4256 52.48C70.3466 52.3219 70.2244 52.2069 70.0591 52.1207C69.8939 52.0344 69.6927 51.9985 69.4484 51.9985C69.3118 51.9985 69.1897 52.0057 69.0819 52.0273C68.9741 52.0416 68.8735 52.0704 68.7801 52.0991C68.6867 52.1279 68.5933 52.1638 68.4999 52.2069L68.6579 52.6668C68.7298 52.638 68.8088 52.6093 68.8807 52.5806C68.9525 52.559 69.0316 52.5374 69.1106 52.5303C69.1897 52.5159 69.2759 52.5087 69.3693 52.5087C69.5705 52.5087 69.7214 52.5518 69.822 52.6452C69.9298 52.7386 69.9801 52.868 69.9801 53.0404V53.0907C69.9154 53.0692 69.8508 53.0548 69.7861 53.0333C69.7214 53.0189 69.6424 53.0045 69.5633 52.9973C69.4843 52.9901 69.3909 52.983 69.2903 52.983C69.1466 52.983 69.01 52.9973 68.8879 53.0333C68.7657 53.0692 68.6579 53.1195 68.5645 53.1841C68.4711 53.2488 68.4064 53.335 68.3561 53.4356C68.3058 53.5362 68.2843 53.6584 68.2771 53.7949C68.2771 53.9315 68.2987 54.0392 68.349 54.1327C68.3993 54.2261 68.4639 54.3051 68.543 54.3698C68.6292 54.4345 68.7226 54.4848 68.8232 54.5207C68.931 54.5566 69.0388 54.571 69.1609 54.571C69.2903 54.571 69.3981 54.5566 69.4987 54.5207C69.5993 54.4919 69.6855 54.4488 69.7645 54.3913C69.8436 54.3339 69.9082 54.2764 69.9657 54.2117V54.5207H70.5334L70.5478 54.5279ZM69.9945 53.6297C69.9945 53.7374 69.9657 53.8237 69.9082 53.9027C69.8508 53.9818 69.7717 54.0392 69.6711 54.0824C69.5705 54.1255 69.4627 54.147 69.3334 54.147C69.24 54.147 69.1609 54.1327 69.0891 54.1039C69.0172 54.0752 68.9597 54.0321 68.9166 53.9818C68.8735 53.9243 68.8519 53.8596 68.8519 53.7806C68.8519 53.6943 68.8735 53.6225 68.9238 53.565C68.9669 53.5075 69.0316 53.4644 69.1178 53.4356C69.204 53.4069 69.3046 53.3925 69.4268 53.3925C69.5418 53.3925 69.6424 53.3997 69.743 53.4213C69.8436 53.4428 69.9226 53.4644 70.0017 53.4931V53.6368L69.9945 53.6297ZM71.2304 54.5279H71.7981V53.1195C71.7981 52.9901 71.8196 52.8752 71.8699 52.7889C71.9202 52.6955 71.9849 52.6237 72.0639 52.5806C72.1502 52.5303 72.2436 52.5087 72.3585 52.5087C72.531 52.5087 72.6603 52.5662 72.7538 52.6668C72.8472 52.7746 72.8903 52.9183 72.8903 53.1195V54.5351H73.458V52.947C73.458 52.753 73.422 52.5806 73.3502 52.4368C73.2783 52.2931 73.1777 52.1853 73.0484 52.1063C72.919 52.0273 72.7538 51.9841 72.5669 51.9841C72.4376 51.9841 72.3226 52.0057 72.2292 52.0488C72.1358 52.0919 72.0496 52.1422 71.9777 52.2069C71.9059 52.2716 71.8412 52.3434 71.7909 52.4225V52.0344H71.2232V54.5279H71.2304ZM75.2616 55.2895C75.4843 55.2895 75.6855 55.2608 75.858 55.2105C76.0304 55.153 76.1741 55.074 76.2891 54.959C76.3897 54.8584 76.4687 54.7291 76.5262 54.571C76.5765 54.4129 76.6053 54.2333 76.6053 54.0249V52.0416H76.0376V52.4153C75.9729 52.3362 75.9011 52.2644 75.822 52.1997C75.743 52.135 75.6424 52.0847 75.5418 52.0488C75.434 52.0129 75.3119 51.9913 75.1681 51.9913C75.0532 51.9913 74.9382 52.0057 74.8304 52.0416C74.7226 52.0776 74.6148 52.1279 74.5214 52.1925C74.428 52.2572 74.3418 52.3362 74.2699 52.4297C74.1981 52.5231 74.1406 52.6309 74.0975 52.753C74.0544 52.8752 74.0328 53.0117 74.0328 53.1554C74.0328 53.3135 74.0544 53.4428 74.0975 53.565C74.1406 53.6871 74.1909 53.7949 74.2699 53.8883C74.3418 53.9818 74.428 54.0608 74.5214 54.1255C74.6148 54.1901 74.7226 54.2404 74.8304 54.2764C74.9382 54.3123 75.0532 54.3267 75.1753 54.3267C75.3119 54.3267 75.434 54.3051 75.5418 54.2692C75.6496 54.2333 75.743 54.1758 75.8292 54.1111C75.9155 54.0464 75.9873 53.9602 76.0592 53.874V54.068C76.0592 54.3195 75.9873 54.5063 75.858 54.6357C75.7214 54.765 75.5274 54.8297 75.2759 54.8297C75.1035 54.8297 74.9526 54.8081 74.8017 54.7578C74.658 54.7147 74.5142 54.65 74.3849 54.5638L74.1693 54.9949C74.3274 55.0884 74.5071 55.1674 74.6939 55.2177C74.8807 55.268 75.0819 55.2967 75.2831 55.2967L75.2616 55.2895ZM75.3119 53.8524C75.2113 53.8524 75.125 53.838 75.0388 53.8021C74.9526 53.7662 74.8807 53.7231 74.816 53.6584C74.7514 53.5937 74.7011 53.5219 74.6651 53.4428C74.6292 53.3566 74.6077 53.2632 74.6077 53.1626C74.6077 53.0476 74.6292 52.9542 74.6651 52.8752C74.7011 52.7889 74.7514 52.7171 74.816 52.6596C74.8807 52.6021 74.9526 52.5518 75.0388 52.5231C75.125 52.4943 75.2184 52.4728 75.319 52.4728C75.4196 52.4728 75.5131 52.4871 75.5993 52.5231C75.6855 52.559 75.7646 52.6021 75.8292 52.6668C75.8939 52.7243 75.9514 52.8033 75.9873 52.8824C76.0232 52.9686 76.0448 53.062 76.0448 53.1626C76.0448 53.2704 76.0232 53.3638 75.9873 53.45C75.9514 53.5362 75.8939 53.6081 75.8292 53.6656C75.7646 53.7303 75.6855 53.7734 75.5993 53.8093C75.5131 53.8452 75.4196 53.8596 75.319 53.8596L75.3119 53.8524ZM79.4077 54.5279V53.0476C79.4077 52.8249 79.3646 52.638 79.2855 52.48C79.2065 52.3219 79.0843 52.2069 78.9191 52.1207C78.7538 52.0344 78.5526 51.9985 78.3083 51.9985C78.1717 51.9985 78.0496 52.0057 77.9418 52.0273C77.834 52.0416 77.7334 52.0704 77.64 52.0991C77.5466 52.1279 77.4532 52.1638 77.3598 52.2069L77.5179 52.6668C77.5897 52.638 77.6688 52.6093 77.7406 52.5806C77.8125 52.559 77.8915 52.5374 77.9705 52.5303C78.0496 52.5159 78.1358 52.5087 78.2292 52.5087C78.4304 52.5087 78.5813 52.5518 78.6819 52.6452C78.7897 52.7386 78.84 52.868 78.84 53.0404V53.0907C78.7753 53.0692 78.7107 53.0548 78.646 53.0333C78.5813 53.0189 78.5023 53.0045 78.4232 52.9973C78.3442 52.9901 78.2508 52.983 78.1502 52.983C78.0065 52.983 77.8699 52.9973 77.7478 53.0333C77.6256 53.0692 77.5179 53.1195 77.4244 53.1841C77.331 53.2488 77.2664 53.335 77.2161 53.4356C77.1658 53.5362 77.1442 53.6584 77.137 53.7949C77.137 53.9315 77.1658 54.0392 77.2089 54.1327C77.2592 54.2261 77.3238 54.3051 77.4029 54.3698C77.4891 54.4345 77.5825 54.4848 77.6831 54.5207C77.7909 54.5566 77.8987 54.571 78.0208 54.571C78.1502 54.571 78.258 54.5566 78.3586 54.5207C78.4592 54.4919 78.5454 54.4488 78.6244 54.3913C78.7035 54.3339 78.7682 54.2764 78.8256 54.2117V54.5207H79.3933L79.4077 54.5279ZM78.8544 53.6297C78.8544 53.7374 78.8256 53.8237 78.7682 53.9027C78.7107 53.9818 78.6316 54.0392 78.531 54.0824C78.4304 54.1255 78.3226 54.147 78.1933 54.147C78.0999 54.147 78.0208 54.1327 77.949 54.1039C77.8771 54.0752 77.8197 54.0321 77.7765 53.9818C77.7334 53.9243 77.7119 53.8596 77.7119 53.7806C77.7119 53.6943 77.7334 53.6225 77.7837 53.565C77.8268 53.5075 77.8915 53.4644 77.9777 53.4356C78.064 53.4069 78.1646 53.3925 78.2867 53.3925C78.4017 53.3925 78.5023 53.3997 78.6029 53.4213C78.7035 53.4428 78.7897 53.4644 78.8616 53.4931V53.6368L78.8544 53.6297ZM80.1191 54.5279H80.6867V51.0859H80.1191V54.5279ZM83.5251 54.5279V53.0476C83.5251 52.8249 83.482 52.638 83.4029 52.48C83.3239 52.3219 83.2017 52.2069 83.0364 52.1207C82.8712 52.0344 82.67 51.9985 82.4257 51.9985C82.2891 51.9985 82.167 52.0057 82.0592 52.0273C81.9514 52.0488 81.8508 52.0704 81.7574 52.0991C81.664 52.1279 81.5706 52.1638 81.4772 52.2069L81.6352 52.6668C81.7071 52.638 81.7861 52.6093 81.858 52.5806C81.9298 52.559 82.0089 52.5374 82.0879 52.5303C82.167 52.5159 82.2532 52.5087 82.3466 52.5087C82.5478 52.5087 82.6987 52.5518 82.7993 52.6452C82.9071 52.7386 82.9574 52.868 82.9574 53.0404V53.0907C82.8927 53.0692 82.8281 53.0548 82.7634 53.0333C82.6987 53.0189 82.6197 53.0045 82.5406 52.9973C82.4616 52.9901 82.3682 52.983 82.2676 52.983C82.1239 52.983 81.9873 52.9973 81.8652 53.0333C81.743 53.0692 81.6352 53.1195 81.5418 53.1841C81.4484 53.2488 81.3837 53.335 81.3334 53.4356C81.2831 53.5362 81.2616 53.6584 81.2544 53.7949C81.2544 53.9315 81.276 54.0392 81.3263 54.1327C81.3766 54.2261 81.4412 54.3051 81.5203 54.3698C81.6065 54.4345 81.6999 54.4848 81.8005 54.5207C81.9083 54.5566 82.0161 54.571 82.1382 54.571C82.2676 54.571 82.3754 54.5566 82.476 54.5207C82.5766 54.4919 82.6628 54.4488 82.7418 54.3913C82.8209 54.3339 82.8855 54.2764 82.943 54.2117V54.5207H83.5107L83.5251 54.5279ZM82.9718 53.6297C82.9718 53.7374 82.943 53.8237 82.8855 53.9027C82.8281 53.9818 82.749 54.0392 82.6484 54.0824C82.5478 54.1255 82.44 54.147 82.3107 54.147C82.2173 54.147 82.1382 54.1327 82.0664 54.1039C81.9945 54.0752 81.937 54.0321 81.8939 53.9818C81.8508 53.9243 81.8292 53.8596 81.8292 53.7806C81.8292 53.6943 81.8508 53.6225 81.9011 53.565C81.9442 53.5075 82.0089 53.4644 82.0951 53.4356C82.1813 53.4069 82.2819 53.3925 82.4041 53.3925C82.5191 53.3925 82.6197 53.3997 82.7203 53.4213C82.8209 53.4428 82.8999 53.4644 82.979 53.4931V53.6368L82.9718 53.6297ZM84.2005 54.5279H84.7682V53.1267C84.7682 52.9973 84.7897 52.8823 84.8329 52.7961C84.876 52.7027 84.9406 52.6309 85.0197 52.5806C85.0987 52.5303 85.1921 52.5087 85.2999 52.5015C85.458 52.5015 85.5802 52.5518 85.6736 52.6596C85.7598 52.7602 85.8029 52.9111 85.8101 53.1051V54.5279H86.3778V53.1195C86.3778 52.983 86.3993 52.8752 86.4496 52.7818C86.4927 52.6883 86.5574 52.6237 86.6365 52.5734C86.7155 52.5231 86.8089 52.5015 86.9167 52.5015C87.0748 52.5015 87.2041 52.5518 87.2903 52.6596C87.3766 52.7602 87.4197 52.9111 87.4197 53.1123V54.5279H87.9874V52.9398C87.9874 52.7386 87.9514 52.5662 87.8796 52.4225C87.8077 52.2788 87.7071 52.171 87.5778 52.0991C87.4484 52.0273 87.2903 51.9913 87.1107 51.9841C86.9886 51.9841 86.8736 52.0057 86.773 52.0416C86.6724 52.0776 86.579 52.1279 86.4927 52.1925C86.4065 52.2572 86.3347 52.3362 86.27 52.4225C86.2269 52.3362 86.1694 52.2572 86.0975 52.1925C86.0257 52.1279 85.9466 52.0776 85.8532 52.0416C85.7598 52.0057 85.652 51.9841 85.5299 51.9841C85.4005 51.9841 85.2927 52.0057 85.1993 52.0488C85.1059 52.0919 85.0197 52.1422 84.955 52.2069C84.8832 52.2716 84.8257 52.3434 84.7754 52.4153V52.0344H84.2077V54.5279H84.2005ZM88.6484 54.5279H89.2736V53.8812H88.6484V54.5279ZM91.0125 54.5854C91.1706 54.5854 91.3143 54.5638 91.4365 54.5279C91.5586 54.4919 91.6664 54.4345 91.767 54.3626C91.8604 54.2907 91.9538 54.2117 92.0329 54.1183L91.688 53.7806C91.6305 53.8452 91.5658 53.8955 91.5011 53.9458C91.4365 53.9889 91.3646 54.0249 91.2856 54.0536C91.2137 54.0824 91.1275 54.0895 91.0413 54.0967C90.9335 54.0967 90.8329 54.0752 90.7395 54.0321C90.6461 53.9889 90.567 53.9315 90.5023 53.8596C90.4377 53.7877 90.3874 53.7015 90.3514 53.6009C90.3155 53.5075 90.294 53.3997 90.294 53.2919C90.294 53.1698 90.3155 53.0692 90.3443 52.9758C90.3802 52.8823 90.4305 52.7961 90.4952 52.7243C90.5598 52.6524 90.6389 52.5949 90.7251 52.5518C90.8113 52.5087 90.9047 52.4871 91.0125 52.4871C91.1059 52.4871 91.1922 52.5015 91.2712 52.5303C91.3502 52.559 91.4149 52.5949 91.4796 52.638C91.5443 52.6812 91.6017 52.7386 91.6592 52.8033L92.0113 52.4225C91.9323 52.3362 91.8461 52.2644 91.7526 52.1997C91.6592 52.135 91.5514 52.0847 91.4293 52.0488C91.3071 52.0129 91.1706 51.9913 91.0125 51.9913C90.8257 51.9913 90.6532 52.0273 90.4952 52.0919C90.3371 52.1638 90.2005 52.2572 90.0856 52.3722C89.9706 52.4943 89.8772 52.6309 89.8125 52.7889C89.7478 52.947 89.7191 53.1123 89.7119 53.2919C89.7119 53.4788 89.7478 53.644 89.8125 53.8021C89.8772 53.9602 89.9634 54.0895 90.0784 54.2117C90.1934 54.3267 90.3299 54.4201 90.488 54.4919C90.646 54.5566 90.8185 54.5925 90.9981 54.5925L91.0125 54.5854ZM93.664 54.5854C93.858 54.5854 94.0377 54.5494 94.1958 54.4848C94.361 54.4201 94.4976 54.3267 94.6197 54.2045C94.7419 54.0824 94.8353 53.9458 94.9 53.7949C94.9646 53.6368 95.0006 53.4716 95.0006 53.2919C95.0006 53.1051 94.9646 52.9327 94.9 52.7818C94.8353 52.6237 94.7419 52.4871 94.6269 52.3722C94.5047 52.2572 94.3682 52.1638 94.2101 52.0919C94.0521 52.0273 93.8724 51.9913 93.6784 51.9913C93.4844 51.9913 93.3119 52.0273 93.1467 52.0919C92.9814 52.1566 92.8449 52.25 92.7227 52.3722C92.6005 52.4943 92.5071 52.6309 92.4425 52.7889C92.3778 52.947 92.3419 53.1123 92.3419 53.2919C92.3419 53.4788 92.3778 53.644 92.4425 53.8021C92.5071 53.9602 92.6005 54.0895 92.7155 54.2117C92.8377 54.3267 92.9742 54.4201 93.1323 54.4919C93.2904 54.5566 93.47 54.5925 93.6568 54.5925L93.664 54.5854ZM93.6784 54.0895C93.5634 54.0895 93.4628 54.068 93.3694 54.0249C93.276 53.9818 93.197 53.9243 93.1251 53.8524C93.0604 53.7806 93.0029 53.6943 92.967 53.5937C92.9311 53.5003 92.9095 53.3925 92.9095 53.2847C92.9095 53.1626 92.9311 53.062 92.9598 52.9686C92.9958 52.8752 93.0461 52.7889 93.1107 52.7171C93.1754 52.6452 93.2544 52.5877 93.3479 52.5446C93.4413 52.5015 93.5419 52.48 93.6568 52.48C93.7718 52.48 93.8724 52.5015 93.9658 52.5446C94.0592 52.5877 94.1383 52.6452 94.2101 52.7171C94.2748 52.7889 94.3323 52.8752 94.3682 52.9686C94.4041 53.062 94.4257 53.1698 94.4257 53.2776C94.4257 53.3925 94.4041 53.5003 94.3754 53.5937C94.3395 53.6871 94.2892 53.7734 94.2245 53.8452C94.1598 53.9171 94.0808 53.9746 93.9874 54.0177C93.894 54.0608 93.7934 54.0824 93.6712 54.0824L93.6784 54.0895ZM95.5826 54.5279H96.1503V53.1267C96.1503 52.9973 96.1718 52.8823 96.2149 52.7961C96.258 52.7027 96.3227 52.6309 96.4018 52.5806C96.4808 52.5303 96.5742 52.5087 96.682 52.5015C96.8401 52.5015 96.9622 52.5518 97.0557 52.6596C97.1419 52.7602 97.185 52.9111 97.1922 53.1051V54.5279H97.7599V53.1195C97.7599 52.983 97.7814 52.8752 97.8317 52.7818C97.8748 52.6883 97.9395 52.6237 98.0185 52.5734C98.0976 52.5231 98.191 52.5015 98.2988 52.5015C98.4569 52.5015 98.5862 52.5518 98.6724 52.6596C98.7587 52.7602 98.8018 52.9111 98.8018 53.1123V54.5279H99.3694V52.9398C99.3694 52.7386 99.3335 52.5662 99.2617 52.4225C99.1898 52.2788 99.0892 52.171 98.9599 52.0991C98.8305 52.0273 98.6724 51.9913 98.4928 51.9841C98.3706 51.9841 98.2557 52.0057 98.1551 52.0416C98.0545 52.0776 97.9611 52.1279 97.8748 52.1925C97.7886 52.2572 97.7167 52.3362 97.6521 52.4225C97.609 52.3362 97.5515 52.2572 97.4796 52.1925C97.4078 52.1279 97.3287 52.0776 97.2353 52.0416C97.1419 52.0057 97.0341 51.9841 96.9119 51.9841C96.7826 51.9841 96.6748 52.0057 96.5814 52.0488C96.488 52.0919 96.4018 52.1422 96.3371 52.2069C96.2652 52.2716 96.2077 52.3434 96.1503 52.4153V52.0344H95.5826V54.5279Z" fill="black"/>
</svg>
