<?xml version="1.0"?>
<svg width="427" height="59" xmlns="http://www.w3.org/2000/svg" xmlns:svg="http://www.w3.org/2000/svg">
 <g class="layer">
  <title>Layer 1</title>
  <path d="m189.03,26.2c0,-3.04 -1.28,-4.92 -4.75,-4.92c-3.47,0 -4.74,1.88 -4.74,4.92l0,8.09c0,1.71 0.57,4.29 3.55,4.29c2.98,0 5.12,-2.22 5.93,-5.45l0,-6.92l0.01,-0.01zm166.15,-2.49c1.94,-1.6 4.09,-2.67 6.45,-2.62c2.53,0.06 3.59,2.07 3.59,4.38l0,16.02c0,1.97 1.6,3.16 3.58,3.16c1.99,0 3.59,-1.19 3.59,-3.16l0,-16.11c0,-5.88 -2.29,-11.28 -8.96,-11.28c-3.96,0 -7.23,2.01 -9.75,4.03c-1.61,-2.81 -4.29,-4.03 -7.36,-4.03c-3.62,0 -6.13,1.54 -8.22,3.03c-0.07,-1.89 -1.65,-3.03 -3.58,-3.03c-1.93,0 -3.58,1.19 -3.58,3.17l0,24.22c0,1.97 1.6,3.16 3.58,3.16c1.98,0 3.59,-1.19 3.59,-3.16l0,-17.78c1.94,-1.6 4.06,-2.68 6.42,-2.62c2.18,0.05 3.55,1.76 3.55,3.87l0,16.52c0,1.97 1.6,3.17 3.59,3.17c1.98,0 3.58,-1.2 3.58,-3.17l0,-16.46c0,-0.42 -0.03,-0.89 -0.06,-1.33l-0.01,0.02zm-36.73,2.49c0,-3.04 -1.28,-4.92 -4.75,-4.92c-3.47,0 -4.74,1.88 -4.74,4.92l0,8.09c0,1.71 0.57,4.29 3.55,4.29c2.98,0 5.12,-2.22 5.93,-5.45l0,-6.92l0.01,-0.01zm7.16,0l0,15.29c0,1.99 -1.6,3.17 -3.59,3.17c-1.98,0 -3.58,-1.19 -3.58,-3.17l0,-0.55c-2,2.79 -3.9,3.71 -7.11,3.73c-5.85,0.03 -9.54,-3.7 -9.54,-10.37l0,-8.09c0,-7.97 4.4,-11.5 11.91,-11.5c7.5,0 11.9,3.53 11.9,11.5l0.01,-0.01zm-48.84,0c0,-3.04 -1.27,-4.92 -4.74,-4.92c-3.47,0 -4.75,1.88 -4.75,4.92l0,8.09c0,1.71 0.57,4.29 3.55,4.29c2.99,0 5.13,-2.22 5.93,-5.45l0,-6.92l0.01,-0.01zm7.16,0l0,15.29c0,1.99 -1.6,3.17 -3.58,3.17c-1.99,0 -3.59,-1.19 -3.59,-3.17l0,-0.55c-2,2.79 -3.89,3.71 -7.11,3.73c-5.84,0.03 -9.54,-3.7 -9.54,-10.37l0,-8.09c0,-7.97 4.41,-11.5 11.91,-11.5c7.5,0 11.91,3.53 11.91,11.5l0,-0.01zm-36.23,17.41l0,-2.68c-2,2.79 -3.9,3.72 -7.11,3.73c-5.85,0.03 -9.54,-3.7 -9.54,-10.37l0,-8.09c0,-7.97 4.4,-11.49 11.9,-11.49c7.51,0 11.91,3.52 11.91,11.49l0,17.41c0,9.57 -6.27,13.71 -13.48,13.71l-3.66,0c-1.82,0 -3.29,-1.48 -3.29,-3.29c0,-1.81 1.47,-3.28 3.29,-3.28l3.66,0c4.07,0 6.32,-2.69 6.32,-7.14l0,0zm0,-17.41c0,-3.04 -1.28,-4.92 -4.75,-4.92c-3.47,0 -4.74,1.88 -4.74,4.92l0,8.09c0,1.71 0.57,4.29 3.55,4.29c2.98,0 5.12,-2.22 5.93,-5.45l0,-6.92l0.01,-0.01zm-30.82,-12.1c-3.62,0 -6.13,1.54 -8.22,3.03c-0.08,-1.89 -1.65,-3.03 -3.58,-3.03c-1.93,0 -3.59,1.19 -3.59,3.17l0,24.22c0,1.97 1.6,3.16 3.59,3.16c1.98,0 3.58,-1.19 3.58,-3.16l0,-17.78c1.95,-1.6 4.06,-2.68 6.43,-2.62c2.17,0.05 3.55,1.84 3.55,3.94l0,16.46c0,1.97 1.6,3.16 3.58,3.16c1.99,0 3.59,-1.19 3.59,-3.16l0,-17c0,-5.85 -2.73,-10.39 -8.93,-10.39l0,0zm72.49,27.39c0,1.97 1.61,3.16 3.59,3.16c1.98,0 3.58,-1.19 3.58,-3.16l0,-36.64c0,-1.98 -1.6,-3.17 -3.58,-3.17c-1.98,0 -3.59,1.2 -3.59,3.17l0,36.64zm-139.52,-17.78c1.94,-1.6 4.09,-2.67 6.45,-2.62c2.53,0.06 3.59,2.07 3.59,4.38l0,16.02c0,1.97 1.6,3.16 3.58,3.16c1.99,0 3.59,-1.19 3.59,-3.16l0,-16.11c0,-5.88 -2.29,-11.28 -8.96,-11.28c-3.96,0 -7.23,2.01 -9.75,4.03c-1.6,-2.81 -4.29,-4.03 -7.36,-4.03c-3.61,0 -6.13,1.54 -8.22,3.03c-0.07,-1.89 -1.65,-3.03 -3.58,-3.03c-1.93,0 -3.59,1.19 -3.59,3.17l0,24.22c0,1.97 1.61,3.16 3.59,3.16c1.98,0 3.59,-1.19 3.59,-3.16l0,-17.78c1.94,-1.6 4.06,-2.68 6.42,-2.62c2.18,0.05 3.55,1.76 3.55,3.87l0,16.52c0,1.97 1.6,3.17 3.59,3.17c1.98,0 3.58,-1.2 3.58,-3.17l0,-16.46c0,-0.42 -0.03,-0.89 -0.06,-1.33l-0.01,0.02zm46.35,2.49l0,15.29c0,1.99 -1.61,3.17 -3.59,3.17c-1.98,0 -3.58,-1.19 -3.58,-3.17l0,-0.55c-2,2.79 -3.9,3.71 -7.11,3.73c-5.85,0.03 -9.54,-3.7 -9.54,-10.37l0,-8.09c0,-7.97 4.4,-11.5 11.9,-11.5c7.5,0 11.91,3.53 11.91,11.5l0.01,-0.01z" fill="#0071bc" id="svg_1"/>
  <path clip-rule="evenodd" d="m107.88,38.56l-5.94,-12.73l-5.93,12.73c-0.44,0.89 -0.69,1.89 -0.69,2.95c0,3.66 2.96,6.63 6.63,6.63c3.66,0 6.63,-2.97 6.63,-6.63c0,-1.07 -0.25,-2.06 -0.69,-2.96l-0.01,0.01z" fill="#0072BC" fill-rule="evenodd" id="svg_2"/>
  <path clip-rule="evenodd" d="m55.41,38.71l11.2,-24.03c1.55,-3.32 5.49,-4.75 8.81,-3.2c3.32,1.54 4.76,5.49 3.2,8.81l-11.2,24.03c-1.54,3.32 -5.49,4.75 -8.81,3.2c-3.32,-1.54 -4.75,-5.49 -3.2,-8.81z" fill="#C4122F" fill-rule="evenodd" id="svg_3"/>
  <path clip-rule="evenodd" d="m75.67,38.71l11.2,-24.03c1.55,-3.32 5.49,-4.75 8.81,-3.2c3.32,1.54 4.76,5.49 3.21,8.81l-11.2,24.03c-1.55,3.32 -5.49,4.75 -8.81,3.2c-3.32,-1.54 -4.76,-5.49 -3.21,-8.81z" fill="#F58220" fill-rule="evenodd" id="svg_4"/>
  <path d="m63.98,54.53l0.57,0l0,-1.4c0,-0.13 0.02,-0.25 0.06,-0.33c0.05,-0.1 0.11,-0.17 0.19,-0.22c0.08,-0.05 0.17,-0.07 0.28,-0.08c0.16,0 0.28,0.05 0.37,0.16c0.09,0.1 0.13,0.25 0.14,0.45l0,1.42l0.57,0l0,-1.41c0,-0.14 0.02,-0.24 0.07,-0.34c0.04,-0.09 0.11,-0.16 0.19,-0.21c0.08,-0.05 0.17,-0.07 0.27,-0.07c0.16,0 0.29,0.05 0.37,0.16c0.09,0.1 0.13,0.25 0.13,0.45l0,1.42l0.57,0l0,-1.59c0,-0.2 -0.04,-0.37 -0.11,-0.52c-0.07,-0.14 -0.17,-0.25 -0.3,-0.32c-0.13,-0.07 -0.29,-0.11 -0.47,-0.12c-0.12,0 -0.23,0.03 -0.33,0.06c-0.11,0.04 -0.2,0.09 -0.28,0.15c-0.09,0.07 -0.16,0.15 -0.23,0.23c-0.04,-0.08 -0.1,-0.16 -0.17,-0.23c-0.07,-0.06 -0.15,-0.11 -0.24,-0.15c-0.1,-0.03 -0.21,-0.06 -0.33,-0.06c-0.13,0 -0.23,0.03 -0.33,0.07c-0.09,0.04 -0.17,0.09 -0.24,0.16c-0.07,0.06 -0.13,0.13 -0.18,0.21l0,-0.39l-0.57,0l0,2.5zm6.57,0l0,-1.48c0,-0.23 -0.05,-0.41 -0.12,-0.57c-0.08,-0.16 -0.21,-0.27 -0.37,-0.36c-0.17,-0.09 -0.37,-0.12 -0.61,-0.12c-0.14,0 -0.26,0.01 -0.37,0.03c-0.11,0.01 -0.21,0.04 -0.3,0.07c-0.09,0.03 -0.19,0.06 -0.28,0.11l0.16,0.46c0.07,-0.03 0.15,-0.06 0.22,-0.09c0.07,-0.02 0.15,-0.04 0.23,-0.05c0.08,-0.01 0.17,-0.02 0.26,-0.02c0.2,0 0.35,0.04 0.45,0.14c0.11,0.09 0.16,0.22 0.16,0.39l0,0.05c-0.06,-0.02 -0.13,-0.04 -0.19,-0.06c-0.07,-0.01 -0.15,-0.03 -0.23,-0.03c-0.08,-0.01 -0.17,-0.02 -0.27,-0.02c-0.14,0 -0.28,0.02 -0.4,0.05c-0.12,0.04 -0.23,0.09 -0.33,0.15c-0.09,0.07 -0.15,0.16 -0.2,0.26c-0.05,0.1 -0.08,0.22 -0.08,0.35c0,0.14 0.02,0.25 0.07,0.34c0.05,0.1 0.11,0.18 0.19,0.24c0.09,0.06 0.18,0.11 0.28,0.15c0.11,0.04 0.22,0.05 0.34,0.05c0.13,0 0.24,-0.01 0.34,-0.05c0.1,-0.03 0.19,-0.07 0.26,-0.13c0.08,-0.06 0.15,-0.11 0.21,-0.18l0,0.31l0.56,0l0.02,0.01zm-0.56,-0.9c0,0.11 -0.02,0.19 -0.08,0.27c-0.06,0.08 -0.14,0.14 -0.24,0.18c-0.1,0.05 -0.21,0.07 -0.34,0.07c-0.09,0 -0.17,-0.02 -0.24,-0.05c-0.07,-0.02 -0.13,-0.07 -0.17,-0.12c-0.05,-0.06 -0.07,-0.12 -0.07,-0.2c0,-0.09 0.02,-0.16 0.07,-0.22c0.05,-0.05 0.11,-0.1 0.2,-0.12c0.08,-0.03 0.18,-0.05 0.31,-0.05c0.11,0 0.21,0.01 0.31,0.03c0.1,0.02 0.18,0.04 0.26,0.07l0,0.15l-0.01,-0.01zm1.24,0.9l0.57,0l0,-1.41c0,-0.13 0.02,-0.24 0.07,-0.33c0.05,-0.09 0.11,-0.17 0.19,-0.21c0.09,-0.05 0.18,-0.07 0.3,-0.07c0.17,0 0.3,0.06 0.39,0.16c0.1,0.1 0.14,0.25 0.14,0.45l0,1.42l0.57,0l0,-1.59c0,-0.2 -0.04,-0.37 -0.11,-0.51c-0.07,-0.15 -0.17,-0.25 -0.3,-0.33c-0.13,-0.08 -0.3,-0.13 -0.48,-0.13c-0.13,0 -0.25,0.03 -0.34,0.07c-0.09,0.04 -0.18,0.09 -0.25,0.16c-0.07,0.06 -0.14,0.13 -0.19,0.21l0,-0.39l-0.57,0l0,2.5l0.01,0zm4.03,0.76c0.22,0 0.43,-0.03 0.6,-0.08c0.17,-0.06 0.31,-0.14 0.43,-0.25c0.1,-0.1 0.18,-0.23 0.24,-0.39c0.05,-0.16 0.08,-0.34 0.08,-0.55l0,-1.98l-0.57,0l0,0.38c-0.07,-0.08 -0.14,-0.16 -0.22,-0.22c-0.08,-0.07 -0.18,-0.12 -0.28,-0.15c-0.11,-0.04 -0.23,-0.06 -0.37,-0.06c-0.12,0 -0.23,0.02 -0.34,0.05c-0.11,0.04 -0.22,0.09 -0.31,0.15c-0.09,0.07 -0.18,0.15 -0.25,0.24c-0.07,0.09 -0.13,0.2 -0.17,0.32c-0.05,0.13 -0.07,0.26 -0.07,0.41c0,0.15 0.02,0.28 0.07,0.4c0.04,0.13 0.09,0.23 0.17,0.33c0.07,0.09 0.16,0.17 0.25,0.24c0.09,0.06 0.2,0.11 0.31,0.15c0.11,0.03 0.22,0.05 0.35,0.05c0.13,0 0.25,-0.02 0.36,-0.06c0.11,-0.04 0.2,-0.09 0.29,-0.16c0.09,-0.06 0.16,-0.15 0.23,-0.24l0,0.2c0,0.25 -0.07,0.44 -0.2,0.57c-0.14,0.13 -0.33,0.19 -0.58,0.19c-0.18,0 -0.33,-0.02 -0.48,-0.07c-0.14,-0.05 -0.29,-0.11 -0.42,-0.2l-0.21,0.43c0.16,0.1 0.34,0.18 0.52,0.23c0.19,0.05 0.39,0.08 0.59,0.08l-0.02,-0.01zm0.05,-1.44c-0.1,0 -0.18,-0.01 -0.27,-0.05c-0.09,-0.03 -0.16,-0.08 -0.22,-0.14c-0.07,-0.07 -0.12,-0.14 -0.15,-0.22c-0.04,-0.08 -0.06,-0.18 -0.06,-0.28c0,-0.11 0.02,-0.21 0.06,-0.28c0.03,-0.09 0.08,-0.16 0.15,-0.22c0.06,-0.06 0.13,-0.11 0.22,-0.14c0.09,-0.03 0.18,-0.05 0.28,-0.05c0.1,0 0.19,0.02 0.28,0.05c0.09,0.04 0.16,0.08 0.23,0.15c0.06,0.05 0.12,0.13 0.16,0.21c0.03,0.09 0.05,0.18 0.05,0.28c0,0.11 -0.02,0.2 -0.05,0.29c-0.04,0.09 -0.1,0.16 -0.16,0.22c-0.07,0.06 -0.14,0.1 -0.23,0.14c-0.09,0.04 -0.18,0.05 -0.28,0.05l-0.01,-0.01zm4.1,0.68l0,-1.48c0,-0.23 -0.05,-0.41 -0.12,-0.57c-0.08,-0.16 -0.21,-0.27 -0.37,-0.36c-0.17,-0.09 -0.37,-0.12 -0.61,-0.12c-0.14,0 -0.26,0.01 -0.37,0.03c-0.11,0.01 -0.21,0.04 -0.3,0.07c-0.09,0.03 -0.19,0.06 -0.28,0.11l0.16,0.46c0.07,-0.03 0.15,-0.06 0.22,-0.09c0.07,-0.02 0.15,-0.04 0.23,-0.05c0.08,-0.01 0.17,-0.02 0.26,-0.02c0.2,0 0.35,0.04 0.45,0.14c0.11,0.09 0.16,0.22 0.16,0.39l0,0.05c-0.06,-0.02 -0.13,-0.04 -0.19,-0.06c-0.07,-0.01 -0.15,-0.03 -0.23,-0.03c-0.08,-0.01 -0.17,-0.02 -0.27,-0.02c-0.14,0 -0.28,0.02 -0.4,0.05c-0.12,0.04 -0.23,0.09 -0.33,0.15c-0.09,0.07 -0.15,0.16 -0.2,0.26c-0.05,0.1 -0.08,0.22 -0.08,0.35c0,0.14 0.03,0.25 0.07,0.34c0.05,0.1 0.11,0.18 0.19,0.24c0.09,0.06 0.18,0.11 0.28,0.15c0.11,0.04 0.22,0.05 0.34,0.05c0.13,0 0.24,-0.01 0.34,-0.05c0.1,-0.03 0.19,-0.07 0.26,-0.13c0.08,-0.06 0.15,-0.11 0.21,-0.18l0,0.31l0.56,0l0.02,0.01zm-0.56,-0.9c0,0.11 -0.02,0.19 -0.08,0.27c-0.06,0.08 -0.14,0.14 -0.24,0.18c-0.1,0.05 -0.21,0.07 -0.34,0.07c-0.09,0 -0.17,-0.02 -0.24,-0.05c-0.07,-0.02 -0.13,-0.07 -0.17,-0.12c-0.05,-0.06 -0.07,-0.12 -0.07,-0.2c0,-0.09 0.02,-0.16 0.07,-0.22c0.05,-0.05 0.11,-0.1 0.2,-0.12c0.08,-0.03 0.18,-0.05 0.31,-0.05c0.11,0 0.21,0.01 0.31,0.03c0.1,0.02 0.19,0.04 0.26,0.07l0,0.15l-0.01,-0.01zm1.27,0.9l0.57,0l0,-3.44l-0.57,0l0,3.44zm3.41,0l0,-1.48c0,-0.23 -0.05,-0.41 -0.13,-0.57c-0.08,-0.16 -0.2,-0.27 -0.36,-0.36c-0.17,-0.09 -0.37,-0.12 -0.61,-0.12c-0.14,0 -0.26,0.01 -0.37,0.03c-0.11,0.02 -0.21,0.04 -0.3,0.07c-0.1,0.03 -0.19,0.06 -0.28,0.11l0.16,0.46c0.07,-0.03 0.15,-0.06 0.22,-0.09c0.07,-0.02 0.15,-0.04 0.23,-0.05c0.08,-0.01 0.16,-0.02 0.26,-0.02c0.2,0 0.35,0.04 0.45,0.14c0.11,0.09 0.16,0.22 0.16,0.39l0,0.05c-0.07,-0.02 -0.13,-0.04 -0.2,-0.06c-0.06,-0.01 -0.14,-0.03 -0.22,-0.03c-0.08,-0.01 -0.17,-0.02 -0.27,-0.02c-0.15,0 -0.28,0.02 -0.4,0.05c-0.13,0.04 -0.23,0.09 -0.33,0.15c-0.09,0.07 -0.16,0.16 -0.21,0.26c-0.05,0.1 -0.07,0.22 -0.08,0.35c0,0.14 0.03,0.25 0.08,0.34c0.05,0.1 0.11,0.18 0.19,0.24c0.09,0.06 0.18,0.11 0.28,0.15c0.11,0.04 0.22,0.05 0.34,0.05c0.13,0 0.24,-0.01 0.34,-0.05c0.1,-0.03 0.18,-0.07 0.26,-0.13c0.08,-0.06 0.15,-0.11 0.2,-0.18l0,0.31l0.57,0l0.02,0.01zm-0.56,-0.9c0,0.11 -0.03,0.19 -0.08,0.27c-0.06,0.08 -0.14,0.14 -0.24,0.18c-0.1,0.05 -0.21,0.07 -0.34,0.07c-0.09,0 -0.17,-0.02 -0.24,-0.05c-0.08,-0.02 -0.13,-0.07 -0.18,-0.12c-0.04,-0.06 -0.06,-0.12 -0.06,-0.2c0,-0.09 0.02,-0.16 0.07,-0.22c0.04,-0.05 0.11,-0.1 0.2,-0.12c0.08,-0.03 0.18,-0.05 0.3,-0.05c0.12,0 0.22,0.01 0.32,0.03c0.1,0.02 0.18,0.04 0.26,0.07l0,0.15l-0.01,-0.01zm1.23,0.9l0.57,0l0,-1.4c0,-0.13 0.02,-0.25 0.06,-0.33c0.05,-0.1 0.11,-0.17 0.19,-0.22c0.08,-0.05 0.17,-0.07 0.28,-0.08c0.16,0 0.28,0.05 0.37,0.16c0.09,0.1 0.13,0.25 0.14,0.45l0,1.42l0.57,0l0,-1.41c0,-0.14 0.02,-0.24 0.07,-0.34c0.04,-0.09 0.11,-0.16 0.19,-0.21c0.08,-0.05 0.17,-0.07 0.28,-0.07c0.15,0 0.28,0.05 0.37,0.16c0.09,0.1 0.13,0.25 0.13,0.45l0,1.42l0.57,0l0,-1.59c0,-0.2 -0.04,-0.37 -0.11,-0.52c-0.07,-0.14 -0.17,-0.25 -0.3,-0.32c-0.13,-0.07 -0.29,-0.11 -0.47,-0.12c-0.12,0 -0.24,0.03 -0.34,0.06c-0.1,0.04 -0.19,0.09 -0.28,0.15c-0.08,0.07 -0.16,0.15 -0.22,0.23c-0.04,-0.08 -0.1,-0.16 -0.17,-0.23c-0.07,-0.06 -0.15,-0.11 -0.25,-0.15c-0.09,-0.03 -0.2,-0.06 -0.32,-0.06c-0.13,0 -0.24,0.03 -0.33,0.07c-0.09,0.04 -0.18,0.09 -0.25,0.16c-0.07,0.06 -0.12,0.13 -0.17,0.21l0,-0.39l-0.57,0l0,2.5l-0.01,0zm4.45,0l0.62,0l0,-0.65l-0.62,0l0,0.65zm2.36,0.06c0.16,0 0.3,-0.03 0.43,-0.06c0.12,-0.04 0.23,-0.1 0.33,-0.17c0.09,-0.07 0.18,-0.15 0.26,-0.24l-0.34,-0.34c-0.06,0.07 -0.12,0.12 -0.19,0.17c-0.06,0.04 -0.14,0.07 -0.21,0.1c-0.08,0.03 -0.16,0.04 -0.25,0.05c-0.11,0 -0.21,-0.02 -0.3,-0.07c-0.09,-0.04 -0.17,-0.1 -0.24,-0.17c-0.06,-0.07 -0.11,-0.16 -0.15,-0.26c-0.03,-0.09 -0.06,-0.2 -0.06,-0.31c0,-0.12 0.03,-0.22 0.05,-0.31c0.04,-0.1 0.09,-0.18 0.16,-0.26c0.06,-0.07 0.14,-0.13 0.23,-0.17c0.08,-0.04 0.17,-0.06 0.28,-0.06c0.1,0 0.18,0.01 0.26,0.04c0.08,0.03 0.14,0.06 0.21,0.11c0.06,0.04 0.12,0.1 0.18,0.16l0.35,-0.38c-0.08,-0.08 -0.16,-0.16 -0.26,-0.22c-0.09,-0.07 -0.2,-0.12 -0.32,-0.15c-0.12,-0.04 -0.26,-0.06 -0.42,-0.06c-0.18,0 -0.36,0.04 -0.51,0.1c-0.16,0.07 -0.3,0.17 -0.41,0.28c-0.12,0.12 -0.21,0.26 -0.28,0.42c-0.06,0.16 -0.09,0.32 -0.1,0.5c0,0.19 0.04,0.35 0.1,0.51c0.07,0.16 0.15,0.29 0.27,0.41c0.11,0.12 0.25,0.21 0.41,0.28c0.16,0.07 0.33,0.1 0.51,0.1l0.01,0zm2.65,0c0.2,0 0.38,-0.04 0.54,-0.11c0.16,-0.06 0.3,-0.15 0.42,-0.28c0.12,-0.12 0.22,-0.25 0.28,-0.41c0.06,-0.15 0.1,-0.32 0.1,-0.5c0,-0.18 -0.04,-0.36 -0.1,-0.51c-0.06,-0.16 -0.16,-0.29 -0.27,-0.41c-0.13,-0.11 -0.26,-0.21 -0.42,-0.28c-0.16,-0.06 -0.34,-0.1 -0.53,-0.1c-0.2,0 -0.37,0.04 -0.53,0.1c-0.17,0.07 -0.31,0.16 -0.43,0.28c-0.12,0.12 -0.21,0.26 -0.28,0.42c-0.06,0.16 -0.1,0.32 -0.1,0.5c0,0.19 0.04,0.35 0.1,0.51c0.07,0.16 0.16,0.29 0.28,0.41c0.12,0.12 0.25,0.21 0.41,0.28c0.16,0.07 0.34,0.1 0.53,0.1l0,0zm0.02,-0.5c-0.12,0 -0.22,-0.02 -0.31,-0.07c-0.09,-0.04 -0.17,-0.1 -0.24,-0.17c-0.07,-0.07 -0.13,-0.16 -0.16,-0.26c-0.04,-0.09 -0.06,-0.2 -0.06,-0.31c0,-0.12 0.02,-0.22 0.05,-0.31c0.04,-0.09 0.09,-0.18 0.15,-0.25c0.07,-0.07 0.14,-0.13 0.24,-0.18c0.09,-0.04 0.19,-0.06 0.31,-0.06c0.11,0 0.21,0.02 0.31,0.06c0.09,0.05 0.17,0.11 0.24,0.18c0.06,0.07 0.12,0.16 0.16,0.25c0.03,0.09 0.06,0.2 0.06,0.31c0,0.11 -0.03,0.22 -0.05,0.31c-0.04,0.1 -0.09,0.18 -0.16,0.26c-0.06,0.07 -0.14,0.12 -0.23,0.17c-0.1,0.04 -0.2,0.06 -0.32,0.06l0.01,0.01zm1.9,0.44l0.57,0l0,-1.4c0,-0.13 0.02,-0.25 0.06,-0.33c0.05,-0.1 0.11,-0.17 0.19,-0.22c0.08,-0.05 0.17,-0.07 0.28,-0.08c0.16,0 0.28,0.05 0.38,0.16c0.08,0.1 0.13,0.25 0.13,0.45l0,1.42l0.57,0l0,-1.41c0,-0.14 0.02,-0.24 0.07,-0.34c0.04,-0.09 0.11,-0.16 0.19,-0.21c0.08,-0.05 0.17,-0.07 0.28,-0.07c0.16,0 0.29,0.05 0.37,0.16c0.09,0.1 0.13,0.25 0.13,0.45l0,1.42l0.57,0l0,-1.59c0,-0.2 -0.04,-0.37 -0.11,-0.52c-0.07,-0.14 -0.17,-0.25 -0.3,-0.32c-0.13,-0.07 -0.29,-0.11 -0.47,-0.12c-0.12,0 -0.23,0.03 -0.33,0.06c-0.11,0.04 -0.2,0.09 -0.29,0.15c-0.08,0.07 -0.15,0.15 -0.22,0.23c-0.04,-0.08 -0.1,-0.16 -0.17,-0.23c-0.07,-0.06 -0.15,-0.11 -0.24,-0.15c-0.1,-0.03 -0.21,-0.06 -0.33,-0.06c-0.13,0 -0.24,0.03 -0.33,0.07c-0.09,0.04 -0.18,0.09 -0.24,0.16c-0.07,0.06 -0.13,0.13 -0.19,0.21l0,-0.39l-0.57,0l0,2.5z" fill="black" id="svg_5"/>
 </g>
</svg>