<svg width="370" height="73" viewBox="0 0 370 73" fill="none" xmlns="http://www.w3.org/2000/svg">
<g clip-path="url(#clip0_210_32729)">
<g clip-path="url(#clip1_210_32729)">
<g filter="url(#filter0_d_210_32729)">
<path d="M13.4426 7.0083H356.557C357.654 7.0083 358.705 7.44384 359.481 8.2191C360.256 8.99435 360.691 10.0458 360.691 11.1422V55.5818C360.691 56.6782 360.256 57.7296 359.481 58.5049C358.705 59.2802 357.654 59.7157 356.557 59.7157H13.4426C12.3462 59.7157 11.2947 59.2802 10.5195 58.5049C9.74422 57.7296 9.30869 56.6782 9.30869 55.5818V11.1422C9.30869 10.0458 9.74422 8.99435 10.5195 8.2191C11.2947 7.44384 12.3462 7.0083 13.4426 7.0083Z" fill="#243D45"/>
</g>
<mask id="mask0_210_32729" style="mask-type:luminance" maskUnits="userSpaceOnUse" x="123" y="17" width="108" height="33">
<path d="M230.325 17.6885H123.823V49.0359H230.325V17.6885Z" fill="white"/>
</mask>
<g mask="url(#mask0_210_32729)">
<path d="M226.318 48.6424H127.828C126.869 48.6424 125.949 48.2613 125.27 47.5829C124.592 46.9046 124.211 45.9845 124.211 45.0252V21.6934C124.213 20.7355 124.595 19.8176 125.273 19.141C125.951 18.4644 126.87 18.0845 127.828 18.0845H226.318C227.278 18.0845 228.198 18.4656 228.876 19.1439C229.555 19.8223 229.936 20.7423 229.936 21.7016V45.0293C229.936 45.9887 229.555 46.9087 228.876 47.587C228.198 48.2654 227.278 48.6465 226.318 48.6465" fill="black"/>
<path d="M226.316 49.0359H127.831C126.769 49.0346 125.75 48.6119 124.999 47.8606C124.247 47.1092 123.825 46.0906 123.823 45.0281V21.6963C123.825 20.6338 124.247 19.6152 124.999 18.8639C125.75 18.1125 126.769 17.6898 127.831 17.6885H226.322C227.384 17.6898 228.403 18.1125 229.154 18.8639C229.905 19.6152 230.328 20.6338 230.329 21.6963V45.0281C230.328 46.0906 229.905 47.1092 229.154 47.8606C228.403 48.6119 227.384 49.0346 226.322 49.0359M127.831 18.4791C126.978 18.4802 126.16 18.8195 125.557 19.4226C124.954 20.0257 124.615 20.8434 124.614 21.6963V45.0281C124.615 45.881 124.954 46.6987 125.557 47.3018C126.16 47.9049 126.978 48.2442 127.831 48.2453H226.322C227.174 48.2442 227.992 47.9049 228.595 47.3018C229.198 46.6987 229.538 45.881 229.539 45.0281V21.6963C229.538 20.8425 229.198 20.024 228.593 19.4208C227.989 18.8175 227.17 18.4788 226.316 18.4791H127.831Z" fill="#96999C"/>
<path d="M177.548 34.8319C176.886 34.8346 176.24 35.0331 175.692 35.4026C175.143 35.772 174.716 36.2957 174.465 36.9076C174.213 37.5195 174.149 38.1921 174.28 38.8406C174.41 39.4891 174.73 40.0843 175.199 40.5511C175.667 41.0179 176.264 41.3353 176.913 41.4634C177.562 41.5915 178.234 41.5244 178.845 41.2707C179.456 41.0169 179.978 40.5879 180.345 40.0377C180.712 39.4875 180.908 38.8408 180.908 38.1794C180.915 37.7368 180.832 37.2976 180.665 36.8876C180.499 36.4777 180.251 36.1055 179.938 35.7932C179.624 35.4809 179.251 35.2348 178.84 35.0697C178.43 34.9046 177.99 34.8237 177.548 34.8319ZM177.548 40.206C177.14 40.2351 176.733 40.1408 176.38 39.9355C176.027 39.7301 175.744 39.4232 175.568 39.0548C175.392 38.6863 175.331 38.2733 175.392 37.8696C175.454 37.4659 175.636 37.0901 175.914 36.7912C176.193 36.4923 176.555 36.2841 176.953 36.1938C177.351 36.1034 177.768 36.1351 178.148 36.2847C178.528 36.4342 178.854 36.6947 179.084 37.0323C179.314 37.3699 179.437 37.7689 179.437 38.1773C179.449 38.4353 179.41 38.6932 179.321 38.9357C179.232 39.1783 179.096 39.4006 178.92 39.5897C178.744 39.7787 178.531 39.9306 178.296 40.0365C178.06 40.1423 177.806 40.2 177.548 40.206ZM170.217 34.8319C169.556 34.8344 168.91 35.0328 168.361 35.4021C167.812 35.7714 167.385 36.295 167.133 36.9069C166.882 37.5188 166.817 38.1915 166.948 38.84C167.078 39.4885 167.398 40.0838 167.867 40.5507C168.336 41.0176 168.932 41.3352 169.581 41.4633C170.23 41.5915 170.902 41.5245 171.513 41.2708C172.124 41.0171 172.646 40.588 173.014 40.0378C173.381 39.4876 173.577 38.8409 173.577 38.1794C173.583 37.7369 173.501 37.2977 173.334 36.8879C173.167 36.478 172.92 36.1059 172.606 35.7936C172.293 35.4813 171.92 35.2352 171.509 35.07C171.099 34.9048 170.66 34.8238 170.217 34.8319ZM170.217 40.206C169.81 40.2351 169.403 40.1408 169.05 39.9355C168.697 39.7301 168.414 39.4232 168.238 39.0548C168.061 38.6863 168 38.2733 168.062 37.8696C168.124 37.4659 168.306 37.0901 168.584 36.7912C168.862 36.4923 169.224 36.2841 169.623 36.1938C170.021 36.1034 170.437 36.1351 170.817 36.2847C171.197 36.4342 171.524 36.6947 171.753 37.0323C171.983 37.3699 172.106 37.7689 172.106 38.1773C172.119 38.4353 172.079 38.6932 171.99 38.9357C171.902 39.1783 171.765 39.4006 171.589 39.5897C171.413 39.7787 171.201 39.9306 170.965 40.0365C170.73 40.1423 170.475 40.2 170.217 40.206ZM161.494 35.8592V37.2792H164.892C164.843 37.9454 164.57 38.5755 164.118 39.0671C163.777 39.4143 163.367 39.6863 162.915 39.8653C162.463 40.0444 161.978 40.1267 161.492 40.1068C160.49 40.1068 159.529 39.7086 158.82 38.9998C158.111 38.291 157.713 37.3297 157.713 36.3274C157.713 35.325 158.111 34.3637 158.82 33.6549C159.529 32.9461 160.49 32.5479 161.492 32.5479C162.447 32.5349 163.368 32.8997 164.054 33.5628L165.056 32.5614C164.587 32.0976 164.031 31.732 163.419 31.486C162.807 31.2401 162.153 31.1187 161.494 31.129C160.802 31.1152 160.115 31.2395 159.472 31.4946C158.829 31.7497 158.243 32.1305 157.749 32.6146C157.255 33.0988 156.863 33.6767 156.595 34.3143C156.327 34.952 156.189 35.6367 156.189 36.3284C156.189 37.0201 156.327 37.7048 156.595 38.3424C156.863 38.9801 157.255 39.558 157.749 40.0421C158.243 40.5263 158.829 40.9071 159.472 41.1622C160.115 41.4173 160.802 41.5416 161.494 41.5278C162.167 41.5557 162.838 41.4401 163.464 41.1886C164.089 40.9372 164.653 40.5558 165.12 40.0696C165.949 39.1657 166.39 37.9735 166.351 36.748C166.354 36.4503 166.328 36.153 166.274 35.8602L161.494 35.8592ZM197.158 36.963C196.957 36.3566 196.574 35.8269 196.061 35.4458C195.548 35.0647 194.931 34.8508 194.292 34.833C193.862 34.8356 193.437 34.9254 193.042 35.097C192.648 35.2686 192.292 35.5184 191.997 35.8313C191.702 36.1442 191.474 36.5137 191.325 36.9175C191.177 37.3212 191.112 37.7509 191.135 38.1804C191.125 38.6206 191.204 39.0583 191.367 39.4672C191.53 39.8762 191.774 40.2481 192.085 40.5607C192.395 40.8732 192.765 41.12 193.172 41.2864C193.58 41.4528 194.017 41.5352 194.457 41.5289C195.009 41.5319 195.553 41.3979 196.04 41.1388C196.527 40.8798 196.942 40.5039 197.248 40.0448L196.111 39.2841C195.94 39.5696 195.698 39.8055 195.408 39.9686C195.118 40.1318 194.79 40.2164 194.457 40.2143C194.116 40.2273 193.779 40.1376 193.489 39.9566C193.2 39.7756 192.971 39.5118 192.834 39.1994L197.311 37.3484L197.158 36.963ZM192.593 38.0791C192.577 37.8355 192.61 37.5913 192.69 37.3606C192.77 37.13 192.895 36.9175 193.058 36.7358C193.221 36.554 193.418 36.4065 193.639 36.302C193.86 36.1974 194.099 36.1379 194.343 36.1269C194.596 36.1105 194.849 36.1691 195.07 36.2953C195.29 36.4216 195.469 36.6099 195.583 36.8369L192.593 38.0791ZM188.953 41.3253H190.431V31.4845H188.955L188.953 41.3253ZM186.546 35.5802H186.495C186.272 35.3372 185.999 35.1447 185.695 35.0157C185.391 34.8867 185.063 34.824 184.732 34.8319C183.867 34.8659 183.049 35.2335 182.449 35.8577C181.849 36.4818 181.513 37.314 181.513 38.1799C181.513 39.0457 181.849 39.8779 182.449 40.5021C183.049 41.1262 183.867 41.4938 184.732 41.5278C185.064 41.5366 185.393 41.4731 185.698 41.3418C186.002 41.2104 186.274 41.0144 186.495 40.7672H186.546V41.2488C186.546 42.5293 185.862 43.2124 184.758 43.2124C184.39 43.2037 184.033 43.0854 183.733 42.8728C183.432 42.6602 183.202 42.3628 183.072 42.0187L181.79 42.552C182.032 43.1398 182.443 43.642 182.972 43.9944C183.501 44.3468 184.123 44.5333 184.758 44.5301C186.483 44.5301 187.941 43.5152 187.941 41.0421V35.0345H186.546V35.5802ZM184.859 40.2091C184.35 40.1676 183.874 39.9358 183.528 39.5598C183.181 39.1839 182.989 38.6912 182.989 38.1799C182.989 37.6685 183.181 37.1759 183.528 36.7999C183.874 36.4239 184.35 36.1921 184.859 36.1506C185.354 36.2129 185.808 36.4534 186.138 36.827C186.467 37.2006 186.649 37.6817 186.649 38.1799C186.649 38.6781 186.467 39.1591 186.138 39.5327C185.808 39.9064 185.354 40.1469 184.859 40.2091ZM204.051 31.4845H200.532V41.3253H202.001V37.5965H204.052C204.468 37.6207 204.885 37.5596 205.277 37.417C205.669 37.2743 206.027 37.0532 206.331 36.767C206.634 36.4809 206.876 36.1358 207.041 35.7529C207.206 35.37 207.291 34.9574 207.291 34.5405C207.291 34.1235 207.206 33.7109 207.041 33.3281C206.876 32.9452 206.634 32.6001 206.331 32.3139C206.027 32.0278 205.669 31.8066 205.277 31.664C204.885 31.5213 204.468 31.4603 204.052 31.4845M204.09 36.2271H202.001V32.8538H204.09C204.538 32.8538 204.967 33.0315 205.283 33.3478C205.599 33.6642 205.777 34.0932 205.777 34.5405C205.777 34.9878 205.599 35.4168 205.283 35.7331C204.967 36.0494 204.538 36.2271 204.09 36.2271ZM213.167 34.8133C212.631 34.7821 212.098 34.908 211.632 35.1757C211.167 35.4433 210.789 35.8411 210.547 36.3201L211.851 36.8648C211.98 36.6264 212.176 36.4309 212.415 36.3024C212.653 36.1739 212.924 36.1179 213.194 36.1413C213.567 36.1047 213.939 36.2174 214.229 36.4548C214.518 36.6921 214.702 37.0347 214.739 37.4073V37.5107C214.268 37.2604 213.742 37.1301 213.208 37.1314C211.802 37.1314 210.372 37.9034 210.372 39.3472C210.386 39.6513 210.46 39.9497 210.591 40.2244C210.722 40.4992 210.907 40.7448 211.135 40.9468C211.363 41.1487 211.629 41.3028 211.918 41.4C212.206 41.4971 212.511 41.5353 212.815 41.5123C213.185 41.5341 213.554 41.4563 213.883 41.2871C214.213 41.1178 214.491 40.8634 214.689 40.5502H214.739V41.3098H216.157V37.5355C216.163 37.1535 216.087 36.7746 215.935 36.4241C215.783 36.0735 215.559 35.7592 215.276 35.5019C214.994 35.2445 214.66 35.0501 214.297 34.9314C213.934 34.8127 213.549 34.7725 213.17 34.8133M212.993 40.207C212.512 40.207 211.84 39.9662 211.84 39.372C211.84 38.6124 212.676 38.3209 213.397 38.3209C213.866 38.3079 214.33 38.4214 214.74 38.6496C214.687 39.0765 214.48 39.4694 214.159 39.7558C213.838 40.0421 213.424 40.2024 212.994 40.207M221.324 35.0293L219.64 39.2955H219.589L217.842 35.0293H216.26L218.879 40.9925L217.386 44.3089H218.918L222.957 35.0293H221.324ZM208.095 41.3253H209.564V31.4845H208.095V41.3253Z" fill="white"/>
<path d="M132.128 23.6508C131.87 23.959 131.74 24.3544 131.764 24.7556V42.149C131.74 42.5503 131.87 42.9456 132.128 43.2538L132.186 43.3107L141.93 33.567V33.3428L132.186 23.5991L132.128 23.6508Z" fill="#40BFF2"/>
</g>
<mask id="mask1_210_32729" style="mask-type:luminance" maskUnits="userSpaceOnUse" x="141" y="30" width="9" height="7">
<path d="M141.932 33.3373V33.5677L145.18 36.817L145.253 36.7746L149.102 34.5878C149.343 34.5106 149.553 34.359 149.702 34.1546C149.851 33.9503 149.932 33.7039 149.932 33.4509C149.932 33.198 149.851 32.9516 149.702 32.7472C149.553 32.5429 149.343 32.3912 149.102 32.3141L145.254 30.1273L145.18 30.0859L141.932 33.3373Z" fill="white"/>
</mask>
<g mask="url(#mask1_210_32729)">
<path d="M150.201 30.0889H141.931V36.8168H150.201V30.0889Z" fill="url(#paint0_linear_210_32729)"/>
</g>
<mask id="mask2_210_32729" style="mask-type:luminance" maskUnits="userSpaceOnUse" x="132" y="33" width="14" height="11">
<path d="M132.129 43.2588C132.353 43.4565 132.639 43.5696 132.938 43.5784C133.237 43.5873 133.529 43.4914 133.764 43.3073L145.253 36.7747L141.932 33.4531L132.129 43.2588Z" fill="white"/>
</mask>
<g mask="url(#mask2_210_32729)">
<path d="M138.691 26.8912L127.013 38.5698L138.691 50.2484L150.37 38.5698L138.691 26.8912Z" fill="url(#paint1_linear_210_32729)"/>
</g>
<mask id="mask3_210_32729" style="mask-type:luminance" maskUnits="userSpaceOnUse" x="132" y="23" width="14" height="11">
<path d="M132.129 23.6504L141.931 33.4529L145.253 30.1313L133.764 23.6018C133.498 23.439 133.194 23.3478 132.883 23.3372C132.742 23.3336 132.603 23.3593 132.473 23.4127C132.344 23.4661 132.226 23.546 132.129 23.6473" fill="white"/>
</mask>
<g mask="url(#mask3_210_32729)">
<path d="M138.692 16.7761L127.072 28.3955L138.692 40.0149L150.311 28.3955L138.692 16.7761Z" fill="url(#paint2_linear_210_32729)"/>
</g>
<mask id="mask4_210_32729" style="mask-type:luminance" maskUnits="userSpaceOnUse" x="123" y="17" width="108" height="33">
<path d="M230.325 17.6885H123.823V49.0359H230.325V17.6885Z" fill="white"/>
</mask>
<g mask="url(#mask4_210_32729)">
<path d="M160.002 24.2067C159.695 23.9328 159.298 23.781 158.887 23.7799C158.426 23.7956 157.989 23.9898 157.669 24.3214C157.348 24.6531 157.169 25.0963 157.169 25.5575C157.169 26.0187 157.348 26.4619 157.669 26.7935C157.989 27.1252 158.426 27.3193 158.887 27.3351C159.067 27.3536 159.249 27.3357 159.422 27.2824C159.594 27.229 159.755 27.1413 159.893 27.0246C160.031 26.9078 160.144 26.7644 160.225 26.6028C160.307 26.4413 160.354 26.265 160.366 26.0845H159.047V25.5368H161.077C161.077 27.1635 160.21 27.9293 158.886 27.9293C158.256 27.9293 157.651 27.6789 157.205 27.2331C156.759 26.7873 156.509 26.1827 156.509 25.5523C156.509 24.9219 156.759 24.3173 157.205 23.8715C157.651 23.4257 158.256 23.1753 158.886 23.1753C159.467 23.1734 160.026 23.3921 160.452 23.7871L160.002 24.2067Z" fill="white"/>
<path d="M164.675 23.2334V23.8173H162.557V25.2962H164.406V25.8812H162.557V27.2795H164.741V27.8634H161.933V23.2334H164.675Z" fill="white"/>
<path d="M168.728 23.233V23.8231H167.323V27.864H166.692V23.8231H165.287V23.2319L168.728 23.233Z" fill="white"/>
<path d="M171.726 23.2334H171.101V27.8644H171.726V23.2334Z" fill="white"/>
<path d="M175.988 23.233V23.8231H174.584V27.864H173.952V23.8231H172.547V23.2319L175.988 23.233Z" fill="white"/>
<path d="M180.397 23.1785C180.869 23.1709 181.332 23.3039 181.728 23.5604C182.124 23.8169 182.434 24.1855 182.62 24.6191C182.806 25.0527 182.858 25.5318 182.771 25.9954C182.684 26.459 182.46 26.8861 182.129 27.2223C181.799 27.5586 181.375 27.7888 180.913 27.8837C180.451 27.9785 179.971 27.9337 179.535 27.755C179.098 27.5763 178.724 27.2717 178.462 26.88C178.199 26.4883 178.058 26.0273 178.058 25.5555C178.054 25.2456 178.112 24.9379 178.228 24.6504C178.344 24.3628 178.515 24.101 178.733 23.8801C178.95 23.6591 179.209 23.4834 179.495 23.363C179.78 23.2426 180.087 23.1799 180.397 23.1785ZM180.397 27.3259C180.75 27.3374 181.098 27.2433 181.397 27.0556C181.696 26.8679 181.932 26.5952 182.075 26.2725C182.217 25.9498 182.261 25.5917 182.199 25.2442C182.137 24.8968 181.972 24.5758 181.726 24.3224C181.481 24.069 181.165 23.8948 180.82 23.8221C180.474 23.7493 180.115 23.7815 179.788 23.9143C179.461 24.0472 179.181 24.2746 178.984 24.5676C178.788 24.8606 178.683 25.2057 178.683 25.5586C178.678 25.7877 178.718 26.0156 178.802 26.2289C178.885 26.4423 179.01 26.6369 179.17 26.8014C179.329 26.9659 179.52 27.097 179.731 27.1871C179.941 27.2771 180.168 27.3243 180.397 27.3259Z" fill="white"/>
<path d="M186.447 27.8644L184.336 24.3764V27.8644H183.716V23.2334H184.336L186.426 26.6945V23.2334H187.051V27.8644H186.447Z" fill="white"/>
</g>
<mask id="mask5_210_32729" style="mask-type:luminance" maskUnits="userSpaceOnUse" x="241" y="17" width="107" height="33">
<path d="M347.509 17.6885H241.006V49.037H347.509V17.6885Z" fill="white"/>
</mask>
<g mask="url(#mask5_210_32729)">
<path d="M343.501 48.6414H245.011C244.536 48.6414 244.066 48.5478 243.627 48.366C243.188 48.1843 242.789 47.9178 242.453 47.5819C242.117 47.2461 241.851 46.8473 241.669 46.4084C241.487 45.9696 241.394 45.4992 241.394 45.0242V21.6934C241.396 20.7354 241.778 19.8172 242.456 19.1404C243.134 18.4636 244.053 18.0835 245.011 18.0835H343.501C344.461 18.0835 345.381 18.4646 346.059 19.1429C346.738 19.8213 347.119 20.7413 347.119 21.7007V45.0283C347.119 45.9877 346.738 46.9077 346.059 47.5861C345.381 48.2644 344.461 48.6455 343.501 48.6455" fill="black"/>
<path d="M343.5 49.037H245.014C243.951 49.0356 242.933 48.6128 242.181 47.8612C241.43 47.1097 241.007 46.0908 241.006 45.0281V21.6963C241.008 20.6338 241.43 19.6152 242.182 18.8639C242.933 18.1125 243.952 17.6898 245.014 17.6885H343.505C344.567 17.6898 345.586 18.1125 346.337 18.8639C347.088 19.6152 347.511 20.6338 347.512 21.6963V45.0281C347.511 46.0906 347.088 47.1092 346.337 47.8606C345.586 48.6119 344.567 49.0346 343.505 49.0359M245.014 18.4791C244.161 18.4802 243.343 18.8195 242.74 19.4226C242.137 20.0257 241.798 20.8434 241.797 21.6963V45.0281C241.798 45.881 242.137 46.6987 242.74 47.3018C243.343 47.9049 244.161 48.2442 245.014 48.2453H343.505C344.357 48.2442 345.175 47.9049 345.778 47.3018C346.381 46.6987 346.721 45.881 346.722 45.0281V21.6963C346.721 20.8427 346.381 20.0244 345.777 19.4211C345.173 18.8179 344.354 18.4791 343.5 18.4791H245.014Z" fill="#96999C"/>
<path d="M276.464 26.6031L276.02 28.0614H275.05L276.704 22.9126H277.902L279.576 28.0614H278.568L278.102 26.6021L276.464 26.6031ZM277.939 25.8921L277.532 24.624C277.429 24.314 277.35 23.9595 277.273 23.6619H277.261C277.185 23.9595 277.108 24.3192 277.017 24.624L276.619 25.8921H277.939Z" fill="white"/>
<path d="M280.977 24.3418L281.581 26.2289C281.684 26.5576 281.763 26.8552 281.833 27.1591H281.855C281.925 26.849 282.008 26.5627 282.108 26.2289L282.703 24.3418H283.687L282.266 28.0623H281.341L279.958 24.3418H280.977Z" fill="white"/>
<path d="M287.438 27.1685C287.432 27.4678 287.452 27.7669 287.499 28.0625H286.651L286.583 27.6491H286.56C286.427 27.8109 286.258 27.9398 286.068 28.0259C285.877 28.1119 285.668 28.1527 285.459 28.1452C285.309 28.1541 285.158 28.132 285.016 28.0803C284.874 28.0285 284.744 27.9483 284.635 27.8444C284.525 27.7406 284.438 27.6154 284.379 27.4766C284.32 27.3377 284.29 27.1882 284.29 27.0373C284.29 26.1072 285.123 25.6235 286.498 25.6318V25.5708C286.498 25.3259 286.395 24.9218 285.741 24.9218C285.389 24.9224 285.044 25.0173 284.741 25.1967L284.557 24.5859C284.968 24.361 285.432 24.2477 285.901 24.2572C286.111 24.2336 286.325 24.2583 286.524 24.3296C286.724 24.4008 286.905 24.5167 287.053 24.6684C287.201 24.8201 287.312 25.0036 287.379 25.205C287.445 25.4063 287.465 25.6201 287.436 25.8302L287.438 27.1685ZM286.522 26.2436C285.857 26.2353 285.223 26.3738 285.223 26.9391C285.216 27.011 285.226 27.0833 285.25 27.1511C285.275 27.2189 285.314 27.2804 285.365 27.3314C285.416 27.3823 285.478 27.4214 285.546 27.446C285.614 27.4705 285.686 27.4799 285.758 27.4734C285.92 27.4762 286.079 27.4277 286.212 27.3349C286.345 27.2422 286.445 27.1098 286.499 26.9567C286.518 26.8895 286.526 26.8197 286.522 26.75V26.2436Z" fill="white"/>
<path d="M289.232 23.8067C289.092 23.8056 288.957 23.7487 288.858 23.6486C288.759 23.5484 288.704 23.4132 288.704 23.2724C288.705 23.1316 288.761 22.9967 288.861 22.8973C288.961 22.798 289.096 22.7422 289.237 22.7422C289.377 22.7422 289.512 22.798 289.612 22.8973C289.712 22.9967 289.768 23.1316 289.769 23.2724C289.769 23.4132 289.714 23.5484 289.615 23.6486C289.516 23.7487 289.382 23.8056 289.241 23.8067H289.232ZM288.766 24.342H289.706V28.0625H288.766V24.342Z" fill="white"/>
<path d="M291.998 22.6304H291.059V28.0623H291.998V22.6304Z" fill="white"/>
<path d="M296.246 27.1684C296.239 27.4676 296.26 27.7668 296.307 28.0624H295.459L295.39 27.649H295.367C295.234 27.8108 295.066 27.9398 294.875 28.0258C294.684 28.1119 294.476 28.1527 294.267 28.145C294.116 28.1538 293.965 28.1316 293.823 28.0798C293.682 28.028 293.552 27.9478 293.442 27.8439C293.333 27.7401 293.246 27.615 293.187 27.4762C293.127 27.3375 293.097 27.188 293.098 27.0371C293.098 26.107 293.931 25.6234 295.305 25.6316V25.5706C295.305 25.3257 295.202 24.9216 294.549 24.9216C294.197 24.9222 293.851 25.0171 293.548 25.1965L293.365 24.5857C293.777 24.3606 294.24 24.2472 294.709 24.2571C294.92 24.2336 295.133 24.2585 295.332 24.3299C295.532 24.4012 295.713 24.5171 295.861 24.6687C296.009 24.8204 296.12 25.0038 296.187 25.205C296.253 25.4063 296.273 25.62 296.245 25.83L296.246 27.1684ZM295.329 26.2434C294.664 26.2352 294.031 26.3737 294.031 26.939C294.025 27.0107 294.034 27.083 294.059 27.1507C294.083 27.2184 294.122 27.2799 294.173 27.3308C294.224 27.3817 294.286 27.4209 294.353 27.4455C294.421 27.4701 294.493 27.4796 294.565 27.4733C294.727 27.4762 294.886 27.4278 295.019 27.335C295.153 27.2422 295.253 27.1098 295.306 26.9565C295.325 26.8894 295.333 26.8195 295.329 26.7498V26.2434Z" fill="white"/>
<path d="M297.573 22.6328H298.512V24.8558H298.528C298.657 24.6614 298.836 24.5042 299.045 24.3998C299.254 24.2954 299.487 24.2474 299.72 24.2605C300.629 24.2605 301.278 25.017 301.27 26.1477C301.301 26.3917 301.281 26.6394 301.211 26.8752C301.141 27.111 301.023 27.3298 300.864 27.5177C300.705 27.7057 300.51 27.8587 300.289 27.9673C300.068 28.0759 299.827 28.1375 299.582 28.1485C299.346 28.1604 299.111 28.1068 298.903 27.9935C298.696 27.8803 298.523 27.7118 298.406 27.5067H298.39L298.344 28.0648H297.542C297.557 27.8126 297.572 27.4002 297.572 27.0261L297.573 22.6328ZM298.512 26.529C298.512 26.6037 298.52 26.6781 298.535 26.7512C298.58 26.9383 298.687 27.1047 298.838 27.2239C298.989 27.3431 299.175 27.4081 299.368 27.4085C299.956 27.4085 300.315 26.9424 300.315 26.1869C300.315 25.5297 300.005 24.9953 299.376 24.9953C299.18 25.0001 298.992 25.0704 298.841 25.195C298.69 25.3196 298.585 25.4913 298.543 25.6826C298.524 25.7626 298.514 25.8444 298.513 25.9265L298.512 26.529Z" fill="white"/>
<path d="M303.317 22.6304H302.377V28.0623H303.317V22.6304Z" fill="white"/>
<path d="M305.341 26.4659C305.347 26.6067 305.382 26.7448 305.444 26.8713C305.506 26.9979 305.593 27.11 305.701 27.2006C305.809 27.2912 305.935 27.3583 306.07 27.3974C306.206 27.4366 306.348 27.447 306.487 27.428C306.839 27.433 307.189 27.3759 307.521 27.2596L307.659 27.9014C307.246 28.0658 306.805 28.1462 306.36 28.138C306.106 28.162 305.849 28.1302 305.608 28.0448C305.367 27.9595 305.148 27.8226 304.966 27.6437C304.783 27.4648 304.642 27.2482 304.551 27.0091C304.461 26.77 304.424 26.514 304.443 26.2592C304.421 26.0061 304.452 25.7513 304.533 25.5106C304.614 25.27 304.744 25.0487 304.915 24.8608C305.086 24.6728 305.294 24.5221 305.526 24.4183C305.757 24.3145 306.008 24.2597 306.262 24.2573C306.491 24.2577 306.716 24.3066 306.925 24.4005C307.133 24.4945 307.319 24.6315 307.471 24.8026C307.622 24.9736 307.736 25.1748 307.804 25.3929C307.872 25.611 307.893 25.8411 307.866 26.068C307.867 26.2013 307.857 26.3344 307.835 26.4659H305.341ZM306.976 25.8086C306.992 25.6971 306.983 25.5837 306.952 25.4757C306.92 25.3677 306.866 25.2675 306.793 25.1818C306.72 25.0961 306.63 25.0267 306.529 24.9781C306.427 24.9296 306.317 24.903 306.204 24.9001C305.972 24.9143 305.754 25.0159 305.594 25.1844C305.434 25.353 305.343 25.5761 305.341 25.8086H306.976Z" fill="white"/>
<path d="M312.497 28.1471C312.245 28.1562 311.995 28.1124 311.761 28.0185C311.527 27.9246 311.316 27.7827 311.141 27.602C310.966 27.4213 310.83 27.2058 310.743 26.9695C310.656 26.7332 310.62 26.4813 310.637 26.23C310.618 25.9702 310.654 25.7092 310.743 25.4644C310.832 25.2197 310.973 24.9967 311.155 24.8103C311.337 24.6239 311.557 24.4784 311.799 24.3834C312.042 24.2883 312.302 24.246 312.562 24.2592C312.813 24.2496 313.063 24.2928 313.295 24.3862C313.528 24.4797 313.739 24.6211 313.913 24.8013C314.088 24.9815 314.222 25.1964 314.308 25.4321C314.394 25.6678 314.429 25.9189 314.411 26.1691C314.431 26.4274 314.395 26.687 314.308 26.9308C314.22 27.1747 314.082 27.3972 313.902 27.584C313.723 27.7708 313.506 27.9176 313.266 28.0148C313.025 28.112 312.767 28.1575 312.508 28.1482L312.497 28.1471ZM312.527 27.4671C313.061 27.4671 313.435 26.9504 313.435 26.1918C313.435 25.611 313.176 24.9382 312.534 24.9382C311.869 24.9382 311.604 25.5872 311.604 26.2063C311.604 26.9245 311.964 27.4661 312.521 27.4661L312.527 27.4671Z" fill="white"/>
<path d="M315.514 25.4498C315.514 25.022 315.498 24.6633 315.483 24.3419H316.3L316.347 24.9H316.37C316.495 24.6987 316.672 24.5336 316.881 24.4211C317.09 24.3085 317.325 24.2524 317.562 24.2582C318.211 24.2582 318.884 24.6778 318.884 25.8549V28.0583H317.945V25.9614C317.945 25.4261 317.746 25.022 317.234 25.022C317.069 25.0257 316.91 25.0808 316.779 25.1794C316.648 25.2779 316.55 25.4152 316.501 25.5718C316.468 25.6675 316.452 25.7682 316.454 25.8694V28.0583H315.515L315.514 25.4498Z" fill="white"/>
<path d="M323.212 23.3872V24.3421H324.106V25.0449H323.212V26.6799C323.212 27.1387 323.334 27.3671 323.693 27.3671C323.816 27.3729 323.94 27.36 324.06 27.3289L324.075 28.0389C323.856 28.1113 323.626 28.1463 323.395 28.1422C323.246 28.1495 323.097 28.1257 322.958 28.0723C322.819 28.0189 322.692 27.9372 322.586 27.8322C322.356 27.5344 322.249 27.1595 322.288 26.7853V25.0449H321.756V24.3421H322.283V23.6476L323.212 23.3872Z" fill="white"/>
<path d="M325.152 22.6328H326.091V24.8486H326.107C326.224 24.6711 326.384 24.5266 326.573 24.429C326.771 24.3181 326.995 24.2601 327.222 24.2605C327.856 24.2605 328.521 24.6812 328.521 25.8728V28.0658H327.582V25.9699C327.582 25.4346 327.383 25.0222 326.858 25.0222C326.697 25.0238 326.54 25.0753 326.408 25.1696C326.277 25.264 326.178 25.3966 326.126 25.5493C326.097 25.6409 326.084 25.7366 326.087 25.8325V28.0627H325.148L325.152 22.6328Z" fill="white"/>
<path d="M330.522 26.4659C330.527 26.6067 330.562 26.7448 330.624 26.8713C330.686 26.9979 330.774 27.11 330.882 27.2006C330.99 27.2912 331.116 27.3583 331.251 27.3974C331.386 27.4366 331.528 27.447 331.668 27.428C332.02 27.433 332.37 27.3759 332.702 27.2596L332.84 27.9014C332.427 28.0658 331.985 28.1463 331.541 28.138C331.286 28.1622 331.03 28.1305 330.789 28.0452C330.548 27.9599 330.328 27.823 330.146 27.6441C329.963 27.4652 329.822 27.2486 329.731 27.0094C329.641 26.7702 329.604 26.5141 329.623 26.2592C329.601 26.0061 329.632 25.7513 329.713 25.5106C329.794 25.27 329.924 25.0487 330.095 24.8608C330.266 24.6728 330.473 24.5221 330.705 24.4183C330.937 24.3145 331.188 24.2597 331.442 24.2573C331.67 24.2576 331.896 24.3063 332.105 24.4002C332.313 24.4941 332.499 24.6312 332.651 24.8022C332.802 24.9733 332.916 25.1746 332.984 25.3928C333.052 25.6109 333.073 25.8411 333.046 26.068C333.047 26.2012 333.037 26.3343 333.016 26.4659H330.522ZM332.157 25.8086C332.172 25.6972 332.164 25.5838 332.132 25.4759C332.101 25.368 332.047 25.2679 331.974 25.1822C331.902 25.0965 331.812 25.027 331.71 24.9784C331.609 24.9298 331.498 24.9032 331.386 24.9001C331.154 24.9143 330.936 25.0159 330.776 25.1844C330.615 25.353 330.525 25.5761 330.523 25.8086H332.157Z" fill="white"/>
<path d="M264.775 33.0617C264.785 32.2885 264.991 31.5304 265.372 30.858C265.754 30.1856 266.3 29.6208 266.959 29.2161C266.54 28.6182 265.988 28.1262 265.346 27.779C264.705 27.4319 263.991 27.2392 263.261 27.2163C261.711 27.053 260.197 28.1465 259.406 28.1465C258.598 28.1465 257.375 27.2308 256.063 27.2577C255.213 27.2853 254.384 27.5326 253.658 27.9756C252.932 28.4186 252.332 29.0422 251.919 29.7856C250.128 32.886 251.464 37.4457 253.18 39.955C254.039 41.1828 255.04 42.5542 256.355 42.5046C257.64 42.4508 258.12 41.6861 259.671 41.6861C261.222 41.6861 261.659 42.5046 262.999 42.4736C264.377 42.4508 265.245 41.2406 266.073 40.0005C266.691 39.1261 267.166 38.1591 267.48 37.1357C266.679 36.7972 265.995 36.2303 265.514 35.5058C265.033 34.7813 264.776 33.9313 264.775 33.0617Z" fill="white"/>
<path d="M262.243 25.5624C262.996 24.6606 263.367 23.5001 263.277 22.3286C262.128 22.4495 261.068 22.9986 260.306 23.8664C259.934 24.2902 259.648 24.7834 259.466 25.3177C259.284 25.8521 259.209 26.417 259.246 26.9803C259.82 26.9861 260.388 26.8615 260.908 26.6159C261.427 26.3702 261.883 26.01 262.243 25.5624Z" fill="white"/>
<path d="M283.345 42.2995H281.556L280.571 39.2156H277.16L276.23 42.2995H274.489L277.867 31.8076H279.951L283.345 42.2995ZM280.279 37.9237L279.393 35.184C279.298 34.9084 279.121 34.2497 278.864 33.208H278.833C278.728 33.6551 278.562 34.3138 278.333 35.184L277.462 37.9237H280.279Z" fill="white"/>
<path d="M292.031 38.4213C292.092 39.5351 291.718 40.6291 290.987 41.4721C290.694 41.794 290.336 42.0495 289.936 42.2214C289.536 42.3932 289.104 42.4774 288.669 42.4684C288.247 42.5018 287.823 42.419 287.445 42.229C287.066 42.039 286.746 41.749 286.521 41.3904H286.491V45.3755H284.808V37.2224C284.808 36.4136 284.787 35.5837 284.746 34.7328H286.22L286.314 35.9316H286.345C286.599 35.5415 286.942 35.2163 287.344 34.9819C287.747 34.7476 288.199 34.6106 288.664 34.5819C289.129 34.5531 289.594 34.6335 290.022 34.8165C290.451 34.9996 290.83 35.2802 291.131 35.636C291.757 36.4274 292.075 37.4187 292.026 38.4264M290.313 38.4884C290.34 37.8442 290.165 37.2078 289.815 36.6664C289.653 36.4301 289.434 36.238 289.179 36.1075C288.923 35.977 288.64 35.9123 288.353 35.9192C287.94 35.9188 287.54 36.0653 287.224 36.3326C286.887 36.6079 286.653 36.9899 286.562 37.4157C286.516 37.5842 286.49 37.7577 286.484 37.9324V39.1943C286.47 39.7055 286.65 40.203 286.989 40.5864C287.153 40.7724 287.356 40.9197 287.583 41.0179C287.811 41.116 288.058 41.1624 288.305 41.1538C288.593 41.166 288.88 41.1054 289.138 40.9777C289.396 40.85 289.618 40.6593 289.783 40.4231C290.161 39.8525 290.347 39.1761 290.313 38.4926" fill="white"/>
<path d="M300.73 38.4211C300.791 39.5349 300.417 40.629 299.686 41.4719C299.393 41.794 299.035 42.0496 298.635 42.2215C298.234 42.3933 297.802 42.4775 297.367 42.4682C296.945 42.5019 296.522 42.4197 296.144 42.2304C295.766 42.0411 295.446 41.752 295.22 41.3944H295.189V45.3795H293.509V37.2222C293.509 36.4134 293.488 35.5835 293.447 34.7326H294.925L295.019 35.9314H295.051C295.306 35.5415 295.648 35.2164 296.05 34.9822C296.453 34.748 296.904 34.6111 297.369 34.5823C297.834 34.5536 298.299 34.6339 298.727 34.8168C299.156 34.9997 299.535 35.2802 299.836 35.6358C300.462 36.4273 300.779 37.4186 300.73 38.4262M299.018 38.4882C299.045 37.8439 298.87 37.2073 298.519 36.6662C298.357 36.4297 298.138 36.2375 297.883 36.107C297.628 35.9765 297.344 35.9119 297.057 35.919C296.644 35.919 296.244 36.0654 295.928 36.3324C295.592 36.608 295.359 36.9899 295.268 37.4155C295.22 37.5838 295.194 37.7574 295.189 37.9322V39.1941C295.175 39.7055 295.356 40.2032 295.695 40.5862C295.859 40.7724 296.062 40.9198 296.289 41.018C296.517 41.1161 296.764 41.1624 297.011 41.1536C297.299 41.1655 297.586 41.1048 297.844 40.9771C298.102 40.8495 298.324 40.6589 298.489 40.4229C298.866 39.8518 299.052 39.1758 299.019 38.4924" fill="white"/>
<path d="M310.462 39.3554C310.477 39.7647 310.401 40.1721 310.24 40.5488C310.079 40.9255 309.838 41.2622 309.532 41.535C308.729 42.1884 307.709 42.5159 306.676 42.4527C305.725 42.4975 304.782 42.271 303.955 41.7996L304.345 40.3992C305.077 40.8436 305.919 41.0751 306.776 41.0679C307.303 41.0999 307.826 40.9491 308.256 40.641C308.427 40.5044 308.564 40.3295 308.656 40.1303C308.748 39.931 308.792 39.7131 308.784 39.4939C308.788 39.2944 308.752 39.096 308.677 38.911C308.602 38.726 308.491 38.5583 308.349 38.418C307.927 38.0509 307.435 37.7747 306.902 37.6067C305.065 36.9178 304.147 35.9149 304.149 34.5983C304.138 34.195 304.219 33.7945 304.386 33.4273C304.553 33.06 304.802 32.7356 305.113 32.4786C305.839 31.8989 306.753 31.6049 307.681 31.6518C308.502 31.6241 309.318 31.7954 310.058 32.151L309.638 33.5204C309.02 33.1927 308.329 33.027 307.629 33.0388C307.13 33.008 306.637 33.163 306.246 33.4739C306.112 33.5928 306.005 33.7392 305.932 33.9031C305.86 34.067 305.824 34.2445 305.826 34.4236C305.822 34.6204 305.863 34.8154 305.947 34.9936C306.03 35.1717 306.154 35.3282 306.308 35.4509C306.77 35.8006 307.285 36.0741 307.833 36.2611C308.587 36.5263 309.269 36.962 309.827 37.5344C310.259 38.0411 310.487 38.6908 310.465 39.3564" fill="white"/>
<path d="M316.019 35.9925H314.167V39.6665C314.167 40.6008 314.494 41.0676 315.149 41.0669C315.4 41.0722 315.651 41.0465 315.895 40.9904L315.942 42.2668C315.521 42.405 315.078 42.4679 314.635 42.4528C314.348 42.469 314.06 42.4234 313.791 42.3189C313.523 42.2144 313.28 42.0536 313.079 41.8472C312.649 41.2586 312.449 40.5329 312.518 39.8071V35.9936H311.413V34.7338H312.518V33.3468L314.171 32.8477V34.7338H316.023L316.019 35.9925Z" fill="white"/>
<path d="M324.378 38.4532C324.419 39.4996 324.063 40.5229 323.382 41.318C323.032 41.7002 322.602 42.0013 322.124 42.2001C321.645 42.399 321.129 42.4909 320.611 42.4693C320.115 42.4914 319.619 42.4039 319.161 42.2129C318.702 42.022 318.291 41.7323 317.957 41.3645C317.285 40.5954 316.932 39.5996 316.968 38.5792C316.925 37.5241 317.29 36.4929 317.987 35.7C318.336 35.3243 318.762 35.0292 319.236 34.8354C319.711 34.6415 320.222 34.5536 320.734 34.5776C321.234 34.5573 321.732 34.6457 322.194 34.8366C322.656 35.0275 323.072 35.3164 323.412 35.6834C324.074 36.4508 324.419 37.4415 324.377 38.4542M322.632 38.509C322.651 37.8803 322.494 37.259 322.181 36.7138C322.04 36.4364 321.823 36.2043 321.556 36.044C321.29 35.8837 320.983 35.8017 320.672 35.8075C320.356 35.7986 320.044 35.8789 319.771 36.0392C319.499 36.1995 319.277 36.4333 319.131 36.7138C318.816 37.2699 318.66 37.9022 318.681 38.541C318.663 39.1691 318.818 39.79 319.131 40.3351C319.277 40.6124 319.497 40.8438 319.767 41.0037C320.036 41.1635 320.345 41.2454 320.658 41.2404C320.971 41.2426 321.277 41.1575 321.544 40.9948C321.81 40.8321 322.026 40.5983 322.166 40.3196C322.488 39.7714 322.649 39.1442 322.633 38.509" fill="white"/>
<path d="M329.84 36.2107C329.666 36.1795 329.489 36.164 329.312 36.1642C329.045 36.1522 328.78 36.2073 328.541 36.3243C328.301 36.4413 328.095 36.6165 327.94 36.8339C327.647 37.2753 327.5 37.7977 327.521 38.3272V42.2968H325.841L325.856 37.115C325.856 36.2427 325.835 35.4487 325.794 34.7328H327.257L327.319 36.1797H327.365C327.524 35.7074 327.816 35.2912 328.206 34.9808C328.557 34.7185 328.983 34.5764 329.421 34.5757C329.562 34.575 329.702 34.5851 329.841 34.6057L329.84 36.2107Z" fill="white"/>
<path d="M337.358 38.1564C337.362 38.412 337.342 38.6674 337.297 38.9191H332.251C332.24 39.2408 332.3 39.561 332.426 39.8571C332.552 40.1532 332.742 40.4179 332.982 40.6326C333.452 41.0004 334.039 41.1874 334.635 41.1597C335.331 41.1684 336.022 41.0471 336.673 40.8021L336.937 41.9699C336.132 42.2989 335.268 42.4582 334.399 42.4381C333.892 42.4663 333.384 42.3891 332.909 42.2112C332.433 42.0333 332 41.7586 331.636 41.4046C331.293 41.0311 331.027 40.5931 330.855 40.116C330.683 39.6388 330.607 39.1322 330.633 38.6256C330.594 37.5955 330.924 36.5855 331.563 35.7763C331.877 35.3809 332.281 35.0651 332.74 34.8545C333.2 34.6439 333.702 34.5444 334.207 34.564C334.69 34.5369 335.171 34.6341 335.606 34.8463C336.04 35.0586 336.413 35.3788 336.688 35.7763C337.15 36.4827 337.383 37.3147 337.354 38.1585M335.751 37.7223C335.774 37.2689 335.661 36.8189 335.426 36.4305C335.286 36.2028 335.088 36.0174 334.851 35.8939C334.615 35.7705 334.349 35.7138 334.082 35.7298C333.82 35.7256 333.561 35.7859 333.328 35.9054C333.095 36.0249 332.895 36.1999 332.745 36.415C332.458 36.794 332.285 37.2473 332.248 37.7213L335.751 37.7223Z" fill="white"/>
</g>
<path d="M39.3974 25.2028C39.4056 25.925 39.2754 26.642 39.0139 27.3152C38.7717 27.9356 38.4044 28.4995 37.935 28.9719C37.4592 29.4433 36.8904 29.8104 36.2649 30.0498C35.572 30.313 34.8357 30.4431 34.0946 30.4332H30.1085V19.9724H34.0946C34.836 19.9624 35.5725 20.0935 36.2649 20.3589C36.8899 20.6017 37.4584 20.9703 37.935 21.442C38.4047 21.9128 38.7717 22.4758 39.0129 23.0955C39.2741 23.7671 39.4046 24.4823 39.3974 25.2028ZM37.4007 25.2028C37.4085 24.6789 37.3317 24.1572 37.1733 23.6577C37.0374 23.2301 36.8131 22.8357 36.515 22.5003C36.226 22.1845 35.8701 21.9373 35.4732 21.7768C35.0352 21.6023 34.567 21.5163 34.0956 21.5236H32.0617V28.883H34.0946C34.566 28.8904 35.0342 28.8043 35.4722 28.6298C35.869 28.4693 36.225 28.2221 36.514 27.9064C36.812 27.5709 37.0363 27.1766 37.1723 26.7489C37.3311 26.2492 37.4083 25.7271 37.4007 25.2028ZM44.0149 22.895C44.5279 22.8883 45.0375 22.9791 45.5166 23.1627C45.952 23.3309 46.3465 23.5898 46.6741 23.9223C47.0043 24.2651 47.2573 24.6746 47.4161 25.1232C47.5958 25.6318 47.684 26.1682 47.6766 26.7075C47.6843 27.2493 47.5962 27.7881 47.4161 28.2991C47.2568 28.7475 47.0055 29.1576 46.6782 29.5031C46.3523 29.8393 45.9574 30.1009 45.5207 30.2699C45.0419 30.4531 44.5327 30.5435 44.0201 30.5366C43.5038 30.5435 42.9907 30.4527 42.5081 30.2689C42.0696 30.1011 41.6728 29.8397 41.3455 29.5031C41.0161 29.1564 40.7623 28.7449 40.6003 28.295C40.418 27.7845 40.3288 27.2454 40.3368 26.7034C40.3292 26.1638 40.4184 25.6272 40.6003 25.1191C40.7618 24.6722 41.0157 24.2644 41.3455 23.9223C41.6741 23.5892 42.0702 23.3302 42.5071 23.1627C42.99 22.9788 43.5034 22.888 44.0201 22.895H44.0149ZM44.0149 29.1672C44.277 29.1866 44.5397 29.1401 44.7791 29.0317C45.0185 28.9234 45.2269 28.7568 45.3853 28.5471C45.7174 27.9996 45.873 27.3631 45.8308 26.7241C45.8721 26.0829 45.7167 25.4443 45.3853 24.8938C45.2284 24.6819 45.0205 24.5131 44.781 24.4031C44.5414 24.2931 44.2779 24.2454 44.0149 24.2644C43.7485 24.2449 43.4814 24.2925 43.2382 24.403C42.995 24.5136 42.7834 24.6834 42.6228 24.8969C42.2885 25.4444 42.1312 26.0818 42.1723 26.722C42.1305 27.3609 42.2888 27.997 42.6249 28.542C42.787 28.7541 42.9995 28.9225 43.2432 29.0317C43.4868 29.1408 43.7539 29.1874 44.0201 29.1672H44.0149ZM59.5171 23.0108L57.1649 30.4332H55.7325C55.5685 30.4332 55.4552 30.3271 55.3925 30.1149L54.0572 25.825C54.0138 25.6803 53.9739 25.5366 53.9374 25.394C53.9009 25.2514 53.8719 25.1081 53.8506 24.9641C53.8216 25.1088 53.7892 25.2545 53.7534 25.4012C53.7176 25.548 53.6776 25.694 53.6335 25.8394L52.2817 30.1149C52.2681 30.2058 52.2215 30.2885 52.1507 30.3472C52.08 30.4059 51.9902 30.4365 51.8983 30.4332H50.5238L48.1726 23.0108H49.5978C49.7157 23.0072 49.8319 23.0401 49.9306 23.1048C50.017 23.1607 50.0811 23.2452 50.1114 23.3436L51.1749 27.308C51.2279 27.525 51.2748 27.7372 51.3154 27.9446C51.3561 28.152 51.3905 28.3587 51.4188 28.5647C51.4718 28.358 51.5283 28.1513 51.5883 27.9446C51.6482 27.7379 51.7119 27.5257 51.7795 27.308L53.0093 23.3291C53.0379 23.233 53.0975 23.149 53.1788 23.0904C53.2689 23.0256 53.3779 22.9925 53.4888 22.9963H54.2774C54.3921 22.993 54.5049 23.0259 54.5998 23.0904C54.686 23.1465 54.75 23.2309 54.7807 23.3291L55.9744 27.308C56.0371 27.525 56.096 27.7386 56.1511 27.9488C56.2062 28.1589 56.2603 28.3673 56.3133 28.574C56.3795 28.1475 56.4689 27.7248 56.581 27.308L57.6744 23.3436C57.7082 23.247 57.7715 23.1635 57.8553 23.1048C57.9459 23.0411 58.0546 23.0081 58.1653 23.0108H59.5171ZM62.2042 23.9223C62.3528 23.7744 62.5109 23.6363 62.6775 23.5089C62.8418 23.3824 63.0188 23.2733 63.2056 23.1834C63.3968 23.0934 63.597 23.0241 63.803 22.9767C64.0307 22.9241 64.2638 22.8985 64.4975 22.9002C64.8672 22.8935 65.2343 22.9639 65.5754 23.1069C65.8784 23.2365 66.1473 23.4346 66.3608 23.6857C66.5778 23.9474 66.7402 24.2499 66.8383 24.5755C66.9499 24.9439 67.0046 25.3273 67.0005 25.7123V30.4332H65.2188V25.7092C65.2428 25.3329 65.133 24.9602 64.9088 24.6571C64.7894 24.5272 64.642 24.4261 64.4779 24.3615C64.3137 24.2969 64.137 24.2704 63.9611 24.284C63.6592 24.2815 63.3613 24.3524 63.093 24.4907C62.8094 24.6406 62.5507 24.8334 62.3261 25.0622V30.4332H60.5361V23.0108H61.6285C61.7305 23.0035 61.8318 23.0321 61.915 23.0915C61.9982 23.1509 62.0581 23.2375 62.0843 23.3363L62.2042 23.9223ZM70.502 19.6851V30.4332H68.7182V19.6851H70.502ZM75.5732 22.8971C76.0859 22.8905 76.5951 22.9813 77.0738 23.1648C77.5092 23.333 77.9038 23.5919 78.2313 23.9244C78.5611 24.2673 78.8138 24.6767 78.9723 25.1253C79.152 25.6339 79.2402 26.1703 79.2328 26.7096C79.2406 27.2513 79.1524 27.7902 78.9723 28.3012C78.8128 28.7488 78.5615 29.1582 78.2344 29.5031C77.9085 29.8393 77.5136 30.1009 77.0769 30.2699C76.5981 30.4531 76.0889 30.5435 75.5763 30.5366C75.06 30.5435 74.547 30.4527 74.0644 30.2689C73.6262 30.1009 73.2298 29.8396 72.9027 29.5031C72.5733 29.1564 72.3196 28.7449 72.1576 28.295C71.9753 27.7845 71.886 27.2454 71.8941 26.7034C71.8864 26.1638 71.9757 25.6272 72.1576 25.1191C72.319 24.6722 72.5729 24.2644 72.9027 23.9223C73.2314 23.5892 73.6274 23.3302 74.0644 23.1627C74.547 22.979 75.06 22.8881 75.5763 22.895L75.5732 22.8971ZM75.5732 29.1693C75.8353 29.1887 76.098 29.1421 76.3374 29.0338C76.5768 28.9255 76.7852 28.7589 76.9436 28.5492C77.2757 28.0017 77.4313 27.3651 77.3891 26.7261C77.4304 26.0849 77.275 25.4464 76.9436 24.8959C76.7867 24.684 76.5788 24.5152 76.3393 24.4052C76.0997 24.2951 75.8362 24.2474 75.5732 24.2665C75.3068 24.2469 75.0397 24.2946 74.7965 24.4051C74.5533 24.5156 74.3417 24.6854 74.1811 24.899C73.8462 25.4467 73.6885 26.0844 73.7295 26.7251C73.6878 27.364 73.846 28.0001 74.1822 28.5451C74.3445 28.7565 74.557 28.9242 74.8004 29.0328C75.0439 29.1414 75.3105 29.1876 75.5763 29.1672L75.5732 29.1693ZM84.5221 27.2667C84.0856 27.2822 83.6506 27.3267 83.2199 27.4C82.9283 27.447 82.6439 27.531 82.3735 27.6501C82.1931 27.7261 82.0359 27.8484 81.9178 28.0046C81.8278 28.1341 81.7798 28.2881 81.7803 28.4459C81.7682 28.5723 81.7874 28.6997 81.836 28.817C81.8847 28.9343 81.9613 29.0379 82.0593 29.1186C82.2723 29.2629 82.5258 29.3353 82.7828 29.3253C83.1112 29.3335 83.4371 29.2652 83.7346 29.1259C84.0296 28.9724 84.2951 28.7681 84.519 28.5223L84.5221 27.2667ZM80.4306 24.0453C81.2671 23.2706 82.3715 22.8505 83.5114 22.8733C83.91 22.8669 84.3059 22.9396 84.6761 23.0873C85.0048 23.2202 85.301 23.4225 85.5442 23.6805C85.7853 23.9419 85.9687 24.2511 86.0827 24.5879C86.2092 24.9605 86.2717 25.3519 86.2677 25.7454V30.4332H85.4574C85.323 30.4406 85.1888 30.4147 85.0668 30.3578C84.9585 30.2849 84.8812 30.1744 84.8497 30.0477L84.6906 29.5124C84.5156 29.6708 84.332 29.8195 84.1408 29.9578C83.9662 30.0832 83.7796 30.1909 83.5837 30.2792C83.3849 30.3681 83.177 30.4349 82.9636 30.4787C82.7255 30.5264 82.4831 30.5496 82.2402 30.5479C81.946 30.5506 81.6532 30.5078 81.3721 30.4208C81.1191 30.3431 80.885 30.2136 80.6848 30.0405C80.4891 29.8678 80.3357 29.6525 80.2363 29.4111C80.125 29.133 80.0709 28.8353 80.0771 28.5358C80.0775 28.3448 80.1093 28.1552 80.1712 27.9746C80.2401 27.7795 80.3453 27.5993 80.4812 27.4434C80.6418 27.2586 80.828 27.0978 81.0341 26.9659C81.2949 26.8003 81.5759 26.669 81.8702 26.5753C82.2469 26.4532 82.633 26.3622 83.0246 26.3035C83.5229 26.2286 84.0256 26.1865 84.5294 26.1774V25.7433C84.5585 25.3505 84.4439 24.9604 84.2069 24.6458C84.0893 24.5224 83.9461 24.4264 83.7874 24.3644C83.6286 24.3024 83.4582 24.2761 83.2882 24.2871C83.0429 24.2807 82.7983 24.3156 82.5647 24.3905C82.3906 24.4508 82.2224 24.5273 82.0624 24.6189L81.6677 24.8462C81.5476 24.9151 81.4113 24.9508 81.2729 24.9496C81.159 24.9532 81.047 24.919 80.9546 24.8524C80.8718 24.7901 80.8016 24.7126 80.7479 24.6241L80.4306 24.0453ZM92.606 24.9062C92.4305 24.683 92.2036 24.5057 91.9446 24.3895C91.7009 24.2853 91.4386 24.2319 91.1736 24.2324C90.9218 24.2285 90.6723 24.2804 90.4429 24.3843C90.2219 24.4889 90.0305 24.647 89.8859 24.8442C89.7178 25.079 89.5974 25.3444 89.5314 25.6255C89.4437 25.9913 89.4024 26.3666 89.4084 26.7427C89.4015 27.1133 89.4362 27.4835 89.5118 27.8464C89.5656 28.1089 89.6676 28.359 89.8125 28.5843C89.9297 28.7642 90.0952 28.9075 90.29 28.9977C90.4883 29.0844 90.7029 29.1278 90.9194 29.1248C91.2504 29.1349 91.578 29.0549 91.8671 28.8933C92.15 28.7192 92.3998 28.4963 92.605 28.235L92.606 24.9062ZM94.3929 19.6851V30.4332H93.3005C93.199 30.4425 93.0975 30.4147 93.015 30.3548C92.9325 30.2949 92.8746 30.2071 92.852 30.1077L92.7 29.3915C92.4073 29.7262 92.0574 30.0062 91.6666 30.2183C91.2495 30.4372 90.7837 30.5467 90.3127 30.5366C89.926 30.543 89.5432 30.4581 89.1955 30.2885C88.8521 30.1149 88.5538 29.8636 88.3243 29.5548C88.0639 29.1974 87.8732 28.7942 87.7621 28.3663C87.6225 27.8377 87.5558 27.2925 87.5637 26.7458C87.5593 26.2261 87.6349 25.7088 87.7879 25.2121C87.9237 24.7655 88.1421 24.3483 88.4318 23.9823C88.7038 23.641 89.047 23.3631 89.4373 23.1679C89.8472 22.9684 90.2982 22.8682 90.754 22.8754C91.1182 22.8658 91.4804 22.9323 91.8174 23.0707C92.1092 23.1993 92.3761 23.378 92.606 23.5988V19.6851H94.3929ZM41.4488 36.508V46.9689H39.7374V40.212C39.7374 39.9419 39.7518 39.6501 39.7808 39.3366L36.6194 45.276C36.5596 45.407 36.4625 45.5173 36.3402 45.5933C36.2179 45.6692 36.076 45.7073 35.9321 45.7029H35.6613C35.5175 45.7073 35.3755 45.6692 35.2532 45.5933C35.131 45.5173 35.0339 45.407 34.9741 45.276L31.7724 39.3149C31.7868 39.4741 31.7989 39.6308 31.8085 39.7852C31.8182 39.9395 31.823 40.0818 31.823 40.212V46.9689H30.1085V36.508H31.577C31.6638 36.508 31.7386 36.5104 31.8013 36.5153C31.8592 36.5191 31.9163 36.5313 31.9708 36.5514C32.0232 36.5719 32.0702 36.6041 32.1082 36.6455C32.1553 36.6979 32.1953 36.7563 32.2271 36.8191L35.3606 42.6283C35.4426 42.7826 35.5184 42.9418 35.588 43.1057C35.6575 43.2697 35.7264 43.4385 35.7947 43.6121C35.8636 43.4337 35.9325 43.2615 36.0014 43.0954C36.0703 42.9294 36.1474 42.7692 36.2329 42.6148L39.3219 36.8201C39.3542 36.7566 39.3957 36.6981 39.4449 36.6465C39.4854 36.6048 39.5344 36.5724 39.5886 36.5514C39.6434 36.5312 39.7008 36.519 39.7591 36.5153C39.8218 36.5104 39.8965 36.508 39.9833 36.508H41.4488ZM46.5563 39.4307C47.0693 39.4239 47.5789 39.5148 48.0579 39.6984C48.4933 39.8666 48.8878 40.1255 49.2154 40.458C49.5452 40.8009 49.7979 41.2103 49.9564 41.6589C50.1361 42.1675 50.2243 42.7039 50.2168 43.2432C50.2246 43.7849 50.1365 44.3238 49.9564 44.8348C49.7967 45.2849 49.5443 45.6965 49.2154 46.0429C48.8895 46.3791 48.4946 46.6407 48.0579 46.8097C47.5789 46.9933 47.0693 47.0842 46.5563 47.0774C46.0399 47.0843 45.5269 46.9935 45.0443 46.8097C44.6064 46.6413 44.2104 46.3796 43.8837 46.0429C43.5543 45.6961 43.3006 45.2847 43.1386 44.8348C42.7865 43.8054 42.7865 42.6882 43.1386 41.6589C43.3001 41.2103 43.5547 40.801 43.8858 40.458C44.2141 40.125 44.6098 39.866 45.0464 39.6984C45.5293 39.5145 46.0427 39.4237 46.5594 39.4307H46.5563ZM46.5563 45.7029C46.8185 45.7225 47.0814 45.676 47.321 45.5676C47.5606 45.4593 47.7692 45.2926 47.9277 45.0828C48.2598 44.5352 48.4153 43.8987 48.3731 43.2597C48.4145 42.6185 48.2591 41.98 47.9277 41.4294C47.7707 41.2174 47.5626 41.0485 47.3229 40.9385C47.0831 40.8285 46.8194 40.7808 46.5563 40.8001C46.2897 40.7806 46.0226 40.8285 45.7794 40.9392C45.5361 41.0498 45.3246 41.2199 45.1642 41.4336C44.8293 41.9813 44.6716 42.619 44.7125 43.2597C44.6711 43.8983 44.8293 44.534 45.1652 45.0787C45.3273 45.2905 45.5397 45.4585 45.7831 45.5675C46.0266 45.6765 46.2934 45.723 46.5594 45.7029H46.5563ZM53.371 45.0445C53.5465 45.2677 53.7735 45.445 54.0324 45.5613C54.2717 45.6627 54.5291 45.7144 54.789 45.7132C55.044 45.7175 55.297 45.6671 55.531 45.5654C55.7549 45.4627 55.9481 45.303 56.0911 45.1024C56.2601 44.8602 56.3804 44.5875 56.4456 44.2994C56.5339 43.9166 56.5752 43.5244 56.5686 43.1316C56.6186 42.5142 56.4771 41.8964 56.1635 41.3623C56.0294 41.1822 55.8529 41.0381 55.6497 40.9427C55.4465 40.8473 55.2229 40.8037 54.9987 40.8156C54.6836 40.8084 54.3727 40.8901 54.1017 41.0512C53.8226 41.2289 53.5756 41.4525 53.371 41.7126V45.0445ZM53.371 40.458C53.6575 40.1536 53.9937 39.9002 54.3652 39.7087C54.7531 39.5173 55.1812 39.4217 55.6137 39.4297C56.0149 39.4236 56.4121 39.5102 56.7743 39.6829C57.1207 39.8521 57.4229 40.0998 57.6569 40.4063C57.9142 40.7497 58.1046 41.1385 58.218 41.5524C58.3541 42.0447 58.4198 42.5537 58.4134 43.0644C58.42 43.6199 58.3444 44.1732 58.1891 44.7066C58.0574 45.1642 57.8404 45.5927 57.5494 45.9695C57.2775 46.3192 56.928 46.6008 56.5286 46.7922C56.1292 46.9836 55.6907 47.0794 55.2478 47.0722C55.0361 47.0746 54.8248 47.0517 54.6184 47.004C54.4392 46.9605 54.2658 46.896 54.1017 46.8118C53.9436 46.7308 53.7963 46.6301 53.6635 46.5121C53.5271 46.3901 53.4 46.2581 53.2832 46.1173L53.2036 46.6165C53.1869 46.7204 53.1343 46.8151 53.0548 46.8841C52.971 46.9412 52.8708 46.9692 52.7695 46.9637H51.5872V36.2207H53.3741L53.371 40.458ZM61.6471 39.5464V46.9689H59.8561V39.5464H61.6471ZM61.8931 37.3834C61.8941 37.5332 61.862 37.6814 61.799 37.8174C61.676 38.0862 61.4565 38.299 61.1841 38.4138C61.0424 38.4746 60.8898 38.5055 60.7356 38.5047C60.5848 38.5054 60.4355 38.4744 60.2974 38.4138C60.1637 38.3563 60.0421 38.2743 59.9388 38.1719C59.837 38.0696 59.755 37.9495 59.6969 37.8174C59.6365 37.6808 59.6059 37.5328 59.607 37.3834C59.6059 37.2293 59.6365 37.0766 59.6969 36.9348C59.8111 36.6631 60.0264 36.4463 60.2974 36.3303C60.4355 36.2696 60.5848 36.2386 60.7356 36.2393C60.8898 36.2385 61.0424 36.2694 61.1841 36.3303C61.32 36.3876 61.444 36.4696 61.55 36.5721C61.6551 36.6758 61.7397 36.7986 61.799 36.9338C61.8632 37.075 61.8963 37.2283 61.8962 37.3834H61.8931ZM65.2819 36.2207V46.9689H63.495V36.2207H65.2819ZM71.8506 42.4061C71.8523 42.184 71.8195 41.9629 71.7535 41.7509C71.6925 41.5533 71.5927 41.3699 71.46 41.2114C71.3249 41.0536 71.1556 40.9288 70.965 40.8466C70.7445 40.7532 70.5068 40.7074 70.2674 40.7122C70.0448 40.6998 69.8221 40.7325 69.6125 40.8083C69.403 40.8841 69.2109 41.0016 69.0479 41.1535C68.7278 41.498 68.5286 41.9373 68.4805 42.405L71.8506 42.4061ZM68.4402 43.484C68.4612 43.8216 68.5308 44.1543 68.6469 44.472C68.7392 44.7269 68.8819 44.9607 69.0665 45.1593C69.2396 45.3397 69.4517 45.4783 69.6865 45.5644C69.9406 45.6561 70.2091 45.7013 70.4792 45.6977C70.7325 45.7021 70.9849 45.6672 71.2275 45.5944C71.4167 45.5353 71.6007 45.4602 71.7773 45.3701C71.9337 45.2881 72.0715 45.2133 72.1907 45.1458C72.2943 45.0817 72.413 45.046 72.5348 45.0425C72.6 45.0384 72.6652 45.0516 72.7236 45.0808C72.7821 45.11 72.8318 45.1542 72.8676 45.2089L73.3843 45.86C73.1927 46.0863 72.9684 46.2828 72.7188 46.4428C72.4774 46.5974 72.2191 46.7236 71.9488 46.819C71.6837 46.9126 71.4098 46.9795 71.1313 47.0185C70.864 47.0564 70.5943 47.0757 70.3242 47.0764C69.8326 47.0809 69.3444 46.994 68.8846 46.8201C68.4483 46.6537 68.0533 46.3945 67.7271 46.0605C67.3861 45.705 67.1225 45.2827 66.953 44.8203C66.7554 44.2696 66.6598 43.6876 66.6709 43.1026C66.6675 42.6154 66.7507 42.1314 66.9168 41.6733C67.0717 41.242 67.3114 40.8459 67.6217 40.5086C67.9368 40.1717 68.3187 39.9043 68.743 39.7232C69.2153 39.5241 69.7239 39.4256 70.2364 39.4338C70.678 39.4292 71.1169 39.5052 71.5313 39.6581C71.9147 39.7997 72.2627 40.0229 72.5513 40.3123C72.8452 40.6141 73.0729 40.9738 73.22 41.3685C73.3888 41.8257 73.4711 42.3104 73.4629 42.7978C73.4783 42.984 73.4485 43.1712 73.3761 43.3434C73.3379 43.3941 73.287 43.4338 73.2286 43.4585C73.1702 43.4832 73.1062 43.492 73.0433 43.484H68.4402ZM83.6323 43.021L82.3622 39.5392C82.2995 39.3849 82.2343 39.2016 82.1668 38.9894C82.0993 38.7772 82.0304 38.5481 81.9601 38.3021C81.8974 38.5481 81.8323 38.7782 81.7648 38.9925C81.6973 39.2068 81.6322 39.3938 81.5695 39.5537L80.3076 43.0189L83.6323 43.021ZM87.0717 46.9689H85.567C85.4186 46.9755 85.2726 46.9306 85.1536 46.8418C85.0492 46.7601 84.9671 46.6535 84.9148 46.5317L84.1315 44.3935H79.8012L79.0199 46.5276C78.9747 46.6477 78.897 46.7528 78.7956 46.8314C78.6787 46.9252 78.532 46.974 78.3822 46.9689H76.863L80.9804 36.508H82.9626L87.0717 46.9689ZM89.6471 45.0445C89.8226 45.2677 90.0496 45.445 90.3086 45.5613C90.555 45.6641 90.8198 45.7158 91.0868 45.7132C91.3386 45.7171 91.5881 45.6652 91.8174 45.5613C92.0382 45.4567 92.2286 45.2973 92.3704 45.0983C92.5361 44.861 92.6553 44.5945 92.7217 44.3128C92.8095 43.9467 92.8508 43.571 92.8447 43.1946C92.8516 42.824 92.817 42.4538 92.7414 42.0909C92.6879 41.8296 92.5859 41.5807 92.4406 41.3571C92.3229 41.1793 92.1594 41.0365 91.9673 40.9437C91.7686 40.8542 91.5527 40.8097 91.3348 40.8135C91.0033 40.8035 90.6754 40.885 90.3871 41.0491C90.1047 41.2252 89.8551 41.449 89.6492 41.7105L89.6471 45.0445ZM89.5531 40.5613C89.8472 40.2266 90.1968 39.9452 90.5866 39.7294C91.0054 39.5092 91.4736 39.3996 91.9466 39.4111C92.3318 39.4064 92.7125 39.4931 93.0576 39.6643C93.3997 39.8387 93.6968 40.0898 93.9257 40.398C94.1866 40.7546 94.378 41.1571 94.49 41.5845C94.6297 42.1117 94.6964 42.6555 94.6885 43.2008C94.6933 43.7229 94.6176 44.2427 94.4642 44.7417C94.3288 45.1877 94.1119 45.6047 93.8245 45.9716C93.5534 46.3136 93.21 46.5913 92.8189 46.7849C92.4075 46.9843 91.9552 47.0844 91.4981 47.0774C91.1346 47.0869 90.773 47.0218 90.4357 46.8862C90.1423 46.7588 89.875 46.5784 89.6471 46.354V49.3924H87.8603V39.5464H88.9526C89.0546 39.5392 89.1559 39.5677 89.2391 39.6271C89.3223 39.6866 89.3822 39.7732 89.4084 39.872L89.5531 40.5613ZM97.8654 45.0466C98.0411 45.2699 98.2685 45.4472 98.5278 45.5634C98.7739 45.6661 99.0383 45.7177 99.305 45.7153C99.5568 45.7191 99.8063 45.6673 100.036 45.5634C100.256 45.4587 100.447 45.2993 100.589 45.1004C100.754 44.8631 100.874 44.5966 100.94 44.3149C101.028 43.9488 101.069 43.5731 101.063 43.1967C101.07 42.8261 101.035 42.4558 100.96 42.0929C100.906 41.8318 100.805 41.5829 100.66 41.3592C100.542 41.1812 100.378 41.0384 100.186 40.9458C99.9865 40.8561 99.7702 40.8117 99.552 40.8156C99.2205 40.8056 98.8926 40.8871 98.6043 41.0512C98.3219 41.2273 98.0722 41.4511 97.8664 41.7126L97.8654 45.0466ZM97.7734 40.5613C98.0674 40.2266 98.4171 39.9452 98.8069 39.7294C99.2257 39.5092 99.6939 39.3996 100.167 39.4111C100.552 39.4064 100.933 39.4931 101.278 39.6643C101.62 39.8387 101.917 40.0898 102.146 40.398C102.407 40.7546 102.598 41.1571 102.71 41.5845C102.85 42.1117 102.917 42.6555 102.909 43.2008C102.914 43.7229 102.838 44.2427 102.684 44.7417C102.549 45.1877 102.332 45.6047 102.045 45.9716C101.774 46.3136 101.43 46.5913 101.039 46.7849C100.628 46.9841 100.176 47.0843 99.7194 47.0774C99.3556 47.0871 98.9937 47.022 98.656 46.8862C98.3626 46.7588 98.0953 46.5784 97.8674 46.354V49.3924H96.0785V39.5464H97.1709C97.2728 39.5392 97.3742 39.5677 97.4574 39.6271C97.5406 39.6866 97.6004 39.7732 97.6266 39.872L97.7734 40.5613Z" fill="white"/>
</g>
</g>
<defs>
<filter id="filter0_d_210_32729" x="3.10782" y="3.90787" width="363.784" height="65.1093" filterUnits="userSpaceOnUse" color-interpolation-filters="sRGB">
<feFlood flood-opacity="0" result="BackgroundImageFix"/>
<feColorMatrix in="SourceAlpha" type="matrix" values="0 0 0 0 0 0 0 0 0 0 0 0 0 0 0 0 0 0 127 0" result="hardAlpha"/>
<feOffset dy="3.10043"/>
<feGaussianBlur stdDeviation="3.10043"/>
<feColorMatrix type="matrix" values="0 0 0 0 0 0 0 0 0 0 0 0 0 0 0 0 0 0 0.161 0"/>
<feBlend mode="normal" in2="BackgroundImageFix" result="effect1_dropShadow_210_32729"/>
<feBlend mode="normal" in="SourceGraphic" in2="effect1_dropShadow_210_32729" result="shape"/>
</filter>
<linearGradient id="paint0_linear_210_32729" x1="123.82" y1="49.0348" x2="124.316" y2="49.0348" gradientUnits="userSpaceOnUse">
<stop stop-color="#FFD700"/>
<stop offset="0.075" stop-color="#FECE00"/>
<stop offset="0.48" stop-color="#FCA704"/>
<stop offset="0.803" stop-color="#FA8E07"/>
<stop offset="1" stop-color="#FA8608"/>
</linearGradient>
<linearGradient id="paint1_linear_210_32729" x1="135.573" y1="56.4731" x2="135.912" y2="56.1344" gradientUnits="userSpaceOnUse">
<stop stop-color="#E82C36"/>
<stop offset="1" stop-color="#B4005A"/>
</linearGradient>
<linearGradient id="paint2_linear_210_32729" x1="142.759" y1="53.4934" x2="143.107" y2="53.1448" gradientUnits="userSpaceOnUse">
<stop stop-color="#2F8F5B"/>
<stop offset="0.389" stop-color="#4EA157"/>
<stop offset="0.768" stop-color="#67B054"/>
<stop offset="1" stop-color="#70B653"/>
</linearGradient>
<clipPath id="clip0_210_32729">
<rect width="370" height="71.31" fill="white" transform="translate(0 0.807617)"/>
</clipPath>
<clipPath id="clip1_210_32729">
<rect width="370" height="71.31" fill="white" transform="translate(0 0.807617)"/>
</clipPath>
</defs>
</svg>
