<svg width="32" height="33" viewBox="0 0 32 33" fill="none" xmlns="http://www.w3.org/2000/svg">
<rect y="0.316895" width="32" height="32" rx="16" fill="black" fill-opacity="0.52"/>
<path fill-rule="evenodd" clip-rule="evenodd" d="M11 7.31689H21C21.2652 7.31689 21.5196 7.42225 21.7071 7.60979C21.8946 7.79732 22 8.05168 22 8.31689V24.3169C22 24.5821 21.8946 24.8365 21.7071 25.024C21.5196 25.2115 21.2652 25.3169 21 25.3169H11C10.7348 25.3169 10.4804 25.2115 10.2929 25.024C10.1054 24.8365 10 24.5821 10 24.3169V8.31689C10 8.05168 10.1054 7.79732 10.2929 7.60979C10.4804 7.42225 10.7348 7.31689 11 7.31689ZM7.5 9.31689H6.5C6.36739 9.31689 6.24021 9.36957 6.14645 9.46334C6.05268 9.55711 6 9.68429 6 9.81689V22.8169C6 22.9495 6.05268 23.0767 6.14645 23.1704C6.24021 23.2642 6.36739 23.3169 6.5 23.3169H7.5C7.63261 23.3169 7.75979 23.2642 7.85355 23.1704C7.94732 23.0767 8 22.9495 8 22.8169V9.81689C8 9.68429 7.94732 9.55711 7.85355 9.46334C7.75979 9.36957 7.63261 9.31689 7.5 9.31689ZM25.5 9.31689H24.5C24.3674 9.31689 24.2402 9.36957 24.1464 9.46334C24.0527 9.55711 24 9.68429 24 9.81689V22.8169C24 22.9495 24.0527 23.0767 24.1464 23.1704C24.2402 23.2642 24.3674 23.3169 24.5 23.3169H25.5C25.6326 23.3169 25.7598 23.2642 25.8536 23.1704C25.9473 23.0767 26 22.9495 26 22.8169V9.81689C26 9.68429 25.9473 9.55711 25.8536 9.46334C25.7598 9.36957 25.6326 9.31689 25.5 9.31689Z" fill="white"/>
</svg>
