<?xml version="1.0"?>
<svg width="65" height="59" xmlns="http://www.w3.org/2000/svg" xmlns:svg="http://www.w3.org/2000/svg">
 <g class="layer">
  <title>Layer 1</title>
  <path clip-rule="evenodd" d="m58.88,36.56l-5.94,-12.73l-5.93,12.73c-0.44,0.89 -0.69,1.89 -0.69,2.95c0,3.66 2.96,6.63 6.63,6.63c3.66,0 6.63,-2.97 6.63,-6.63c0,-1.07 -0.25,-2.06 -0.69,-2.96l-0.01,0.01z" fill="#cccdce" fill-rule="evenodd" id="svg_2" transform="matrix(1 0 0 1 0 0)"/>
  <path clip-rule="evenodd" d="m6.41,36.71l11.2,-24.03c1.55,-3.32 5.49,-4.75 8.81,-3.2c3.32,1.54 4.76,5.49 3.2,8.81l-11.2,24.03c-1.54,3.32 -5.49,4.75 -8.81,3.2c-3.32,-1.54 -4.75,-5.49 -3.2,-8.81z" fill="#cccdce" fill-rule="evenodd" id="svg_3"/>
  <path clip-rule="evenodd" d="m26.67,36.71l11.2,-24.03c1.55,-3.32 5.49,-4.75 8.81,-3.2c3.32,1.54 4.76,5.49 3.21,8.81l-11.2,24.03c-1.55,3.32 -5.49,4.75 -8.81,3.2c-3.32,-1.54 -4.76,-5.49 -3.21,-8.81z" fill="#cccdce" fill-rule="evenodd" id="svg_4" transform="matrix(1 0 0 1 0 0)"/>
  <path d="m14.98,52.53l0.57,0l0,-1.4c0,-0.13 0.02,-0.25 0.06,-0.33c0.05,-0.1 0.11,-0.17 0.19,-0.22c0.08,-0.05 0.17,-0.07 0.28,-0.08c0.16,0 0.28,0.05 0.37,0.16c0.09,0.1 0.13,0.25 0.14,0.45l0,1.42l0.57,0l0,-1.41c0,-0.14 0.02,-0.24 0.07,-0.34c0.04,-0.09 0.11,-0.16 0.19,-0.21c0.08,-0.05 0.17,-0.07 0.27,-0.07c0.16,0 0.29,0.05 0.37,0.16c0.09,0.1 0.13,0.25 0.13,0.45l0,1.42l0.57,0l0,-1.59c0,-0.2 -0.04,-0.37 -0.11,-0.52c-0.07,-0.14 -0.17,-0.25 -0.3,-0.32c-0.13,-0.07 -0.29,-0.11 -0.47,-0.12c-0.12,0 -0.23,0.03 -0.33,0.06c-0.11,0.04 -0.2,0.09 -0.28,0.15c-0.09,0.07 -0.16,0.15 -0.23,0.23c-0.04,-0.08 -0.1,-0.16 -0.17,-0.23c-0.07,-0.06 -0.15,-0.11 -0.24,-0.15c-0.1,-0.03 -0.21,-0.06 -0.33,-0.06c-0.13,0 -0.23,0.03 -0.33,0.07c-0.09,0.04 -0.17,0.09 -0.24,0.16c-0.07,0.06 -0.13,0.13 -0.18,0.21l0,-0.39l-0.57,0l0,2.5zm6.57,0l0,-1.48c0,-0.23 -0.05,-0.41 -0.12,-0.57c-0.08,-0.16 -0.21,-0.27 -0.37,-0.36c-0.17,-0.09 -0.37,-0.12 -0.61,-0.12c-0.14,0 -0.26,0.01 -0.37,0.03c-0.11,0.01 -0.21,0.04 -0.3,0.07c-0.09,0.03 -0.19,0.06 -0.28,0.11l0.16,0.46c0.07,-0.03 0.15,-0.06 0.22,-0.09c0.07,-0.02 0.15,-0.04 0.23,-0.05c0.08,-0.01 0.17,-0.02 0.26,-0.02c0.2,0 0.35,0.04 0.45,0.14c0.11,0.09 0.16,0.22 0.16,0.39l0,0.05c-0.06,-0.02 -0.13,-0.04 -0.19,-0.06c-0.07,-0.01 -0.15,-0.03 -0.23,-0.03c-0.08,-0.01 -0.17,-0.02 -0.27,-0.02c-0.14,0 -0.28,0.02 -0.4,0.05c-0.12,0.04 -0.23,0.09 -0.33,0.15c-0.09,0.07 -0.15,0.16 -0.2,0.26c-0.05,0.1 -0.08,0.22 -0.08,0.35c0,0.14 0.02,0.25 0.07,0.34c0.05,0.1 0.11,0.18 0.19,0.24c0.09,0.06 0.18,0.11 0.28,0.15c0.11,0.04 0.22,0.05 0.34,0.05c0.13,0 0.24,-0.01 0.34,-0.05c0.1,-0.03 0.19,-0.07 0.26,-0.13c0.08,-0.06 0.15,-0.11 0.21,-0.18l0,0.31l0.56,0l0.02,0.01zm-0.56,-0.9c0,0.11 -0.02,0.19 -0.08,0.27c-0.06,0.08 -0.14,0.14 -0.24,0.18c-0.1,0.05 -0.21,0.07 -0.34,0.07c-0.09,0 -0.17,-0.02 -0.24,-0.05c-0.07,-0.02 -0.13,-0.07 -0.17,-0.12c-0.05,-0.06 -0.07,-0.12 -0.07,-0.2c0,-0.09 0.02,-0.16 0.07,-0.22c0.05,-0.05 0.11,-0.1 0.2,-0.12c0.08,-0.03 0.18,-0.05 0.31,-0.05c0.11,0 0.21,0.01 0.31,0.03c0.1,0.02 0.18,0.04 0.26,0.07l0,0.15l-0.01,-0.01zm1.24,0.9l0.57,0l0,-1.41c0,-0.13 0.02,-0.24 0.07,-0.33c0.05,-0.09 0.11,-0.17 0.19,-0.21c0.09,-0.05 0.18,-0.07 0.3,-0.07c0.17,0 0.3,0.06 0.39,0.16c0.1,0.1 0.14,0.25 0.14,0.45l0,1.42l0.57,0l0,-1.59c0,-0.2 -0.04,-0.37 -0.11,-0.51c-0.07,-0.15 -0.17,-0.25 -0.3,-0.33c-0.13,-0.08 -0.3,-0.13 -0.48,-0.13c-0.13,0 -0.25,0.03 -0.34,0.07c-0.09,0.04 -0.18,0.09 -0.25,0.16c-0.07,0.06 -0.14,0.13 -0.19,0.21l0,-0.39l-0.57,0l0,2.5l0.01,0zm4.03,0.76c0.22,0 0.43,-0.03 0.6,-0.08c0.17,-0.06 0.31,-0.14 0.43,-0.25c0.1,-0.1 0.18,-0.23 0.24,-0.39c0.05,-0.16 0.08,-0.34 0.08,-0.55l0,-1.98l-0.57,0l0,0.38c-0.07,-0.08 -0.14,-0.16 -0.22,-0.22c-0.08,-0.07 -0.18,-0.12 -0.28,-0.15c-0.11,-0.04 -0.23,-0.06 -0.37,-0.06c-0.12,0 -0.23,0.02 -0.34,0.05c-0.11,0.04 -0.22,0.09 -0.31,0.15c-0.09,0.07 -0.18,0.15 -0.25,0.24c-0.07,0.09 -0.13,0.2 -0.17,0.32c-0.05,0.13 -0.07,0.26 -0.07,0.41c0,0.15 0.02,0.28 0.07,0.4c0.04,0.13 0.09,0.23 0.17,0.33c0.07,0.09 0.16,0.17 0.25,0.24c0.09,0.06 0.2,0.11 0.31,0.15c0.11,0.03 0.22,0.05 0.35,0.05c0.13,0 0.25,-0.02 0.36,-0.06c0.11,-0.04 0.2,-0.09 0.29,-0.16c0.09,-0.06 0.16,-0.15 0.23,-0.24l0,0.2c0,0.25 -0.07,0.44 -0.2,0.57c-0.14,0.13 -0.33,0.19 -0.58,0.19c-0.18,0 -0.33,-0.02 -0.48,-0.07c-0.14,-0.05 -0.29,-0.11 -0.42,-0.2l-0.21,0.43c0.16,0.1 0.34,0.18 0.52,0.23c0.19,0.05 0.39,0.08 0.59,0.08l-0.02,-0.01zm0.05,-1.44c-0.1,0 -0.18,-0.01 -0.27,-0.05c-0.09,-0.03 -0.16,-0.08 -0.22,-0.14c-0.07,-0.07 -0.12,-0.14 -0.15,-0.22c-0.04,-0.08 -0.06,-0.18 -0.06,-0.28c0,-0.11 0.02,-0.21 0.06,-0.28c0.03,-0.09 0.08,-0.16 0.15,-0.22c0.06,-0.06 0.13,-0.11 0.22,-0.14c0.09,-0.03 0.18,-0.05 0.28,-0.05c0.1,0 0.19,0.02 0.28,0.05c0.09,0.04 0.16,0.08 0.23,0.15c0.06,0.05 0.12,0.13 0.16,0.21c0.03,0.09 0.05,0.18 0.05,0.28c0,0.11 -0.02,0.2 -0.05,0.29c-0.04,0.09 -0.1,0.16 -0.16,0.22c-0.07,0.06 -0.14,0.1 -0.23,0.14c-0.09,0.04 -0.18,0.05 -0.28,0.05l-0.01,-0.01zm4.1,0.68l0,-1.48c0,-0.23 -0.05,-0.41 -0.12,-0.57c-0.08,-0.16 -0.21,-0.27 -0.37,-0.36c-0.17,-0.09 -0.37,-0.12 -0.61,-0.12c-0.14,0 -0.26,0.01 -0.37,0.03c-0.11,0.01 -0.21,0.04 -0.3,0.07c-0.09,0.03 -0.19,0.06 -0.28,0.11l0.16,0.46c0.07,-0.03 0.15,-0.06 0.22,-0.09c0.07,-0.02 0.15,-0.04 0.23,-0.05c0.08,-0.01 0.17,-0.02 0.26,-0.02c0.2,0 0.35,0.04 0.45,0.14c0.11,0.09 0.16,0.22 0.16,0.39l0,0.05c-0.06,-0.02 -0.13,-0.04 -0.19,-0.06c-0.07,-0.01 -0.15,-0.03 -0.23,-0.03c-0.08,-0.01 -0.17,-0.02 -0.27,-0.02c-0.14,0 -0.28,0.02 -0.4,0.05c-0.12,0.04 -0.23,0.09 -0.33,0.15c-0.09,0.07 -0.15,0.16 -0.2,0.26c-0.05,0.1 -0.08,0.22 -0.08,0.35c0,0.14 0.03,0.25 0.07,0.34c0.05,0.1 0.11,0.18 0.19,0.24c0.09,0.06 0.18,0.11 0.28,0.15c0.11,0.04 0.22,0.05 0.34,0.05c0.13,0 0.24,-0.01 0.34,-0.05c0.1,-0.03 0.19,-0.07 0.26,-0.13c0.08,-0.06 0.15,-0.11 0.21,-0.18l0,0.31l0.56,0l0.02,0.01zm-0.56,-0.9c0,0.11 -0.02,0.19 -0.08,0.27c-0.06,0.08 -0.14,0.14 -0.24,0.18c-0.1,0.05 -0.21,0.07 -0.34,0.07c-0.09,0 -0.17,-0.02 -0.24,-0.05c-0.07,-0.02 -0.13,-0.07 -0.17,-0.12c-0.05,-0.06 -0.07,-0.12 -0.07,-0.2c0,-0.09 0.02,-0.16 0.07,-0.22c0.05,-0.05 0.11,-0.1 0.2,-0.12c0.08,-0.03 0.18,-0.05 0.31,-0.05c0.11,0 0.21,0.01 0.31,0.03c0.1,0.02 0.19,0.04 0.26,0.07l0,0.15l-0.01,-0.01zm1.27,0.9l0.57,0l0,-3.44l-0.57,0l0,3.44zm3.41,0l0,-1.48c0,-0.23 -0.05,-0.41 -0.13,-0.57c-0.08,-0.16 -0.2,-0.27 -0.36,-0.36c-0.17,-0.09 -0.37,-0.12 -0.61,-0.12c-0.14,0 -0.26,0.01 -0.37,0.03c-0.11,0.02 -0.21,0.04 -0.3,0.07c-0.1,0.03 -0.19,0.06 -0.28,0.11l0.16,0.46c0.07,-0.03 0.15,-0.06 0.22,-0.09c0.07,-0.02 0.15,-0.04 0.23,-0.05c0.08,-0.01 0.16,-0.02 0.26,-0.02c0.2,0 0.35,0.04 0.45,0.14c0.11,0.09 0.16,0.22 0.16,0.39l0,0.05c-0.07,-0.02 -0.13,-0.04 -0.2,-0.06c-0.06,-0.01 -0.14,-0.03 -0.22,-0.03c-0.08,-0.01 -0.17,-0.02 -0.27,-0.02c-0.15,0 -0.28,0.02 -0.4,0.05c-0.13,0.04 -0.23,0.09 -0.33,0.15c-0.09,0.07 -0.16,0.16 -0.21,0.26c-0.05,0.1 -0.07,0.22 -0.08,0.35c0,0.14 0.03,0.25 0.08,0.34c0.05,0.1 0.11,0.18 0.19,0.24c0.09,0.06 0.18,0.11 0.28,0.15c0.11,0.04 0.22,0.05 0.34,0.05c0.13,0 0.24,-0.01 0.34,-0.05c0.1,-0.03 0.18,-0.07 0.26,-0.13c0.08,-0.06 0.15,-0.11 0.2,-0.18l0,0.31l0.57,0l0.02,0.01zm-0.56,-0.9c0,0.11 -0.03,0.19 -0.08,0.27c-0.06,0.08 -0.14,0.14 -0.24,0.18c-0.1,0.05 -0.21,0.07 -0.34,0.07c-0.09,0 -0.17,-0.02 -0.24,-0.05c-0.08,-0.02 -0.13,-0.07 -0.18,-0.12c-0.04,-0.06 -0.06,-0.12 -0.06,-0.2c0,-0.09 0.02,-0.16 0.07,-0.22c0.04,-0.05 0.11,-0.1 0.2,-0.12c0.08,-0.03 0.18,-0.05 0.3,-0.05c0.12,0 0.22,0.01 0.32,0.03c0.1,0.02 0.18,0.04 0.26,0.07l0,0.15l-0.01,-0.01zm1.23,0.9l0.57,0l0,-1.4c0,-0.13 0.02,-0.25 0.06,-0.33c0.05,-0.1 0.11,-0.17 0.19,-0.22c0.08,-0.05 0.17,-0.07 0.28,-0.08c0.16,0 0.28,0.05 0.37,0.16c0.09,0.1 0.13,0.25 0.14,0.45l0,1.42l0.57,0l0,-1.41c0,-0.14 0.02,-0.24 0.07,-0.34c0.04,-0.09 0.11,-0.16 0.19,-0.21c0.08,-0.05 0.17,-0.07 0.28,-0.07c0.15,0 0.28,0.05 0.37,0.16c0.09,0.1 0.13,0.25 0.13,0.45l0,1.42l0.57,0l0,-1.59c0,-0.2 -0.04,-0.37 -0.11,-0.52c-0.07,-0.14 -0.17,-0.25 -0.3,-0.32c-0.13,-0.07 -0.29,-0.11 -0.47,-0.12c-0.12,0 -0.24,0.03 -0.34,0.06c-0.1,0.04 -0.19,0.09 -0.28,0.15c-0.08,0.07 -0.16,0.15 -0.22,0.23c-0.04,-0.08 -0.1,-0.16 -0.17,-0.23c-0.07,-0.06 -0.15,-0.11 -0.25,-0.15c-0.09,-0.03 -0.2,-0.06 -0.32,-0.06c-0.13,0 -0.24,0.03 -0.33,0.07c-0.09,0.04 -0.18,0.09 -0.25,0.16c-0.07,0.06 -0.12,0.13 -0.17,0.21l0,-0.39l-0.57,0l0,2.5l-0.01,0zm4.45,0l0.62,0l0,-0.65l-0.62,0l0,0.65zm2.36,0.06c0.16,0 0.3,-0.03 0.43,-0.06c0.12,-0.04 0.23,-0.1 0.33,-0.17c0.09,-0.07 0.18,-0.15 0.26,-0.24l-0.34,-0.34c-0.06,0.07 -0.12,0.12 -0.19,0.17c-0.06,0.04 -0.14,0.07 -0.21,0.1c-0.08,0.03 -0.16,0.04 -0.25,0.05c-0.11,0 -0.21,-0.02 -0.3,-0.07c-0.09,-0.04 -0.17,-0.1 -0.24,-0.17c-0.06,-0.07 -0.11,-0.16 -0.15,-0.26c-0.03,-0.09 -0.06,-0.2 -0.06,-0.31c0,-0.12 0.03,-0.22 0.05,-0.31c0.04,-0.1 0.09,-0.18 0.16,-0.26c0.06,-0.07 0.14,-0.13 0.23,-0.17c0.08,-0.04 0.17,-0.06 0.28,-0.06c0.1,0 0.18,0.01 0.26,0.04c0.08,0.03 0.14,0.06 0.21,0.11c0.06,0.04 0.12,0.1 0.18,0.16l0.35,-0.38c-0.08,-0.08 -0.16,-0.16 -0.26,-0.22c-0.09,-0.07 -0.2,-0.12 -0.32,-0.15c-0.12,-0.04 -0.26,-0.06 -0.42,-0.06c-0.18,0 -0.36,0.04 -0.51,0.1c-0.16,0.07 -0.3,0.17 -0.41,0.28c-0.12,0.12 -0.21,0.26 -0.28,0.42c-0.06,0.16 -0.09,0.32 -0.1,0.5c0,0.19 0.04,0.35 0.1,0.51c0.07,0.16 0.15,0.29 0.27,0.41c0.11,0.12 0.25,0.21 0.41,0.28c0.16,0.07 0.33,0.1 0.51,0.1l0.01,0zm2.65,0c0.2,0 0.38,-0.04 0.54,-0.11c0.16,-0.06 0.3,-0.15 0.42,-0.28c0.12,-0.12 0.22,-0.25 0.28,-0.41c0.06,-0.15 0.1,-0.32 0.1,-0.5c0,-0.18 -0.04,-0.36 -0.1,-0.51c-0.06,-0.16 -0.16,-0.29 -0.27,-0.41c-0.13,-0.11 -0.26,-0.21 -0.42,-0.28c-0.16,-0.06 -0.34,-0.1 -0.53,-0.1c-0.2,0 -0.37,0.04 -0.53,0.1c-0.17,0.07 -0.31,0.16 -0.43,0.28c-0.12,0.12 -0.21,0.26 -0.28,0.42c-0.06,0.16 -0.1,0.32 -0.1,0.5c0,0.19 0.04,0.35 0.1,0.51c0.07,0.16 0.16,0.29 0.28,0.41c0.12,0.12 0.25,0.21 0.41,0.28c0.16,0.07 0.34,0.1 0.53,0.1l0,0zm0.02,-0.5c-0.12,0 -0.22,-0.02 -0.31,-0.07c-0.09,-0.04 -0.17,-0.1 -0.24,-0.17c-0.07,-0.07 -0.13,-0.16 -0.16,-0.26c-0.04,-0.09 -0.06,-0.2 -0.06,-0.31c0,-0.12 0.02,-0.22 0.05,-0.31c0.04,-0.09 0.09,-0.18 0.15,-0.25c0.07,-0.07 0.14,-0.13 0.24,-0.18c0.09,-0.04 0.19,-0.06 0.31,-0.06c0.11,0 0.21,0.02 0.31,0.06c0.09,0.05 0.17,0.11 0.24,0.18c0.06,0.07 0.12,0.16 0.16,0.25c0.03,0.09 0.06,0.2 0.06,0.31c0,0.11 -0.03,0.22 -0.05,0.31c-0.04,0.1 -0.09,0.18 -0.16,0.26c-0.06,0.07 -0.14,0.12 -0.23,0.17c-0.1,0.04 -0.2,0.06 -0.32,0.06l0.01,0.01zm1.9,0.44l0.57,0l0,-1.4c0,-0.13 0.02,-0.25 0.06,-0.33c0.05,-0.1 0.11,-0.17 0.19,-0.22c0.08,-0.05 0.17,-0.07 0.28,-0.08c0.16,0 0.28,0.05 0.38,0.16c0.08,0.1 0.13,0.25 0.13,0.45l0,1.42l0.57,0l0,-1.41c0,-0.14 0.02,-0.24 0.07,-0.34c0.04,-0.09 0.11,-0.16 0.19,-0.21c0.08,-0.05 0.17,-0.07 0.28,-0.07c0.16,0 0.29,0.05 0.37,0.16c0.09,0.1 0.13,0.25 0.13,0.45l0,1.42l0.57,0l0,-1.59c0,-0.2 -0.04,-0.37 -0.11,-0.52c-0.07,-0.14 -0.17,-0.25 -0.3,-0.32c-0.13,-0.07 -0.29,-0.11 -0.47,-0.12c-0.12,0 -0.23,0.03 -0.33,0.06c-0.11,0.04 -0.2,0.09 -0.29,0.15c-0.08,0.07 -0.15,0.15 -0.22,0.23c-0.04,-0.08 -0.1,-0.16 -0.17,-0.23c-0.07,-0.06 -0.15,-0.11 -0.24,-0.15c-0.1,-0.03 -0.21,-0.06 -0.33,-0.06c-0.13,0 -0.24,0.03 -0.33,0.07c-0.09,0.04 -0.18,0.09 -0.24,0.16c-0.07,0.06 -0.13,0.13 -0.19,0.21l0,-0.39l-0.57,0l0,2.5z" fill="#cccdce" id="svg_5"/>
  <rect fill="#0072BC" height="0" id="svg_1" width="0" x="84" y="43"/>
 </g>
</svg>